<mxfile host="app.diagrams.net" modified="2024-04-11T18:50:11.425Z" agent="Mozilla/5.0 (Windows NT 10.0; Win64; x64) AppleWebKit/537.36 (KHTML, like Gecko) Chrome/123.0.0.0 Safari/537.36" etag="iHeMFvYwDlI-QPrx0dc_" version="24.2.1" type="device">
  <diagram name="Page-1" id="U6_GgQLXY7Tj6k7GV_qN">
    <mxGraphModel dx="1092" dy="468" grid="1" gridSize="10" guides="1" tooltips="1" connect="1" arrows="1" fold="1" page="1" pageScale="1" pageWidth="827" pageHeight="1169" math="0" shadow="0">
      <root>
        <mxCell id="0" />
        <mxCell id="1" parent="0" />
        <mxCell id="KzYpFukq2n-FsAEkfhw3-8" style="edgeStyle=orthogonalEdgeStyle;rounded=0;orthogonalLoop=1;jettySize=auto;html=1;exitX=1;exitY=0.5;exitDx=0;exitDy=0;entryX=0;entryY=0.5;entryDx=0;entryDy=0;" parent="1" source="KzYpFukq2n-FsAEkfhw3-1" target="KzYpFukq2n-FsAEkfhw3-2" edge="1">
          <mxGeometry relative="1" as="geometry" />
        </mxCell>
        <mxCell id="KzYpFukq2n-FsAEkfhw3-1" value="Customer" style="whiteSpace=wrap;html=1;aspect=fixed;" parent="1" vertex="1">
          <mxGeometry x="30" y="100" width="80" height="80" as="geometry" />
        </mxCell>
        <mxCell id="KzYpFukq2n-FsAEkfhw3-9" style="edgeStyle=orthogonalEdgeStyle;rounded=0;orthogonalLoop=1;jettySize=auto;html=1;exitX=1;exitY=0.5;exitDx=0;exitDy=0;entryX=0;entryY=0.5;entryDx=0;entryDy=0;" parent="1" source="KzYpFukq2n-FsAEkfhw3-2" target="KzYpFukq2n-FsAEkfhw3-3" edge="1">
          <mxGeometry relative="1" as="geometry" />
        </mxCell>
        <mxCell id="KzYpFukq2n-FsAEkfhw3-2" value="Merchant" style="whiteSpace=wrap;html=1;aspect=fixed;" parent="1" vertex="1">
          <mxGeometry x="200" y="100" width="80" height="80" as="geometry" />
        </mxCell>
        <mxCell id="KzYpFukq2n-FsAEkfhw3-10" style="edgeStyle=orthogonalEdgeStyle;rounded=0;orthogonalLoop=1;jettySize=auto;html=1;exitX=1;exitY=0.5;exitDx=0;exitDy=0;entryX=0;entryY=0.5;entryDx=0;entryDy=0;" parent="1" source="KzYpFukq2n-FsAEkfhw3-3" target="KzYpFukq2n-FsAEkfhw3-6" edge="1">
          <mxGeometry relative="1" as="geometry" />
        </mxCell>
        <mxCell id="KzYpFukq2n-FsAEkfhw3-3" value="Paymet Gateway" style="whiteSpace=wrap;html=1;aspect=fixed;" parent="1" vertex="1">
          <mxGeometry x="385" y="100" width="80" height="80" as="geometry" />
        </mxCell>
        <mxCell id="KzYpFukq2n-FsAEkfhw3-15" style="edgeStyle=orthogonalEdgeStyle;rounded=0;orthogonalLoop=1;jettySize=auto;html=1;exitX=0;exitY=0.5;exitDx=0;exitDy=0;entryX=1;entryY=0.5;entryDx=0;entryDy=0;" parent="1" source="KzYpFukq2n-FsAEkfhw3-4" target="KzYpFukq2n-FsAEkfhw3-14" edge="1">
          <mxGeometry relative="1" as="geometry" />
        </mxCell>
        <mxCell id="KzYpFukq2n-FsAEkfhw3-4" value="Acquiring Bank" style="whiteSpace=wrap;html=1;aspect=fixed;" parent="1" vertex="1">
          <mxGeometry x="280" y="250" width="80" height="80" as="geometry" />
        </mxCell>
        <mxCell id="KzYpFukq2n-FsAEkfhw3-13" style="edgeStyle=orthogonalEdgeStyle;rounded=0;orthogonalLoop=1;jettySize=auto;html=1;exitX=0;exitY=0.5;exitDx=0;exitDy=0;entryX=1;entryY=0.5;entryDx=0;entryDy=0;" parent="1" source="KzYpFukq2n-FsAEkfhw3-5" target="KzYpFukq2n-FsAEkfhw3-4" edge="1">
          <mxGeometry relative="1" as="geometry" />
        </mxCell>
        <mxCell id="KzYpFukq2n-FsAEkfhw3-5" value="Issuing Bank" style="whiteSpace=wrap;html=1;aspect=fixed;" parent="1" vertex="1">
          <mxGeometry x="470" y="250" width="80" height="80" as="geometry" />
        </mxCell>
        <mxCell id="KzYpFukq2n-FsAEkfhw3-11" style="edgeStyle=orthogonalEdgeStyle;rounded=0;orthogonalLoop=1;jettySize=auto;html=1;exitX=0.5;exitY=1;exitDx=0;exitDy=0;entryX=0.5;entryY=0;entryDx=0;entryDy=0;" parent="1" source="KzYpFukq2n-FsAEkfhw3-6" target="KzYpFukq2n-FsAEkfhw3-7" edge="1">
          <mxGeometry relative="1" as="geometry" />
        </mxCell>
        <mxCell id="KzYpFukq2n-FsAEkfhw3-6" value="Payment Processor" style="whiteSpace=wrap;html=1;aspect=fixed;" parent="1" vertex="1">
          <mxGeometry x="630" y="100" width="80" height="80" as="geometry" />
        </mxCell>
        <mxCell id="KzYpFukq2n-FsAEkfhw3-7" value="Card Schemes" style="whiteSpace=wrap;html=1;aspect=fixed;" parent="1" vertex="1">
          <mxGeometry x="630" y="240" width="80" height="80" as="geometry" />
        </mxCell>
        <mxCell id="KzYpFukq2n-FsAEkfhw3-12" style="edgeStyle=orthogonalEdgeStyle;rounded=0;orthogonalLoop=1;jettySize=auto;html=1;exitX=0;exitY=0.5;exitDx=0;exitDy=0;entryX=1.05;entryY=0.375;entryDx=0;entryDy=0;entryPerimeter=0;" parent="1" source="KzYpFukq2n-FsAEkfhw3-7" target="KzYpFukq2n-FsAEkfhw3-5" edge="1">
          <mxGeometry relative="1" as="geometry" />
        </mxCell>
        <mxCell id="KzYpFukq2n-FsAEkfhw3-14" value="Merchant Bank" style="whiteSpace=wrap;html=1;aspect=fixed;" parent="1" vertex="1">
          <mxGeometry x="50" y="250" width="80" height="80" as="geometry" />
        </mxCell>
        <mxCell id="KzYpFukq2n-FsAEkfhw3-16" value="PCI DSS" style="ellipse;whiteSpace=wrap;html=1;" parent="1" vertex="1">
          <mxGeometry x="480" y="80" width="60" height="40" as="geometry" />
        </mxCell>
        <mxCell id="KzYpFukq2n-FsAEkfhw3-18" value="Acquiring Bank" style="whiteSpace=wrap;html=1;aspect=fixed;" parent="1" vertex="1">
          <mxGeometry x="610" y="40" width="80" height="80" as="geometry" />
        </mxCell>
        <mxCell id="KzYpFukq2n-FsAEkfhw3-19" value="Payment Service Provider" style="ellipse;whiteSpace=wrap;html=1;" parent="1" vertex="1">
          <mxGeometry x="670" y="20" width="100" height="70" as="geometry" />
        </mxCell>
        <mxCell id="KzYpFukq2n-FsAEkfhw3-20" value="Merchant can&#39;t directly to Acquiring bank" style="text;html=1;align=center;verticalAlign=middle;whiteSpace=wrap;rounded=0;" parent="1" vertex="1">
          <mxGeometry x="350" y="10" width="150" height="30" as="geometry" />
        </mxCell>
        <mxCell id="Sct_ijZb0S9W05oiDWKm-1" value="&lt;i&gt;Places an&amp;nbsp;&lt;/i&gt;&lt;div&gt;&lt;i&gt;Order&lt;/i&gt;&lt;/div&gt;" style="text;html=1;align=center;verticalAlign=middle;resizable=0;points=[];autosize=1;strokeColor=none;fillColor=none;" vertex="1" parent="1">
          <mxGeometry x="114" y="95" width="80" height="40" as="geometry" />
        </mxCell>
        <mxCell id="Sct_ijZb0S9W05oiDWKm-2" value="&lt;i&gt;Submit Payment details&lt;/i&gt;" style="text;html=1;align=center;verticalAlign=middle;whiteSpace=wrap;rounded=0;" vertex="1" parent="1">
          <mxGeometry x="300" y="105" width="60" height="30" as="geometry" />
        </mxCell>
        <mxCell id="Sct_ijZb0S9W05oiDWKm-6" style="edgeStyle=orthogonalEdgeStyle;rounded=0;orthogonalLoop=1;jettySize=auto;html=1;exitX=1;exitY=0.5;exitDx=0;exitDy=0;entryX=0;entryY=0.5;entryDx=0;entryDy=0;" edge="1" parent="1" source="Sct_ijZb0S9W05oiDWKm-4" target="Sct_ijZb0S9W05oiDWKm-5">
          <mxGeometry relative="1" as="geometry" />
        </mxCell>
        <mxCell id="Sct_ijZb0S9W05oiDWKm-4" value="Customer" style="whiteSpace=wrap;html=1;aspect=fixed;" vertex="1" parent="1">
          <mxGeometry x="80" y="505" width="80" height="80" as="geometry" />
        </mxCell>
        <mxCell id="Sct_ijZb0S9W05oiDWKm-8" style="edgeStyle=orthogonalEdgeStyle;rounded=0;orthogonalLoop=1;jettySize=auto;html=1;exitX=1;exitY=0.5;exitDx=0;exitDy=0;entryX=0;entryY=0.5;entryDx=0;entryDy=0;" edge="1" parent="1" source="Sct_ijZb0S9W05oiDWKm-5" target="Sct_ijZb0S9W05oiDWKm-7">
          <mxGeometry relative="1" as="geometry" />
        </mxCell>
        <mxCell id="Sct_ijZb0S9W05oiDWKm-5" value="Merchant" style="whiteSpace=wrap;html=1;aspect=fixed;" vertex="1" parent="1">
          <mxGeometry x="250" y="505" width="80" height="80" as="geometry" />
        </mxCell>
        <mxCell id="Sct_ijZb0S9W05oiDWKm-10" style="edgeStyle=orthogonalEdgeStyle;rounded=0;orthogonalLoop=1;jettySize=auto;html=1;exitX=1;exitY=0.5;exitDx=0;exitDy=0;entryX=0;entryY=0.5;entryDx=0;entryDy=0;" edge="1" parent="1" source="Sct_ijZb0S9W05oiDWKm-7" target="Sct_ijZb0S9W05oiDWKm-9">
          <mxGeometry relative="1" as="geometry" />
        </mxCell>
        <mxCell id="Sct_ijZb0S9W05oiDWKm-7" value="Payment Service" style="whiteSpace=wrap;html=1;aspect=fixed;" vertex="1" parent="1">
          <mxGeometry x="420" y="505" width="80" height="80" as="geometry" />
        </mxCell>
        <mxCell id="Sct_ijZb0S9W05oiDWKm-9" value="PSP" style="whiteSpace=wrap;html=1;aspect=fixed;" vertex="1" parent="1">
          <mxGeometry x="590" y="505" width="80" height="80" as="geometry" />
        </mxCell>
        <mxCell id="Sct_ijZb0S9W05oiDWKm-19" style="edgeStyle=orthogonalEdgeStyle;rounded=0;orthogonalLoop=1;jettySize=auto;html=1;exitX=1;exitY=0.5;exitDx=0;exitDy=0;" edge="1" parent="1" source="Sct_ijZb0S9W05oiDWKm-11">
          <mxGeometry relative="1" as="geometry">
            <mxPoint x="340" y="790" as="targetPoint" />
          </mxGeometry>
        </mxCell>
        <mxCell id="Sct_ijZb0S9W05oiDWKm-24" style="edgeStyle=orthogonalEdgeStyle;rounded=0;orthogonalLoop=1;jettySize=auto;html=1;exitX=0.5;exitY=1;exitDx=0;exitDy=0;entryX=0.5;entryY=0;entryDx=0;entryDy=0;" edge="1" parent="1" source="Sct_ijZb0S9W05oiDWKm-11" target="Sct_ijZb0S9W05oiDWKm-15">
          <mxGeometry relative="1" as="geometry" />
        </mxCell>
        <mxCell id="Sct_ijZb0S9W05oiDWKm-11" value="Payment Ingestion" style="whiteSpace=wrap;html=1;aspect=fixed;" vertex="1" parent="1">
          <mxGeometry x="210" y="750" width="80" height="80" as="geometry" />
        </mxCell>
        <mxCell id="Sct_ijZb0S9W05oiDWKm-21" style="edgeStyle=orthogonalEdgeStyle;rounded=0;orthogonalLoop=1;jettySize=auto;html=1;exitX=1;exitY=0.5;exitDx=0;exitDy=0;entryX=0;entryY=0.5;entryDx=0;entryDy=0;" edge="1" parent="1" source="Sct_ijZb0S9W05oiDWKm-12" target="Sct_ijZb0S9W05oiDWKm-17">
          <mxGeometry relative="1" as="geometry" />
        </mxCell>
        <mxCell id="Sct_ijZb0S9W05oiDWKm-26" style="edgeStyle=orthogonalEdgeStyle;rounded=0;orthogonalLoop=1;jettySize=auto;html=1;exitX=0.25;exitY=1;exitDx=0;exitDy=0;" edge="1" parent="1" source="Sct_ijZb0S9W05oiDWKm-12" target="Sct_ijZb0S9W05oiDWKm-16">
          <mxGeometry relative="1" as="geometry" />
        </mxCell>
        <mxCell id="Sct_ijZb0S9W05oiDWKm-12" value="Payment Executor" style="whiteSpace=wrap;html=1;aspect=fixed;" vertex="1" parent="1">
          <mxGeometry x="470" y="748" width="80" height="80" as="geometry" />
        </mxCell>
        <mxCell id="Sct_ijZb0S9W05oiDWKm-13" value="" style="shape=cylinder3;whiteSpace=wrap;html=1;boundedLbl=1;backgroundOutline=1;size=15;" vertex="1" parent="1">
          <mxGeometry x="350" y="640" width="60" height="80" as="geometry" />
        </mxCell>
        <mxCell id="Sct_ijZb0S9W05oiDWKm-14" value="" style="shape=cylinder3;whiteSpace=wrap;html=1;boundedLbl=1;backgroundOutline=1;size=15;rotation=90;" vertex="1" parent="1">
          <mxGeometry x="363" y="748" width="36" height="80" as="geometry" />
        </mxCell>
        <mxCell id="Sct_ijZb0S9W05oiDWKm-15" value="Wallet" style="whiteSpace=wrap;html=1;aspect=fixed;" vertex="1" parent="1">
          <mxGeometry x="270" y="880" width="80" height="80" as="geometry" />
        </mxCell>
        <mxCell id="Sct_ijZb0S9W05oiDWKm-16" value="Ledger" style="whiteSpace=wrap;html=1;aspect=fixed;" vertex="1" parent="1">
          <mxGeometry x="430" y="880" width="80" height="80" as="geometry" />
        </mxCell>
        <mxCell id="Sct_ijZb0S9W05oiDWKm-17" value="PSP" style="whiteSpace=wrap;html=1;aspect=fixed;" vertex="1" parent="1">
          <mxGeometry x="630" y="748" width="80" height="80" as="geometry" />
        </mxCell>
        <mxCell id="Sct_ijZb0S9W05oiDWKm-18" style="edgeStyle=orthogonalEdgeStyle;rounded=0;orthogonalLoop=1;jettySize=auto;html=1;exitX=0.75;exitY=0;exitDx=0;exitDy=0;entryX=0;entryY=0;entryDx=0;entryDy=52.5;entryPerimeter=0;" edge="1" parent="1" source="Sct_ijZb0S9W05oiDWKm-11" target="Sct_ijZb0S9W05oiDWKm-13">
          <mxGeometry relative="1" as="geometry" />
        </mxCell>
        <mxCell id="Sct_ijZb0S9W05oiDWKm-20" style="edgeStyle=orthogonalEdgeStyle;rounded=0;orthogonalLoop=1;jettySize=auto;html=1;exitX=0;exitY=0.5;exitDx=0;exitDy=0;entryX=0.5;entryY=0;entryDx=0;entryDy=0;entryPerimeter=0;" edge="1" parent="1" source="Sct_ijZb0S9W05oiDWKm-12" target="Sct_ijZb0S9W05oiDWKm-14">
          <mxGeometry relative="1" as="geometry" />
        </mxCell>
        <mxCell id="Sct_ijZb0S9W05oiDWKm-22" value="" style="shape=cylinder3;whiteSpace=wrap;html=1;boundedLbl=1;backgroundOutline=1;size=15;" vertex="1" parent="1">
          <mxGeometry x="280" y="1010" width="60" height="80" as="geometry" />
        </mxCell>
        <mxCell id="Sct_ijZb0S9W05oiDWKm-23" value="" style="shape=cylinder3;whiteSpace=wrap;html=1;boundedLbl=1;backgroundOutline=1;size=15;" vertex="1" parent="1">
          <mxGeometry x="450" y="1010" width="60" height="80" as="geometry" />
        </mxCell>
        <mxCell id="Sct_ijZb0S9W05oiDWKm-25" style="edgeStyle=orthogonalEdgeStyle;rounded=0;orthogonalLoop=1;jettySize=auto;html=1;exitX=0.5;exitY=1;exitDx=0;exitDy=0;entryX=0.5;entryY=0;entryDx=0;entryDy=0;entryPerimeter=0;" edge="1" parent="1" source="Sct_ijZb0S9W05oiDWKm-15" target="Sct_ijZb0S9W05oiDWKm-22">
          <mxGeometry relative="1" as="geometry" />
        </mxCell>
        <mxCell id="Sct_ijZb0S9W05oiDWKm-27" style="edgeStyle=orthogonalEdgeStyle;rounded=0;orthogonalLoop=1;jettySize=auto;html=1;exitX=0.5;exitY=1;exitDx=0;exitDy=0;entryX=0.5;entryY=0;entryDx=0;entryDy=0;entryPerimeter=0;" edge="1" parent="1" source="Sct_ijZb0S9W05oiDWKm-16" target="Sct_ijZb0S9W05oiDWKm-23">
          <mxGeometry relative="1" as="geometry" />
        </mxCell>
        <mxCell id="Sct_ijZb0S9W05oiDWKm-34" style="edgeStyle=orthogonalEdgeStyle;rounded=0;orthogonalLoop=1;jettySize=auto;html=1;exitX=1;exitY=0.25;exitDx=0;exitDy=0;entryX=0;entryY=0.25;entryDx=0;entryDy=0;" edge="1" parent="1" source="Sct_ijZb0S9W05oiDWKm-28" target="Sct_ijZb0S9W05oiDWKm-29">
          <mxGeometry relative="1" as="geometry" />
        </mxCell>
        <mxCell id="Sct_ijZb0S9W05oiDWKm-28" value="&lt;i&gt;&lt;b&gt;Customer&lt;/b&gt;&lt;/i&gt;" style="whiteSpace=wrap;html=1;aspect=fixed;" vertex="1" parent="1">
          <mxGeometry x="70" y="1190" width="80" height="80" as="geometry" />
        </mxCell>
        <mxCell id="Sct_ijZb0S9W05oiDWKm-35" style="edgeStyle=orthogonalEdgeStyle;rounded=0;orthogonalLoop=1;jettySize=auto;html=1;exitX=1;exitY=0.25;exitDx=0;exitDy=0;entryX=0;entryY=0.25;entryDx=0;entryDy=0;" edge="1" parent="1" source="Sct_ijZb0S9W05oiDWKm-29" target="Sct_ijZb0S9W05oiDWKm-30">
          <mxGeometry relative="1" as="geometry" />
        </mxCell>
        <mxCell id="Sct_ijZb0S9W05oiDWKm-45" style="edgeStyle=orthogonalEdgeStyle;rounded=0;orthogonalLoop=1;jettySize=auto;html=1;exitX=0;exitY=0.75;exitDx=0;exitDy=0;entryX=1;entryY=0.5;entryDx=0;entryDy=0;" edge="1" parent="1" source="Sct_ijZb0S9W05oiDWKm-29" target="Sct_ijZb0S9W05oiDWKm-44">
          <mxGeometry relative="1" as="geometry" />
        </mxCell>
        <mxCell id="Sct_ijZb0S9W05oiDWKm-29" value="&lt;i&gt;&lt;b&gt;Merchant&lt;/b&gt;&lt;/i&gt;" style="whiteSpace=wrap;html=1;aspect=fixed;" vertex="1" parent="1">
          <mxGeometry x="235" y="1190" width="80" height="80" as="geometry" />
        </mxCell>
        <mxCell id="Sct_ijZb0S9W05oiDWKm-36" style="edgeStyle=orthogonalEdgeStyle;rounded=0;orthogonalLoop=1;jettySize=auto;html=1;exitX=1;exitY=0.25;exitDx=0;exitDy=0;" edge="1" parent="1" source="Sct_ijZb0S9W05oiDWKm-30">
          <mxGeometry relative="1" as="geometry">
            <mxPoint x="540" y="1210" as="targetPoint" />
          </mxGeometry>
        </mxCell>
        <mxCell id="Sct_ijZb0S9W05oiDWKm-43" style="edgeStyle=orthogonalEdgeStyle;rounded=0;orthogonalLoop=1;jettySize=auto;html=1;exitX=0;exitY=0.75;exitDx=0;exitDy=0;" edge="1" parent="1" source="Sct_ijZb0S9W05oiDWKm-30" target="Sct_ijZb0S9W05oiDWKm-42">
          <mxGeometry relative="1" as="geometry" />
        </mxCell>
        <mxCell id="Sct_ijZb0S9W05oiDWKm-30" value="&lt;i&gt;&lt;b&gt;Payment System&lt;/b&gt;&lt;/i&gt;" style="whiteSpace=wrap;html=1;aspect=fixed;fillColor=#ffff88;strokeColor=#36393d;" vertex="1" parent="1">
          <mxGeometry x="397" y="1190" width="80" height="80" as="geometry" />
        </mxCell>
        <mxCell id="Sct_ijZb0S9W05oiDWKm-37" style="edgeStyle=orthogonalEdgeStyle;rounded=0;orthogonalLoop=1;jettySize=auto;html=1;exitX=0;exitY=0.75;exitDx=0;exitDy=0;" edge="1" parent="1" source="Sct_ijZb0S9W05oiDWKm-31">
          <mxGeometry relative="1" as="geometry">
            <mxPoint x="490" y="1250" as="targetPoint" />
          </mxGeometry>
        </mxCell>
        <mxCell id="Sct_ijZb0S9W05oiDWKm-31" value="&lt;i&gt;&lt;b&gt;PSP&lt;/b&gt;&lt;/i&gt;" style="whiteSpace=wrap;html=1;aspect=fixed;" vertex="1" parent="1">
          <mxGeometry x="550" y="1190" width="80" height="80" as="geometry" />
        </mxCell>
        <mxCell id="Sct_ijZb0S9W05oiDWKm-38" value="&lt;b&gt;X&lt;/b&gt;" style="whiteSpace=wrap;html=1;aspect=fixed;fillColor=#e51400;fontColor=#ffffff;strokeColor=#B20000;" vertex="1" parent="1">
          <mxGeometry x="470" y="1240" width="20" height="20" as="geometry" />
        </mxCell>
        <mxCell id="Sct_ijZb0S9W05oiDWKm-41" value="&lt;i&gt;&lt;b&gt;Payment Processed&lt;/b&gt;&lt;/i&gt;" style="rounded=0;whiteSpace=wrap;html=1;fillColor=#60a917;fontColor=#ffffff;strokeColor=#2D7600;" vertex="1" parent="1">
          <mxGeometry x="540" y="1191" width="70" height="31" as="geometry" />
        </mxCell>
        <mxCell id="Sct_ijZb0S9W05oiDWKm-42" value="&lt;b&gt;X&lt;/b&gt;" style="whiteSpace=wrap;html=1;aspect=fixed;fillColor=#e51400;fontColor=#ffffff;strokeColor=#B20000;" vertex="1" parent="1">
          <mxGeometry x="310" y="1240" width="20" height="20" as="geometry" />
        </mxCell>
        <mxCell id="Sct_ijZb0S9W05oiDWKm-44" value="&lt;b&gt;X&lt;/b&gt;" style="whiteSpace=wrap;html=1;aspect=fixed;fillColor=#e51400;fontColor=#ffffff;strokeColor=#B20000;" vertex="1" parent="1">
          <mxGeometry x="144" y="1240" width="20" height="20" as="geometry" />
        </mxCell>
        <mxCell id="Sct_ijZb0S9W05oiDWKm-65" value="&lt;i&gt;&lt;b&gt;Customer&lt;/b&gt;&lt;/i&gt;" style="rounded=0;whiteSpace=wrap;html=1;" vertex="1" parent="1">
          <mxGeometry x="60" y="1500" width="100" height="50" as="geometry" />
        </mxCell>
        <mxCell id="Sct_ijZb0S9W05oiDWKm-66" value="&lt;i&gt;&lt;b&gt;Merchant&lt;/b&gt;&lt;/i&gt;" style="rounded=0;whiteSpace=wrap;html=1;" vertex="1" parent="1">
          <mxGeometry x="230" y="1500" width="100" height="50" as="geometry" />
        </mxCell>
        <mxCell id="Sct_ijZb0S9W05oiDWKm-67" value="&lt;i&gt;&lt;b&gt;Payment System&lt;/b&gt;&lt;/i&gt;" style="rounded=0;whiteSpace=wrap;html=1;fillColor=#ffcd28;strokeColor=#d79b00;gradientColor=#ffa500;" vertex="1" parent="1">
          <mxGeometry x="398" y="1500" width="110" height="50" as="geometry" />
        </mxCell>
        <mxCell id="Sct_ijZb0S9W05oiDWKm-69" value="&lt;i&gt;&lt;b&gt;PSP&lt;/b&gt;&lt;/i&gt;" style="rounded=0;whiteSpace=wrap;html=1;" vertex="1" parent="1">
          <mxGeometry x="572" y="1500" width="100" height="50" as="geometry" />
        </mxCell>
        <mxCell id="Sct_ijZb0S9W05oiDWKm-71" value="" style="shape=cylinder3;whiteSpace=wrap;html=1;boundedLbl=1;backgroundOutline=1;size=15;" vertex="1" parent="1">
          <mxGeometry x="768" y="1488" width="50" height="70" as="geometry" />
        </mxCell>
        <mxCell id="Sct_ijZb0S9W05oiDWKm-72" value="" style="endArrow=none;html=1;rounded=0;" edge="1" parent="1">
          <mxGeometry width="50" height="50" relative="1" as="geometry">
            <mxPoint x="110" y="1760" as="sourcePoint" />
            <mxPoint x="110" y="1550" as="targetPoint" />
          </mxGeometry>
        </mxCell>
        <mxCell id="Sct_ijZb0S9W05oiDWKm-73" value="" style="endArrow=none;html=1;rounded=0;" edge="1" parent="1">
          <mxGeometry width="50" height="50" relative="1" as="geometry">
            <mxPoint x="280" y="1740" as="sourcePoint" />
            <mxPoint x="279.5" y="1550" as="targetPoint" />
          </mxGeometry>
        </mxCell>
        <mxCell id="Sct_ijZb0S9W05oiDWKm-74" value="" style="endArrow=none;html=1;rounded=0;" edge="1" parent="1" source="Sct_ijZb0S9W05oiDWKm-86">
          <mxGeometry width="50" height="50" relative="1" as="geometry">
            <mxPoint x="451" y="1790" as="sourcePoint" />
            <mxPoint x="451" y="1550" as="targetPoint" />
          </mxGeometry>
        </mxCell>
        <mxCell id="Sct_ijZb0S9W05oiDWKm-75" value="" style="endArrow=none;html=1;rounded=0;" edge="1" parent="1">
          <mxGeometry width="50" height="50" relative="1" as="geometry">
            <mxPoint x="620" y="1840" as="sourcePoint" />
            <mxPoint x="621.5" y="1550" as="targetPoint" />
          </mxGeometry>
        </mxCell>
        <mxCell id="Sct_ijZb0S9W05oiDWKm-76" value="" style="endArrow=none;html=1;rounded=0;" edge="1" parent="1">
          <mxGeometry width="50" height="50" relative="1" as="geometry">
            <mxPoint x="795" y="1840" as="sourcePoint" />
            <mxPoint x="795" y="1558" as="targetPoint" />
          </mxGeometry>
        </mxCell>
        <mxCell id="Sct_ijZb0S9W05oiDWKm-77" value="" style="endArrow=classic;html=1;rounded=0;" edge="1" parent="1">
          <mxGeometry width="50" height="50" relative="1" as="geometry">
            <mxPoint x="110" y="1600" as="sourcePoint" />
            <mxPoint x="280" y="1600" as="targetPoint" />
          </mxGeometry>
        </mxCell>
        <mxCell id="Sct_ijZb0S9W05oiDWKm-78" value="&lt;i&gt;payment request&lt;/i&gt;" style="text;html=1;align=center;verticalAlign=middle;whiteSpace=wrap;rounded=0;" vertex="1" parent="1">
          <mxGeometry x="145" y="1574" width="96" height="30" as="geometry" />
        </mxCell>
        <mxCell id="Sct_ijZb0S9W05oiDWKm-79" value="" style="endArrow=classic;html=1;rounded=0;" edge="1" parent="1">
          <mxGeometry width="50" height="50" relative="1" as="geometry">
            <mxPoint x="280" y="1601" as="sourcePoint" />
            <mxPoint x="450" y="1601" as="targetPoint" />
          </mxGeometry>
        </mxCell>
        <mxCell id="Sct_ijZb0S9W05oiDWKm-80" value="&lt;i&gt;payment request&lt;/i&gt;" style="text;html=1;align=center;verticalAlign=middle;whiteSpace=wrap;rounded=0;" vertex="1" parent="1">
          <mxGeometry x="318" y="1576" width="96" height="30" as="geometry" />
        </mxCell>
        <mxCell id="Sct_ijZb0S9W05oiDWKm-81" value="" style="endArrow=classic;html=1;rounded=0;" edge="1" parent="1">
          <mxGeometry width="50" height="50" relative="1" as="geometry">
            <mxPoint x="450" y="1601" as="sourcePoint" />
            <mxPoint x="620" y="1601" as="targetPoint" />
          </mxGeometry>
        </mxCell>
        <mxCell id="Sct_ijZb0S9W05oiDWKm-82" value="&lt;i&gt;payment request&lt;/i&gt;&lt;div&gt;&lt;i&gt;+&lt;/i&gt;&lt;/div&gt;&lt;div&gt;&lt;i&gt;idempotency key&lt;/i&gt;&lt;/div&gt;" style="text;html=1;align=center;verticalAlign=middle;whiteSpace=wrap;rounded=0;" vertex="1" parent="1">
          <mxGeometry x="490" y="1562" width="96" height="30" as="geometry" />
        </mxCell>
        <mxCell id="Sct_ijZb0S9W05oiDWKm-83" value="" style="endArrow=classic;html=1;rounded=0;" edge="1" parent="1">
          <mxGeometry width="50" height="50" relative="1" as="geometry">
            <mxPoint x="624" y="1601" as="sourcePoint" />
            <mxPoint x="794" y="1601" as="targetPoint" />
          </mxGeometry>
        </mxCell>
        <mxCell id="Sct_ijZb0S9W05oiDWKm-84" value="&lt;i&gt;register payment with&amp;nbsp;idempotency&amp;nbsp; key&lt;/i&gt;" style="text;html=1;align=center;verticalAlign=middle;whiteSpace=wrap;rounded=0;" vertex="1" parent="1">
          <mxGeometry x="670" y="1560" width="60" height="30" as="geometry" />
        </mxCell>
        <mxCell id="Sct_ijZb0S9W05oiDWKm-85" value="" style="endArrow=classic;html=1;rounded=0;" edge="1" parent="1">
          <mxGeometry width="50" height="50" relative="1" as="geometry">
            <mxPoint x="620" y="1640" as="sourcePoint" />
            <mxPoint x="460" y="1640" as="targetPoint" />
          </mxGeometry>
        </mxCell>
        <mxCell id="Sct_ijZb0S9W05oiDWKm-87" value="" style="endArrow=none;html=1;rounded=0;" edge="1" parent="1" target="Sct_ijZb0S9W05oiDWKm-86">
          <mxGeometry width="50" height="50" relative="1" as="geometry">
            <mxPoint x="451" y="1840" as="sourcePoint" />
            <mxPoint x="451" y="1550" as="targetPoint" />
          </mxGeometry>
        </mxCell>
        <mxCell id="Sct_ijZb0S9W05oiDWKm-86" value="&lt;b&gt;X&lt;/b&gt;" style="whiteSpace=wrap;html=1;aspect=fixed;fillColor=#e51400;fontColor=#ffffff;strokeColor=#B20000;" vertex="1" parent="1">
          <mxGeometry x="440" y="1630" width="20" height="20" as="geometry" />
        </mxCell>
        <mxCell id="Sct_ijZb0S9W05oiDWKm-92" value="&lt;i&gt;&lt;b&gt;payment processed&lt;/b&gt;&lt;/i&gt;" style="text;html=1;align=center;verticalAlign=middle;whiteSpace=wrap;rounded=0;fillColor=#60a917;fontColor=#ffffff;strokeColor=#2D7600;" vertex="1" parent="1">
          <mxGeometry x="623" y="1609" width="127" height="21" as="geometry" />
        </mxCell>
        <mxCell id="Sct_ijZb0S9W05oiDWKm-93" value="" style="endArrow=classic;html=1;rounded=0;" edge="1" parent="1">
          <mxGeometry width="50" height="50" relative="1" as="geometry">
            <mxPoint x="450" y="1662" as="sourcePoint" />
            <mxPoint x="280" y="1662" as="targetPoint" />
          </mxGeometry>
        </mxCell>
        <mxCell id="Sct_ijZb0S9W05oiDWKm-95" value="" style="endArrow=none;html=1;rounded=0;" edge="1" parent="1">
          <mxGeometry width="50" height="50" relative="1" as="geometry">
            <mxPoint x="280" y="1840" as="sourcePoint" />
            <mxPoint x="279.91666666666674" y="1740" as="targetPoint" />
          </mxGeometry>
        </mxCell>
        <mxCell id="Sct_ijZb0S9W05oiDWKm-96" value="" style="endArrow=classic;html=1;rounded=0;" edge="1" parent="1">
          <mxGeometry width="50" height="50" relative="1" as="geometry">
            <mxPoint x="280" y="1662" as="sourcePoint" />
            <mxPoint x="110" y="1662" as="targetPoint" />
          </mxGeometry>
        </mxCell>
        <mxCell id="Sct_ijZb0S9W05oiDWKm-98" value="" style="endArrow=none;html=1;rounded=0;" edge="1" parent="1">
          <mxGeometry width="50" height="50" relative="1" as="geometry">
            <mxPoint x="110" y="1840" as="sourcePoint" />
            <mxPoint x="110" y="1760" as="targetPoint" />
          </mxGeometry>
        </mxCell>
        <mxCell id="Sct_ijZb0S9W05oiDWKm-100" value="&lt;i&gt;payment failed&lt;/i&gt;" style="text;html=1;align=center;verticalAlign=middle;whiteSpace=wrap;rounded=0;" vertex="1" parent="1">
          <mxGeometry x="318" y="1657" width="96" height="30" as="geometry" />
        </mxCell>
        <mxCell id="Sct_ijZb0S9W05oiDWKm-102" value="&lt;i&gt;response failed&lt;/i&gt;" style="text;html=1;align=center;verticalAlign=middle;whiteSpace=wrap;rounded=0;fillColor=#fad9d5;strokeColor=#ae4132;" vertex="1" parent="1">
          <mxGeometry x="494" y="1642" width="96" height="18" as="geometry" />
        </mxCell>
        <mxCell id="Sct_ijZb0S9W05oiDWKm-103" value="&lt;i&gt;payment failed&lt;/i&gt;" style="text;html=1;align=center;verticalAlign=middle;whiteSpace=wrap;rounded=0;" vertex="1" parent="1">
          <mxGeometry x="144" y="1656" width="96" height="30" as="geometry" />
        </mxCell>
        <mxCell id="Sct_ijZb0S9W05oiDWKm-104" value="" style="endArrow=classic;html=1;rounded=0;" edge="1" parent="1">
          <mxGeometry width="50" height="50" relative="1" as="geometry">
            <mxPoint x="110" y="1740" as="sourcePoint" />
            <mxPoint x="280" y="1740" as="targetPoint" />
          </mxGeometry>
        </mxCell>
        <mxCell id="Sct_ijZb0S9W05oiDWKm-105" value="&lt;i&gt;payment retried&lt;/i&gt;" style="text;html=1;align=center;verticalAlign=middle;whiteSpace=wrap;rounded=0;" vertex="1" parent="1">
          <mxGeometry x="144" y="1715" width="96" height="30" as="geometry" />
        </mxCell>
        <mxCell id="Sct_ijZb0S9W05oiDWKm-106" value="" style="endArrow=classic;html=1;rounded=0;" edge="1" parent="1">
          <mxGeometry width="50" height="50" relative="1" as="geometry">
            <mxPoint x="280" y="1740" as="sourcePoint" />
            <mxPoint x="450" y="1740" as="targetPoint" />
          </mxGeometry>
        </mxCell>
        <mxCell id="Sct_ijZb0S9W05oiDWKm-107" value="&lt;i&gt;payment retried&lt;/i&gt;" style="text;html=1;align=center;verticalAlign=middle;whiteSpace=wrap;rounded=0;" vertex="1" parent="1">
          <mxGeometry x="324" y="1716" width="96" height="30" as="geometry" />
        </mxCell>
        <mxCell id="Sct_ijZb0S9W05oiDWKm-108" value="" style="endArrow=classic;html=1;rounded=0;" edge="1" parent="1">
          <mxGeometry width="50" height="50" relative="1" as="geometry">
            <mxPoint x="452" y="1740" as="sourcePoint" />
            <mxPoint x="622" y="1740" as="targetPoint" />
          </mxGeometry>
        </mxCell>
        <mxCell id="Sct_ijZb0S9W05oiDWKm-109" value="&lt;div&gt;&lt;i&gt;&lt;br&gt;&lt;/i&gt;&lt;/div&gt;&lt;i&gt;&lt;div&gt;&lt;i&gt;(same as above)&lt;/i&gt;&lt;/div&gt;payment request&lt;/i&gt;&lt;div&gt;&lt;i&gt;+&lt;/i&gt;&lt;/div&gt;&lt;div&gt;&lt;i&gt;idempotency key&lt;/i&gt;&lt;/div&gt;" style="text;html=1;align=center;verticalAlign=middle;whiteSpace=wrap;rounded=0;" vertex="1" parent="1">
          <mxGeometry x="490" y="1690" width="96" height="30" as="geometry" />
        </mxCell>
        <mxCell id="Sct_ijZb0S9W05oiDWKm-110" value="" style="endArrow=classic;html=1;rounded=0;" edge="1" parent="1">
          <mxGeometry width="50" height="50" relative="1" as="geometry">
            <mxPoint x="623" y="1740" as="sourcePoint" />
            <mxPoint x="780" y="1740" as="targetPoint" />
          </mxGeometry>
        </mxCell>
        <mxCell id="Sct_ijZb0S9W05oiDWKm-111" value="&lt;b&gt;X&lt;/b&gt;" style="whiteSpace=wrap;html=1;aspect=fixed;fillColor=#e51400;fontColor=#ffffff;strokeColor=#B20000;" vertex="1" parent="1">
          <mxGeometry x="780" y="1729" width="20" height="20" as="geometry" />
        </mxCell>
        <mxCell id="Sct_ijZb0S9W05oiDWKm-113" value="&lt;i&gt;unique constraint violated&lt;/i&gt;" style="text;html=1;align=center;verticalAlign=middle;whiteSpace=wrap;rounded=0;fillColor=#fad9d5;strokeColor=#ae4132;" vertex="1" parent="1">
          <mxGeometry x="654" y="1710" width="96" height="28" as="geometry" />
        </mxCell>
        <mxCell id="Sct_ijZb0S9W05oiDWKm-115" value="" style="endArrow=classic;html=1;rounded=0;" edge="1" parent="1">
          <mxGeometry width="50" height="50" relative="1" as="geometry">
            <mxPoint x="623" y="1790" as="sourcePoint" />
            <mxPoint x="793" y="1790" as="targetPoint" />
          </mxGeometry>
        </mxCell>
        <mxCell id="Sct_ijZb0S9W05oiDWKm-116" value="&lt;i&gt;fetch status for&amp;nbsp;&lt;/i&gt;&lt;div&gt;&lt;i&gt;previous request&lt;/i&gt;&lt;/div&gt;" style="text;html=1;align=center;verticalAlign=middle;resizable=0;points=[];autosize=1;strokeColor=none;fillColor=none;" vertex="1" parent="1">
          <mxGeometry x="647" y="1753" width="110" height="40" as="geometry" />
        </mxCell>
        <mxCell id="Sct_ijZb0S9W05oiDWKm-117" value="" style="endArrow=classic;html=1;rounded=0;" edge="1" parent="1">
          <mxGeometry width="50" height="50" relative="1" as="geometry">
            <mxPoint x="620" y="1810" as="sourcePoint" />
            <mxPoint x="450" y="1810" as="targetPoint" />
          </mxGeometry>
        </mxCell>
        <mxCell id="Sct_ijZb0S9W05oiDWKm-118" value="&lt;i&gt;payment success&lt;/i&gt;" style="text;html=1;align=center;verticalAlign=middle;whiteSpace=wrap;rounded=0;" vertex="1" parent="1">
          <mxGeometry x="496" y="1787" width="96" height="30" as="geometry" />
        </mxCell>
        <mxCell id="Sct_ijZb0S9W05oiDWKm-119" value="" style="endArrow=classic;html=1;rounded=0;" edge="1" parent="1">
          <mxGeometry width="50" height="50" relative="1" as="geometry">
            <mxPoint x="451" y="1810" as="sourcePoint" />
            <mxPoint x="281" y="1810" as="targetPoint" />
          </mxGeometry>
        </mxCell>
        <mxCell id="Sct_ijZb0S9W05oiDWKm-120" value="&lt;i&gt;payment success&lt;/i&gt;" style="text;html=1;align=center;verticalAlign=middle;whiteSpace=wrap;rounded=0;" vertex="1" parent="1">
          <mxGeometry x="318" y="1787" width="96" height="30" as="geometry" />
        </mxCell>
        <mxCell id="Sct_ijZb0S9W05oiDWKm-121" value="&lt;i&gt;payment success&lt;/i&gt;" style="text;html=1;align=center;verticalAlign=middle;whiteSpace=wrap;rounded=0;" vertex="1" parent="1">
          <mxGeometry x="150" y="1787" width="96" height="30" as="geometry" />
        </mxCell>
        <mxCell id="Sct_ijZb0S9W05oiDWKm-122" value="" style="endArrow=classic;html=1;rounded=0;" edge="1" parent="1">
          <mxGeometry width="50" height="50" relative="1" as="geometry">
            <mxPoint x="283" y="1810" as="sourcePoint" />
            <mxPoint x="113" y="1810" as="targetPoint" />
          </mxGeometry>
        </mxCell>
        <mxCell id="Sct_ijZb0S9W05oiDWKm-137" style="edgeStyle=orthogonalEdgeStyle;rounded=0;orthogonalLoop=1;jettySize=auto;html=1;exitX=1;exitY=0.5;exitDx=0;exitDy=0;entryX=0;entryY=0.5;entryDx=0;entryDy=0;" edge="1" parent="1" source="Sct_ijZb0S9W05oiDWKm-126" target="Sct_ijZb0S9W05oiDWKm-127">
          <mxGeometry relative="1" as="geometry" />
        </mxCell>
        <mxCell id="Sct_ijZb0S9W05oiDWKm-126" value="&lt;b&gt;&lt;i&gt;Customer&lt;/i&gt;&lt;/b&gt;" style="whiteSpace=wrap;html=1;aspect=fixed;" vertex="1" parent="1">
          <mxGeometry x="40" y="2020" width="80" height="80" as="geometry" />
        </mxCell>
        <mxCell id="Sct_ijZb0S9W05oiDWKm-138" style="edgeStyle=orthogonalEdgeStyle;rounded=0;orthogonalLoop=1;jettySize=auto;html=1;exitX=1;exitY=0.5;exitDx=0;exitDy=0;entryX=-0.012;entryY=0.466;entryDx=0;entryDy=0;entryPerimeter=0;" edge="1" parent="1" source="Sct_ijZb0S9W05oiDWKm-127" target="Sct_ijZb0S9W05oiDWKm-128">
          <mxGeometry relative="1" as="geometry" />
        </mxCell>
        <mxCell id="Sct_ijZb0S9W05oiDWKm-127" value="&lt;b&gt;&lt;i&gt;Merchant&lt;/i&gt;&lt;/b&gt;" style="whiteSpace=wrap;html=1;aspect=fixed;" vertex="1" parent="1">
          <mxGeometry x="185" y="2020" width="80" height="80" as="geometry" />
        </mxCell>
        <mxCell id="Sct_ijZb0S9W05oiDWKm-128" value="" style="whiteSpace=wrap;html=1;aspect=fixed;dashed=1;fillColor=#ffff88;strokeColor=#36393d;" vertex="1" parent="1">
          <mxGeometry x="339" y="1910" width="320" height="320" as="geometry" />
        </mxCell>
        <mxCell id="Sct_ijZb0S9W05oiDWKm-242" style="edgeStyle=orthogonalEdgeStyle;rounded=0;orthogonalLoop=1;jettySize=auto;html=1;exitX=0.5;exitY=1;exitDx=0;exitDy=0;entryX=0.5;entryY=0;entryDx=0;entryDy=0;" edge="1" parent="1" source="Sct_ijZb0S9W05oiDWKm-129" target="Sct_ijZb0S9W05oiDWKm-133">
          <mxGeometry relative="1" as="geometry" />
        </mxCell>
        <mxCell id="Sct_ijZb0S9W05oiDWKm-243" style="edgeStyle=orthogonalEdgeStyle;rounded=0;orthogonalLoop=1;jettySize=auto;html=1;exitX=0.75;exitY=1;exitDx=0;exitDy=0;entryX=0.5;entryY=0;entryDx=0;entryDy=0;" edge="1" parent="1" source="Sct_ijZb0S9W05oiDWKm-129" target="Sct_ijZb0S9W05oiDWKm-134">
          <mxGeometry relative="1" as="geometry" />
        </mxCell>
        <mxCell id="Sct_ijZb0S9W05oiDWKm-129" value="&lt;b&gt;&lt;i&gt;Payment Ingestion&lt;/i&gt;&lt;/b&gt;" style="whiteSpace=wrap;html=1;aspect=fixed;" vertex="1" parent="1">
          <mxGeometry x="345" y="2020" width="80" height="80" as="geometry" />
        </mxCell>
        <mxCell id="Sct_ijZb0S9W05oiDWKm-130" value="&lt;b&gt;&lt;i&gt;Payment Executor&lt;/i&gt;&lt;/b&gt;" style="whiteSpace=wrap;html=1;aspect=fixed;" vertex="1" parent="1">
          <mxGeometry x="574" y="2020" width="80" height="80" as="geometry" />
        </mxCell>
        <mxCell id="Sct_ijZb0S9W05oiDWKm-131" value="" style="shape=cylinder3;whiteSpace=wrap;html=1;boundedLbl=1;backgroundOutline=1;size=15;" vertex="1" parent="1">
          <mxGeometry x="470" y="1920" width="50" height="60" as="geometry" />
        </mxCell>
        <mxCell id="Sct_ijZb0S9W05oiDWKm-132" value="" style="shape=cylinder3;whiteSpace=wrap;html=1;boundedLbl=1;backgroundOutline=1;size=15;rotation=90;" vertex="1" parent="1">
          <mxGeometry x="471" y="2020" width="60" height="80" as="geometry" />
        </mxCell>
        <mxCell id="Sct_ijZb0S9W05oiDWKm-133" value="&lt;b&gt;&lt;i&gt;Wallet&lt;/i&gt;&lt;/b&gt;" style="whiteSpace=wrap;html=1;aspect=fixed;" vertex="1" parent="1">
          <mxGeometry x="345" y="2130" width="80" height="80" as="geometry" />
        </mxCell>
        <mxCell id="Sct_ijZb0S9W05oiDWKm-134" value="&lt;b&gt;&lt;i&gt;Ledger&lt;/i&gt;&lt;/b&gt;" style="whiteSpace=wrap;html=1;aspect=fixed;" vertex="1" parent="1">
          <mxGeometry x="574" y="2130" width="80" height="80" as="geometry" />
        </mxCell>
        <mxCell id="Sct_ijZb0S9W05oiDWKm-135" value="" style="shape=cylinder3;whiteSpace=wrap;html=1;boundedLbl=1;backgroundOutline=1;size=15;" vertex="1" parent="1">
          <mxGeometry x="446" y="2140" width="50" height="60" as="geometry" />
        </mxCell>
        <mxCell id="Sct_ijZb0S9W05oiDWKm-136" value="" style="shape=cylinder3;whiteSpace=wrap;html=1;boundedLbl=1;backgroundOutline=1;size=15;" vertex="1" parent="1">
          <mxGeometry x="500" y="2140" width="50" height="60" as="geometry" />
        </mxCell>
        <mxCell id="Sct_ijZb0S9W05oiDWKm-139" style="edgeStyle=orthogonalEdgeStyle;rounded=0;orthogonalLoop=1;jettySize=auto;html=1;exitX=1;exitY=0.5;exitDx=0;exitDy=0;entryX=0.5;entryY=1;entryDx=0;entryDy=0;entryPerimeter=0;" edge="1" parent="1" source="Sct_ijZb0S9W05oiDWKm-129" target="Sct_ijZb0S9W05oiDWKm-132">
          <mxGeometry relative="1" as="geometry" />
        </mxCell>
        <mxCell id="Sct_ijZb0S9W05oiDWKm-140" style="edgeStyle=orthogonalEdgeStyle;rounded=0;orthogonalLoop=1;jettySize=auto;html=1;exitX=0;exitY=0.5;exitDx=0;exitDy=0;entryX=0.5;entryY=0;entryDx=0;entryDy=0;entryPerimeter=0;" edge="1" parent="1" source="Sct_ijZb0S9W05oiDWKm-130" target="Sct_ijZb0S9W05oiDWKm-132">
          <mxGeometry relative="1" as="geometry" />
        </mxCell>
        <mxCell id="Sct_ijZb0S9W05oiDWKm-141" style="edgeStyle=orthogonalEdgeStyle;rounded=0;orthogonalLoop=1;jettySize=auto;html=1;exitX=0.5;exitY=0;exitDx=0;exitDy=0;entryX=0;entryY=0.5;entryDx=0;entryDy=0;entryPerimeter=0;" edge="1" parent="1" source="Sct_ijZb0S9W05oiDWKm-129" target="Sct_ijZb0S9W05oiDWKm-131">
          <mxGeometry relative="1" as="geometry" />
        </mxCell>
        <mxCell id="Sct_ijZb0S9W05oiDWKm-142" style="edgeStyle=orthogonalEdgeStyle;rounded=0;orthogonalLoop=1;jettySize=auto;html=1;exitX=0.5;exitY=0;exitDx=0;exitDy=0;entryX=1;entryY=0.5;entryDx=0;entryDy=0;entryPerimeter=0;" edge="1" parent="1" source="Sct_ijZb0S9W05oiDWKm-130" target="Sct_ijZb0S9W05oiDWKm-131">
          <mxGeometry relative="1" as="geometry" />
        </mxCell>
        <mxCell id="Sct_ijZb0S9W05oiDWKm-143" value="&lt;b&gt;&lt;i&gt;kafka&lt;/i&gt;&lt;/b&gt;" style="text;html=1;align=center;verticalAlign=middle;whiteSpace=wrap;rounded=0;" vertex="1" parent="1">
          <mxGeometry x="471" y="2010" width="60" height="30" as="geometry" />
        </mxCell>
        <mxCell id="Sct_ijZb0S9W05oiDWKm-144" value="" style="whiteSpace=wrap;html=1;aspect=fixed;dashed=1;fillColor=none;strokeColor=#36393d;" vertex="1" parent="1">
          <mxGeometry x="720" y="1910" width="320" height="320" as="geometry" />
        </mxCell>
        <mxCell id="Sct_ijZb0S9W05oiDWKm-148" style="edgeStyle=orthogonalEdgeStyle;rounded=0;orthogonalLoop=1;jettySize=auto;html=1;exitX=0.5;exitY=0;exitDx=0;exitDy=0;entryX=0;entryY=0.5;entryDx=0;entryDy=0;" edge="1" parent="1" source="Sct_ijZb0S9W05oiDWKm-145" target="Sct_ijZb0S9W05oiDWKm-147">
          <mxGeometry relative="1" as="geometry" />
        </mxCell>
        <mxCell id="Sct_ijZb0S9W05oiDWKm-149" style="edgeStyle=orthogonalEdgeStyle;rounded=0;orthogonalLoop=1;jettySize=auto;html=1;exitX=0.5;exitY=1;exitDx=0;exitDy=0;entryX=0;entryY=0.5;entryDx=0;entryDy=0;" edge="1" parent="1" source="Sct_ijZb0S9W05oiDWKm-145" target="Sct_ijZb0S9W05oiDWKm-146">
          <mxGeometry relative="1" as="geometry" />
        </mxCell>
        <mxCell id="Sct_ijZb0S9W05oiDWKm-145" value="&lt;b&gt;&lt;i&gt;Payment Gateway&lt;/i&gt;&lt;/b&gt;" style="whiteSpace=wrap;html=1;aspect=fixed;" vertex="1" parent="1">
          <mxGeometry x="738" y="2031" width="80" height="80" as="geometry" />
        </mxCell>
        <mxCell id="Sct_ijZb0S9W05oiDWKm-146" value="&lt;b&gt;&lt;i&gt;Acquiring Bank&lt;/i&gt;&lt;/b&gt;" style="whiteSpace=wrap;html=1;aspect=fixed;" vertex="1" parent="1">
          <mxGeometry x="920" y="2120" width="80" height="80" as="geometry" />
        </mxCell>
        <mxCell id="Sct_ijZb0S9W05oiDWKm-147" value="&lt;b&gt;&lt;i&gt;Risk Check&lt;/i&gt;&lt;/b&gt;" style="whiteSpace=wrap;html=1;aspect=fixed;" vertex="1" parent="1">
          <mxGeometry x="920" y="1940" width="80" height="80" as="geometry" />
        </mxCell>
        <mxCell id="Sct_ijZb0S9W05oiDWKm-157" style="edgeStyle=orthogonalEdgeStyle;rounded=0;orthogonalLoop=1;jettySize=auto;html=1;exitX=0.25;exitY=1;exitDx=0;exitDy=0;entryX=0.25;entryY=0;entryDx=0;entryDy=0;" edge="1" parent="1">
          <mxGeometry relative="1" as="geometry">
            <mxPoint x="1210" y="2140" as="sourcePoint" />
            <mxPoint x="1265" y="2140" as="targetPoint" />
          </mxGeometry>
        </mxCell>
        <mxCell id="Sct_ijZb0S9W05oiDWKm-150" value="" style="rounded=0;whiteSpace=wrap;html=1;rotation=-90;fillColor=none;dashed=1;" vertex="1" parent="1">
          <mxGeometry x="995" y="2015" width="320" height="110" as="geometry" />
        </mxCell>
        <mxCell id="Sct_ijZb0S9W05oiDWKm-151" value="&lt;b&gt;&lt;i&gt;Card Schemes&amp;nbsp;&lt;/i&gt;&lt;/b&gt;" style="whiteSpace=wrap;html=1;aspect=fixed;" vertex="1" parent="1">
          <mxGeometry x="1115" y="1930" width="80" height="80" as="geometry" />
        </mxCell>
        <mxCell id="Sct_ijZb0S9W05oiDWKm-152" value="" style="shape=image;verticalLabelPosition=bottom;labelBackgroundColor=default;verticalAlign=top;aspect=fixed;imageAspect=0;image=data:image/png,iVBORw0KGgoAAAANSUhEUgAAAWwAAADhCAYAAADsxo8LAAAgAElEQVR4Ae1dB5cU1dZ1vfXW+wPvGQCJEiSDBEFFDCgGfAjokBQVRUV9BnIeMkiQDEOGIUmGIUtWspIlSEZgAAcYhjADDHC+74xW2zQz3RXOqa6a2XetXlXdXXXr3H127bp1w7kPEBIQAAJAAAj4AoEH2Mq7d4keydeaHszTEh9gAA6AA+CAhzjA2mykgGA/nLcV/TtXC3yAATgADoADHuIAa7ORINgecgwemKgwgAPgQCgHINgQadSgwAFwwCccgGD7xFGhT1p8R+0LHMh5HIBgQ7BRuwIHwAGfcACC7RNHoTaV82pT8Dl8HsoBCDYEG7UrcAAc8AkHINg+cVTokxbfUfsCB3IeByDYEGzUrsABcMAnHIBg+8RRqE3lvNoUfA6fh3IAgg3BRu0KHAAHfMIBCLZPHBX6pMV31L7AgZzHAQg2BBu1K3AAHPAJByDYPnEUalM5rzYFn8PnoRyAYEOwUbsCB8ABn3AAgu0TR4U+afEdtS9wIOdxAIINwUbtChwAB3zCAQi2TxyF2lTOq03B5/B5KAcg2BBs1K7AAXDAJxyAYPvEUaFPWnxH7QscyHkcgGBDsFG7AgfAAZ9wAILtE0ehNpXzalPwOXweygEINgQbtStwABzwCQcg2D5xVOiTFt9R+wIHch4HINgQbNSuwAFwwCccgGD7xFGoTeW82hR8Dp+HcgCCDcFG7QocAAd8wgEItk8cFfqkxXfUvsCBnMcBCDYEG7UrcAAc8AkHINg+cRRqUzmvNgWfw+ehHIBgQ7BRuwIHwAGfcOA+wSYimr9wJ81bgA8wAAfAAXDASxxgbTbSA8YOtkAACAABIOBtBCDY3vYPrAMCQAAIBBCAYAegwA4QAAJAwNsIQLC97R9YBwSAABAIIADBDkCBHSAABICAtxGAYHvbP7AOCAABIBBAAIIdgAI7QAAIAAFvIwDB9rZ/YB0QAAJAIIAABDsABXaAABAAAt5GAILtbf/AOiAABIBAAAEIdgAK7AABIAAEvI0ABNvb/oF1QAAIAIEAAhDsABTYAQJAAAh4GwEItrf9A+uAABAAAgEEINgBKLADBIAAEPA2AhBsb/sH1gEBIAAEAghAsANQYAcIAAEg4G0EINje9g+sAwJAAAgEEIBgB6DADhAAAkDA2whAsL3tH1gHBIAAEAggAMEOQIEdIAAEgIC3EYBge9s/sA4IAAEgEEAAgh2AAjtAAAgAAW8jAMH2tn9gHRAAAkAggAAEOwAFdoAAEAAC3kYAgu1t/8A6IAAEgEAAAQh2AArsAAEgAAS8jQAE29v+gXVAAAgAgQACEOwAFNgBAkAACHgbAQi2t/0D64AAEAACAQQg2AEosAMEgAAQ8DYCEGxv+wfWAQEgAAQCCECwA1BgBwgAASDgbQQg2N72D6zzKQLJyddp1+7faemyPTRuwk/Ut/8yatdxLn35zff0cfMp9H6zSfTehxPp/Y8m0kefxlPzL6bRN61nUWz3BBo8dCVNm7GF1q0/SIcOn6PU1Js+RQFmSyPgWcG+e/cunT13mc4kJnvyk3j2Ml24cJXS0m5J+0QlP00sExMv0927kc1mn2r5k8sXjXTnzl26nJJKJ05coEVLdlOL1jPpiSo96N+5Woh9Hs7bimq8+h3Fdl9Ia9cepFOnLlFKSioxnn5IfI/wvcL3jKT/+aGY05JnBfvqtRtUomwsFS7RyZOfIiU7UekK3ajaC/2pQ6d5dP58ime5c+r0JSpWqrMajrXrDTclHkeP/aFmQ70GI13FP/32HZq/cAc1eGcMVazai/I+1k5MoMOJ/X9yt6ACRdtTxad6U0yj0TRl2ia6ePGaq2U3e7HTZ5KpY5f5GfdImQrdiO8Zyfu5WfN4s6Zkm+M8K9ir1uxz5QYId3NY+Y9rQd17LaI/kq54ihxcC2v+xVRVLMeM/9FUmeOnblKzo2+/paZscHIQN02sWXeAWrWdTQWLtlcrixXe8bGPFmqb8eCYMHkD7T+QSFzrj2b6448r1KvvEsqn/BCr/HTvaBYzKtf2rGCvXrOfqj3/LXGNwiqBo3l8+co96OIl79R4+DW0QBE9cXkwT0s6djzJFHk//GSSmi9/2X7ClA12D0pYvDOjZhtNbpm59n9yt6TTpy/ZLabj827eTKdnnvtWzc/BGLA2XL9+w7HNfsrAs4JtgMjixzfjlGlb6POvp1OZit1dIUMwMazuV6nWl06cvGAUIarbBQk7iUXVahnMHv/+RxNMNYek3bhFz9UYoGLHY493zGgflQaaxWfc+B8zXulZCM1iEs3jSpbvSleupElDYSo/bp9+qnpfV3FauGinKduyy0GeF+xQoPkVn3vfY7stoOdfHkhFS3YmL95MPAIg2n1CjFXd+qPUbqDcBdrQuXPm2u6506nUE91UbKn8dB9RkUpPv5NRSXjuJZ0HjKag13h1EPGDxu10+84d+uyraSr+DYdX8y+muF3UqF7Pd4IdjNaNG+kZNauly/dSTKM418kSjkgPPdqKVqz+Ndhc1/f37D2lWruu87b5jr7jx5PokXytVXz0eu1hYu223P77TauZlKdgWxVbw3FG4r8PmkWnorBk6W5VrmWFDQ9MuJV+2/V7K1oX9LVgh4LGbXfc8fLuBxMof2F3eu2zIhL/XumpXnT9enTG0HLt+utWM1VFZ/KUTaEuyPL7zDk/q9nSo8+iLK9r5Q9+c3uh5kA1O8NxReq/uLHrrBRZ5Nj09NtUu96IqOCWv0h74tEoOSVlK8EOdlpq2k3qN3AZFXq8A3FtV+qGsJIPNxns2nMq2CzX9q9dv5HxwLBir5Vj8xVuZ2lCBw/BspK/lWPX//SbY1xXrt5HPNLHynW9eCw/dNxO586nuDasMRTzXPlbZzRfuV3maF0v2wq2AWjKlTRauWo/NXx3bFRe2abN2GqY4up2zbqDquUdOmK16fLcvn2HChXroCKGfMM6eYvhfgaeiag5kiZUZLS+FyzagW7dcr95oGUb3Te5cHjxSJE587ab5qLfD8z2gm04iJsINm89QvUbjyau+YYjgeR/X7f63jDBtS13mr1YU6/DrNDjHen4CfOjYHh6tSSmwXm9/NogR7hyE1pwfn7e534ctxM3Q0a7079dp7luFztq18sxgm0gzGL2674zVFppxELoDV/9xf7GpV3bbt9xQlWEXq89lLjWbDYtSNihZk/7TvPMmnHfcbPm/KzWERrKAze+Dxyy8r4yav8weux6Nd+axez5lwdoF9Mz+ec4wTaQT7pwlZr/T3cGIBOO20WvXnV3XGzPPkvUbiKuTW3afMSA0dRW054ZM7eZsiH0IH6oaTXTmBUayeN4rP2q1ftDi6n+vWatwWpcM4sP32OXL6eql9ULF8ixgs3gc1CaF1/RHxVgVeCcEINrvk8+00ftJnql1mDL5r3bdIKKPfzw2LrtmGV7Ll26RqWf6Kpik1mRkT7u0YJt6cDBs5axcHICYy9dDrv5cciAnJBytGCzgznSWqnyujfviLg1rnFp8dJdqtP5J0zaYLksVarpPEB49M/Zs9aj9H3x9QzPCI1dgQo9j/sVki+7F72OKwbcNBZqR7S+93Ehloxl4iuckOMFmzFt3W6OKvE43rEbsx55hhuH4dS6aR7J25pOnbpoiYYpKWlqw+VKlo21PGFm566TlKege53OWr4IzffFmgNd4Zjh/MNHzlOBojojf0LLZuZ7/cZjLHPBKIufthBsItqy7aiayDHZXnljiCvDrQ4dPk88kcAMwe0c07LNLMvc5lgPdq5l5hxeEMBKSku7SRx3xEzefjvmu8ErrEDh+Nghw1d5CsdnX+zvm9j0TsCHYBMRz9QqW0EnzgXf+BWq9KRr1/Sjig1VvIk4BvNZk3FDggn5yed6E2Y2b7HW+blwkW5zUTiRz1OgTQYPeBgizwp8q0EcvfnWCHqt9lCq9nw/Kl6mi6PhcQcOJgbDrrrPwaWKle7sKcEuWrJTxqIOqgX3QOYQ7L+c0LnrAjUCcnB77SDz3IHKcRXCiYaT/+rVj7M0lI9h5Saax8t0UbEpb6G2dOeO+aGF3CRVJ2akii2huHJnaPEysfTfusNp1Ji1tO/AGeLhpJESx8bZtz+RZs7eRq3bzSYO5MThejnedeg1gr8XKdEpUtai/0+K3xjWnmDb3Nw/cMDdTldRUE1mBsH+C6iNm46ozgzUHikyZ/4vqjcRj1m2mn4/dZHyF9ZpouFXYCtp157f6aFH9UOk5n2sLfHYZH4bMSPS4crA51+6dJ14pZ4p0zZTzdczH0JX681h4bIR/Y8noEUrbkgk8R8y3P1x6KLgmsgMgv0XSCwuvHxRJFLY/b/3t0tMuMPeIXwTNXpvnJrt5Z/sQRzP2mra9vNxtYkpTZpOMG0O1645Ap9d35k9j5cLO3bsD9N22TmQxXtk3FqqGzOKcuf/M/rhN62s9y3YuTafw8vNRarxm8VL+rhXazmb9WoXEzfPg2D/hTYv/8RxlaVJZORX45WBan7lpgfNzrSx43+yZfuMWdvU8OQlqMwmjjXytPIqKLyajtsp8WwyvffheLIz1NKOrfzg++AjnTH1xn3idOtGX5Ed7KTOgWAHIfm/r6erCczDj7YiXlhYI3035Ac1u3noFtfq7CSOo+L0Bszq/GUr9pg2iZdJ03ygla3YPapreboV8Il5oLl6UVa+tvL7zihEKzRNRIEDIdhBIK5eu19NYJh0+/afCbqazC5P/NEcV8yjGewu6qo1YeY/uVpQYqL5GMiawzZZwBYv3S3jTI/nEueBuCGRxNtOX4vHYb/HPAh2EBw8vE9zHPPiJbuCriazu/yHX1UfMjxBwk46fz7F0TC1cDdmxaq9LE0SGTpCb8wwL1HH8aBzQqr2Qj9VroXzudn/uvdanK1dAcEOcW9Mo9FqpBw8bFXI1Zx/bf4/vXX0eJyw3bRoyS41HFu1m23JrI+bT1azhZtDODZJdk8rhCsGD+dtTe9+IN9RznHvs3OCYId4d8B3eu3Bn381PeRqzr4mJ19Xje09cbL1uCFGiTp0nqcmkgmLrb2pcIev2Rqa1eMyatg2JhQZOPlhy2+eHPTLKjbhji9eugutWr1PNE++Hj9As3OCYId4l1enCUc0J/85DbYfYir17LNIzVZeMJdXOreTODDQm2/pTFKxE5WubEW9Waw8SWbu/Oy94smJkxfE44aMm/RjRthh6bHx7A8eephdEwQ7xLNnEpPVRJCnd1sJ/B9i2j1fr1xNo8pP91az1cqwuXsM+/9gWjyMTivEa4lyXen8H1dCLxn2e5ESuvFDeIZpdhYJnkPgpKISei7PzOShqJw0gpVNmb45LB/8/CcEOxPvVa2mJ4R7953O5IrWf9qz97RaFDwO7G9VFINLwE01+R7TWbW+SrW+lgNpuRH34u2G7i/PFYy51j6PQnpEeHHi4ElPnbvJh4TgsenZNUGwM/HsyNFrRWsUwTWMuLHrMrmi9Z+aKXak1YsZlREQy7pVf56x7sff1PDjsfJWk1ujG7gZKLvVtMeMk18CbOr0LQEXJizeLR6//YnKPbNt5D4IdoA6f++cO39ZrfbauInzXuyTv19UE0Qe47x0uflJKX+j9vde2w568cUXJOz8+0Im9z78eKIaXsEPY94vW6kbbdh42PbYdZNFcu2wN+oMF8WO5wwEB0Lbs/eU+DyCIiU70+kz5sfpuwamwIUg2JmAyO1rlZ7qJUpU48Z+4knnT/+Bg/VGsjz7Qj9Kt7DAbibwUclyOlED/5O7BXFzi9UUN2adii8Nn4ZuuWOUX/uDhcmqzV44nsfg83qJoeVz8r1lm5n3FO3suctUuLhsDJ/c+dvQ7j2n7rlOdvkCwc7EkzyzL6axznjsYqW62FrWKthMrYVPWRDH21gCLNg2zU7bqs/2Db6U6f29v54RFx4zolWuUg8aM+5HWw8Z04VTOpBD1/IsVzPlNHtMrvxtaFfI1HGeVl+hinzlaPbcX5SQiW62EOws8O8/cLkoWQ1Sc6Sz/QfsB5s/djxJxS62L3eBNnT8eFIWiJj7ed36g2r2ffL5FHNGhBzFNd0yFbqr2WX4NqstxzFZ/sNex+FWQ4ql+vXQoXOU669ogFmVy+rvPEM1JeX+1c2/+kY+hs83rb5XxSdamUOws0D+l+3HVW5wHie6cvX+LK4a/mcOo1qvwSgVu/jma9psouO2V814E8NG2lvMmIdScuhTqwIjeTyPtKhZawjxqjfsR6+nEaPWiHcGtm4/O9OQAhyLRRJrzqtClR5eh9iWfRDsLGDjdlyt+NjfDliexVXD/8y1a26fkyY358e1a4kRDl+10IvQ98PKfeEBCvPvuvUHPBNprs7bI2jLtmN08+btMBZH7y/uw6ks3IfDbeGHDp/LtFBXrqSqNFlx+3h2SxDsMB797MupKuL4VoNRYa6a9V+86oiGWHOe9RrIjCOu8Yrequ1Hj9oL88qIcq22bn29txOrfuEHJA8DTEqyNgkoa3bI/cPtv1bLE+l4XqUmXNKI7Oh0tFM4e6P1HwQ7DPI85Zg74iKR0er/POOR4zNYSSw4L72qJ4b8MHCabty4pbYaSYEi7S1PmAktz5q1B9QiCFrlgHE8L87LcVd4qKYX0s1b6VSrzjBxzo+bEH4RjPc/kh962aN39ovcB8EOc5dw/Gqt5ZC4U8dK2rTliPhNZIhG/iLt6Np154srrP9Jb8LMR586X9GFH3r1lUb/GFja3fLs0kWLd9lais0KjyIdy81i+QvLz1I9+Fv4BXJ7f7tUnN+N3x+faZt5JAy8/D8EO4x3ki9fp2KldVb9nrfAfMAgHmaoUQMxxGW4zc68UOg6d50vftMZNi5I2BF6OVvfeQkp7eXCDJutbrlDus7bI+nECWcjdWwB89dJGpOeXnh5QMQYOvMX7hTnTvUa/R13ojvBUuNcCHYEVOvG6ESd69ojIcKV//77UvJ1Kv2ETsQ5nrQg0dnIIzGqvdhf/KZj0cuVr7XoJJSfNhwibpayKqhuHc9xWKbN2BIIkPQ3E3T3ziReoocelZ0oww+htesPRjT8wMFEcX8ULNbBcTNaRMNdPgCCHQHwWXN0FpJ9x8LrGk/H1hKL/9YbQTxJwmniUKwctU7DzgpVetKNG39Gd3Nqp3E+D63kELIa9krkyUL3QbOJEWumRnkktqMUZoTyzF4zESq5T0fDH6ETdSRwimYeEOwI6KdcSROPdcA39As1B5p6XeOZYFrT5NmOjZuOREDA3N/cRplPoe2Tbfxv3RGmbnpzlv55FIvI5CmbiDv9JARWK49X3hhCRxyMjrGCySu1hohj8cnnU02b0LCJ/Fj5nn2yV8cjBNsEnV56fZA4kTnkp5max48bDolf2xAXnuIulVat5hEY8iNq2NavW94bf0LKZs5nxsxtnhftJ5/pTSdPXpAs9n157dh5UoVnPMPTbJoYv0HchspP8/qf3p+oZBYjCLYJpNp0mCtOJH7lNbPyd5v28tc2BJtrmFKJh1AZ+Upvp3+/VcrM+/LhDt2t247R40qdy1JYlK/cQ020ueIgvQQYl7tU+VhL7fD8JvFQnpbiPLK7ctJ9ZPHADxBsE074fpZOO/bUCCtj8IyzMhV1YmBw55JEZ6MBn+YYcbsrtxu2mdnu2nOKuElA6y1BQrg5rvfvp+THa/926JxKcxZHlbSSeDHj4gr9INt3nLBihqePhWCbcM9vh86KP/X5Bm7SdFzYq0+doTez8ZvWcsFxrl1LU8GHMSpWqlNYjCT/vHEznXiF9QcVankSgs15xDQaI/6KP3T4anH/2Qlylpp2i6rXGCBuy5x55ofQSvJJIy8ItglU09PvUKnyXcWJxJ10Wc14TE29SRrTdfmm5yFtkq+Jmu3sH37ifMKMCRcHDuH2Tl6IuWLVnuL+lhBtbjIYNMRazTVQuEx2rl2/SSXKyI/u4ch8vLanlcTYN2oyThz3Hr2yT8cjBNsko2K7LxQnEt/AWTVL8HCkPAXbqlyTY31LdsQMGrpSxU7GZ/zE8FOaTbrP8mFpabeoTYc5xAvGSgitZB78BrB7r0yA/snxG1XKN2iovYfKkOHyXLIbu8cyaVw4AYJtEmRewULypjPy2rz1aKYWdO+1SOV6fF3p4O5NP56sYitHeNuSBT6Zgib8I3dIcnzwevV1Jk8ZHLCz/fQLe7HBgyHizsY36souAcZlyVuoLV29Zi/Uwbafj4lz6bHiHUUrKMEYur0PwTaJOHeIaEwMmTn75/ss4JWqi5TUqdmVq9SdUlNv3XdNuz+wqGlF6CtQtAMdj+I07WBMeKINv5lIL5llR6z5HLaD10N0kjjgVF6F1e05jILdxAHE8haSj2XiZNEQu2XROA+CbRJVHrFR41X58diZRRSbOFl+PCrf5BlLgE3cYLLE5g7juOFaD5cS5bqKBKUyVxJzR23eeoR4tIYXhPu9phPojs0xxnwar+Bj94ER7jynwzDfUIgWOHrsOnMO9vhREGwLDmrZdpY4wRuGrKLOr6m13xohfh2+wXipqhPCEzAOHjyrNhQuppFMjG4LLjZ16PXUmxkzRGvVGarip3BiGPwfrxl56ZL1RYm5kEeP6Yx55kpB4llnCwdwnJ3gckrsN3xnrCnfev0gCLYFD61c9as4kcpU6HaPBefPpxDHfpYgaWge9RuPMTUd/h6DInwZMEhn7Uu2fYLDBYEjmO74b24O4pjpHGaAJ0KF4q39ncfS8/hxO2nkaJ2V5CXC4M5bsEO8ElD12W+JH7R+TxBsCx7kZpHcwguT8k197lxKwIpOsXohSnk8uXR66rm+akJ15kyytLkq+XG8l/ipm9RwCCf8AwetsFWm52rIR1bk0SsSk5y27zwp3uRUvEzsPfeZLdA8cBIE26ITNALgJyzamWHF+T+uZKytGO4Gtfsfx1mWTtwRa9eeSOeFvnlI266R37Fjf1DTjyepYZIZZjVrDbJclFWr96nY+FT1b0U6tLkCIz2klSMBcghXvycItkUPjoyTf5Xs0HluhhUaa+kZN3m8wBJgoVBpBQxim3lEhl/T8FFrXAsoxZ2fZoKIGVjy28DLr8l3nrPPPvo0PiNu+cVL18jJJ+nCVSqqMErKaWeogWE0txBsi+hv2HhYPMh7zdeHZMSk5hjZhsBKbh/O25L4JpBOPOVX0s7gvLp0Wyhtrmv5sYBy0H6tcLPBOPF+UpJ533KAJa0+Eu7U5o5QiU8uhabHjz+Ld40DWheCYFtEliPsScdQrli1N/2674xac0gvpZjA3XvpRejjgFt+TxOVZhGGCvaJE+ZDr/bpt0ztIRtql9e+Fy1lLqSxl3kHwbbhHY6TIEnGIiU7U4N3RovmadjHyyQlJ9sb+hUJmnr1R6nYzLbv3vN7pMv74n+NPg/Dt8b28NHzprC4cjVNZVUXww4/bHk4o58TBNuG94aNlI1uxr3rWhHi3m402lIbp1k4+LW/0OMdVASbO4isBg4ya7fbx+399TTlzq+7qs3Jk+ZCro4eu17FX34QasPGhQl/dvC7zQOp60GwbSB57nyKeDu2QSjp7dJle2yUMPIpu3f/rnbz88LH2SVdvHiNylTQiWlucCUp6YopuGq9OUzNZ4YtXt9mNrPYFHgeOQiCbdMRT1br43nyP/P8tyq1a4Zs6AjZt4zgG330uPU2veK9065cSaPKT/dW5cqt9NsRC84LH3hhOn2wn6Ox36TphIhYefkACLZN77g93tYquXnmneQSYMEwcWjWeg102q959h4v6JtdEg9vK6u0ahBzotLTvSJCxTMy32oYp/rQsMrPaB3PlRg/Jwi2Te9p1jAlyJy/SHu1NQCvXr1BTz6j84ZRvEyXjDG8Nt3iudOOn7hAvPqKhE8zy+PTzyOHWeUlwLT6SDKzycu/5S7QJstFQzxHnkwMgmBnAoqZn7b9clztJpQg/IefTBaPG2LgciYxmYqW7KxS/uovDiBeKspOSklJJV6px0upYxe9UAPMk2kztkQs7rCRa1R8JcHTaOSx7seDETHz6gEQbJue4bi9vNRWNAgX6Zp5Crahk7+bH5trFQJeDYebLiLZYef/Ru+Nsx1sngMx8eSNIcNW0qHD523nYxWPrI7fuOmIeBCjYEx5ckmk2B03b6WrLTUXbIuf9tu0n52Vyzz/OwTbgYs++980FdFySv6YxmMclCryqXFj5KfnG2Xm2qDd1LPPkoA/eHJTw3fH0LEoLYBw8eJV4ngoRrk0tuUr94g4xp4fYhrX9nOevDK75BJ5dvlq5zwIth3U/jpn2Yq9nrwZtGMmxCh2YHF8ErupUZOx9/kjV/429Ead4TQibk1GDGi7eZs9j8enz5i5lR4v3eU+W6RFruG7Y8M2e3F0yddqRzdmt3SZJfLjwFLBETLN+tYLx0GwHXiBl1gqWFRn8ohdYnJnI89o00o3bqSTRpwHLm++x9oRr2BjJ/EKKpFGY3DHGy86MGvOzxkLOVy+nCo27DHlShpxU5GbArl0efgx9rweJfPBLpey63k8vHH7DvsVAzv8lDoHgu0ASR5jW+kp3TG2Vm8ajhSnmViUrNpk9nie6m438ThjK4sIcGCmClV6ZQhsl+4LKGHxzowFd+/cMf/A4CF7S5btpk8+j8/ggZvjnJ+q3pfS08Pb2rHLPDVfmfWpF4/jVXHmL9hhl2pRPQ+C7QB+bgdr/N44z9wUvLbiWYfLM0WCI37qZrXy9um/LNLls/x/8pSNInbxtHhuG37ptUH0dsM4avLhBOIob598Fk8fN4+ndz4YnyHyZSt0i+pQufETf8oSC/6Dg5RpvQl5UYSt2hTbIyEsfl79E4Lt0DPfz9oqIhRWCZfZ8XXfHhm2TdNhUTNOb9V2jkp5uXa8xME0em7PzQyT7Pgb1+QjhVTlNvvsWHapMtV6c6jE7eB6HhBsh5BzrIhH8uoMcbNKTo7VrZ3qxujMcOSa7d69p22Zz4GiOAazVbz8eDy3w0b70ocAAAlgSURBVJsJYPTqG0NyBB52fciTmXhort8SBFvAYzVf11nBwwoZa9YaLFCSyFloDVXjG4jbhO0kbr8uXLxTjhComEaRV+LZs/e0pfZ8KzzjNyEeZeH2R2Om5tZtx+zQLarnQLAF4O/aIyHqYjHt+8gz3pwWlYdCWenYsyIE1V7oRzzSw07ioYBcQ7dyPT8ey2XkFWPCJY4bUlNpCTDGrME7ccQPSLc/vCaptM8GD1sZDkpP/gfBFnBLwuJd4mSyQk5u0zx95pJAScJnMSl+g1o5+w100uEYnRXLrfjI6bFco01Ysiu8g4gyAmdpxS7h2a28MlI0Us++f0+KcoqlcX6jJvZn1UYDA74mBFsA+UOHz6kJmUGucNuvWkwXKEXkLDhOdTg7nPy3b799IWj26WQ1u5yUSepcbg7o0m2Bqdl5Q4frhb195vl+kUmidMS8BTvEffwsx61J9Vc7NgRbgGC8EnXhEtFpQ+WJEZdstv1aKfq1azfUJmEUKdHJ9ugWbgIoVkonEJWU4DrNJ7bHQlMTfNLSblHJ8l3Fhc2wv22HuVYoI3rszl0nxctVvEys7X4T0cJZyAyCbQGscId2jNWNymbcNKFbHs7mRuK3CK1xva+8McR2ETj4USgm2eU7Ly3Wut1sunUr3RQ+UmPRs8Jv85YjpuzQOIg7pHnCS1a22fmdm3g4SJifEgRbyFvRahaZM2+7UAnCZ7Nm3UG1iSKffWm/SWfm7G2iN7GdG1/rnCHDV5l+8+C3vNf+qxc3pEq13qZtCc8k+/9WrS4fg338pPATkOxbq3MmBFsIVw76U0rxdTQzUShXqTtddyn+84i4tWrCOMLBdPrW7XUm8mSGt1u/lSgXa3kS0fHjFyjvY+3UfDQpfqPQnWI/m779l4qXr8E7kYdJ2rdY/kwIthCmPE39TYWhR1mJBL8eTpi0Qcj6yNk0bTZJ/GYxyvbThkORDcjkCMZcayKPYZubW35Ff6tBHF21GLyLh0N+/qVeqN9CxTrQ8SiFqQ12O49QkfYHD5XkqIZ+SRBsQU917rpAnFBZEbRIyc506pT+UD4DnpLlYtXKdvnydeMylrbc4Vipai81u7LCXuP3kuW6EofrtTNq4djxJHpYaUEJLmv1GgOIF0KIdkpPv52xQIU0/vsdjFByGxMItiDiP6za55p48BhSK5HlnBSTBUH6JjHye77mANum8cgVrY5Qwz7tLYeE7dV3iaORPsOVlwCbPHWTbR9JnsgP6OdfHijORR4y6JcEwRb0FMe00JhCm5loOBm3bLXI06ZvEb9JjDL16rPEqjmB47kpYOz4Hymf4iK3hp3S24fytCJuu7c7uzMAApGKiBnlLVisg6khhcH2aO0zVk0+mCDOxZ59lmqZLJ4vBFsY0phGceKEMm4eY1snZqSw1eGza/7FVJUycTv8TwIBq7imvXnLUeo3cDk999IAeujRlir2Gvjb3ebO35o+/mwK8czY5GR7zUChnlqzbr9auAAu55ctvg+9ZFS/91HoeGzSdEJUy2Tl4hBsK2iZOHbCZL3p24ZQaC8BFlxM7pB56dXBKgLIq/Xwqj3SieNcjB67jmrXG0FPPtOHChfvSA/mdl/EeTo5x9au/dYIip+6SXxFdx7K99Jr36n4xuDa4qW7pd3jKD+NZscnn+7tyCY3T4ZgC6OddOEqzZu/g+bO0/ukpKQKW511dtzRs+KHfSrlWbpsL/GSY1qJR5HwiIszicn0y/YTNHrsevr0i6lUpqLe4riln+iasQLN3Pk76OixJLqUfF2tSSE19SYtWrJbxTcGfzWXm7Pjd7bHsE1qO3/hTlPT/u3YK30OBFsaUeTnCwR4ZMqBg4m0Zu0BmjJ9Mw0ZtopiuyfQN61nUbPmU6jJhxOJZ5HysmVcQ+bhgzGNR9O7TXkFminUss1s6tZzEcWNXUcLF+2k7TtOED+s+SGBBAS0EIBgayGLfIEAEAACwghAsIUBRXZAAAgAAS0EINhayCJfIAAEgIAwAhBsYUCRHRAAAkBACwEIthayyBcIAAEgIIwABFsYUGQHBIAAENBCAIKthSzyBQJAAAgIIwDBFgYU2QEBIAAEtBCAYGshi3yBABAAAsIIQLCFAUV2QAAIAAEtBCDYWsgiXyAABICAMAIQbGFAkR0QAAJAQAsBCLYWssgXCAABICCMAARbGFBkBwSAABDQQgCCrYUs8gUCQAAICCMAwRYGFNkBASAABLQQgGBrIYt8gQAQAALCCECwhQFFdkAACAABLQQg2FrIIl8gAASAgDACEGxhQJEdEAACQEALAQi2FrLIFwgAASAgjAAEWxhQZAcEgAAQ0EIAgq2FLPIFAkAACAgjAMEWBhTZAQEgAAS0EIBgayGLfIEAEAACwghAsIUBRXZAAAgAAS0EINhayCJfIAAEgIAwAhBsYUCRHRAAAkBACwEIthayyBcIAAEgIIwABFsYUGQHBIAAENBCAIKthSzyBQJAAAgIIwDBFgYU2QEBIAAEtBCAYGshi3yBABAAAsIIBAT7zoUf6E7SCnyAATgADoADXuLAhR8Csv+XYN+ltBX/orTl/8AHGIAD4AA44CUOrPhXJoK9/J+UtuwBfIABOAAOgANe4sDyf0Kw8XDCwxkcAAd8wQEINojqC6J6qZYDW1DrjhYHINgQbAg2OAAO+IQDEGyfOCpaT3RcF7VJcMA7HIBgQ7BRuwIHwAGfcACC7RNHoZbjnVoOfAFfRIsDEGwINmpX4AA44BMOQLB94qhoPdFxXdQmwQHvcACCDcFG7QocAAd8wgEItk8chVqOd2o58AV8ES0OQLAh2KhdgQPggE84AMH2iaOi9UTHdVGbBAe8wwEINgQbtStwABzwCQcg2D5xFGo53qnlwBfwRbQ4AMGGYKN2BQ6AAz7hAATbJ46K1hMd10VtEhzwDgcg2BBs1K7AAXDAJxyAYPvEUajleKeWA1/AF9HiAAQbgo3aFTgADviEAxBsnzgqWk90XBe1SXDAOxyAYEOwUbsCB8ABn3AAgu0TR6GW451aDnwBX0SLAxBsCDZqV+AAOOATDkCwfeKoaD3RcV3UJsEB73AAgg3BRu0KHAAHfMIBCLZPHIVajndqOfAFfBEtDkCwIdioXYED4IBPOADB9omjovVEx3VRmwQHvMMBCDYEG7UrcAAc8AkHMhXsFf+itGX/wAcYgAPgADjgJQ6s+BcZ6f8AE8snrcTNzmEAAAAASUVORK5CYII=;" vertex="1" parent="1">
          <mxGeometry x="1127.5" y="2043" width="55" height="34" as="geometry" />
        </mxCell>
        <mxCell id="Sct_ijZb0S9W05oiDWKm-153" value="" style="shape=image;verticalLabelPosition=bottom;labelBackgroundColor=default;verticalAlign=top;aspect=fixed;imageAspect=0;image=data:image/png,iVBORw0KGgoAAAANSUhEUgAAAVEAAAD0CAYAAAAi0BWrAAAgAElEQVR4Aey9d3yseV33fc1MktNbTtpMZlJOYRdYYLE8KOqN7RYVBEVpu6fuUpSigIqKWCiPiIjcgrDsOUkmyVkWEZaOFKkqCgrKgiy7e/aUlGlXr1OTvJ/X9zc5256b3WVPm+Rcf/xeM8kkU665rvfvWz9fzXUM4hUfg/gciM+B+Bx4dOeAFh+4R3fg4uMWH7f4HIjPATkHYojGlnjsicTnQHwOnMc5EEP0PA5ebInElkh8DsTnQAzRGKKxFRKfA/E5cB7nQAzR8zh4sRUSWyHxORCfAzFEY4jGVkh8DsTnwHmcAzFEz+PgxVZIbIXE50B8DsQQjSEaWyHxORCfA+dxDsQQPY+DF1shsRUSnwPxORBDNIZobIXE50B8DpzHORBD9DwOXmyFxFZIfA7E50AM0UsAUcexsFwXz3aomjZVwyawHEzXpRR4VHwfy/XxbE89HpkWnmNg+DqVoIzvtpfrVmgvHcfV8TwTzzZxTQPPtnAsA9s2sZzVZRv4TgXfrbRv7TKBXSa0K2r5lolvOXimhW9Y+PIctonpGNi+TWjKzzZlz6Ho+5S9EMeuEuk1QtPDcQ1Mz6Ti22rpvnwmD8v11qZl4xVw3TKebeNZIYFZJTAjAsvHszxMJ8JyHRyvjOst4rkFfNsgsFxC01fHRI6Lb7m4tr36XRjYjk7VqFA1dKKKQVSxiHSXyAiIjAjXtbD8MpZXUsv2y8hSP/sl9OA0hn8W01/AcsvYjnwvLo4dYgRlytE8Fd/EcEJsu4pru3hOicA9Q+TME9kFIquCnFeRZbbv2wUCu7Q2v6dLcM3+IJtjDNFL9IUIcOSLCWyDyDSpGxZN3Wap7NDQ5cQ2FJQM36TkG+i+he3ZOK5N2bXRHRvLcXAsG1+3CHW5EC0sz6YSOlQ8gZ+JYxoEhkFVNxWsy15AxQ+p+BEVL6TkBpRleQG2U8F15rH9BXWB2v4ivrVA01hkubxAUy9RM0pEVgnfKWF7JYygSCUs4rgCZB3X0bHVZzPV51qqWFCy1ujFKZ9HNiZHgdC3PLWx+I5O4BSoOvcQ2fPtDch2cBwXWwDo6Tj+GTz/HjzvFL53Fs+eI3QWCZ0yvl2i7FUo+2UqAsWwgF6dpxKdphyexHEWCK0yoVVRS4CnfjbL+GYZW17LtnEdWRaObHJOBduR/1mkbp6lap0lcubwnYJ63HICTKdOvbxMTa8p0Mv3JJtyIaqwUJX75hr9njrL+o0hegkg6tu6sgYcr0AlLKmTuBy24RNYprIaXK+A4xXxHJ3QMmiWbVYWbJh3icwqoRnimQGu4+N4Pron4LTQ/RJ2tYJdq2DVKlSqJcq1Enq9jNk0iXwfz3NxXQfX9/AiHzcKsAKXxUBn0a9gOQa+KSB3cRyPgudwNvKoBAL2CnWzxLJegMo8LfMsNfsMRlCgFMrJrNM0dJYrFepGGdcVy2ltWjieWJy2WNGyeVVwvEUcbx7Hm8PxFtTG0d4MLWX5C1xlc/HdBXTfpuT7yqswXB9bvifTw6u4BKaL4buYvljpsnmFOE4N12ngOy2soIUeNe9dlbDBuWWGDTAqLBllWmaZulUkshYV1H1nEduqYporWJZ4CeJxFAjtAlWzQtW0ON0oMVfTKYQ2uufj2gGhGVDTPSJToNxZQFqL7yeG6CU4ieRiC8V1csuYno5Ym4YnLr6F45qYCoYWpcBSYCoHBqa466aOZ+lUqjpmVcerGYRhicg+i1+6k9JdX6f6uU8RTk1TeuvbWfzDN1B4xR9ROvxqSs97OeXnvJQzv/o8Tv/qczn7Gy9g/rqDFI7cQOUlL8V71avR/+pvKd/6EYqf/yKFO25noTKH1fAwIxc7dClXA0qRTzFwKXkupuvj2D6+Ja6rq0ISvrKQTCxPrGedUiiWTnlNXpy+FeJbAY5jYntFTH9R3dpiabomtmsrOFpOhOnUMJ0qhuep71O8ieWKSUO3CCwLV0Ib9ZBCzaPgFuCeL8B3P0bzv/LU//MdRF/7M7x/eRXWl15M9TPPo/WpZ1P/+DOpfewZND7xKyz946+y8pnnsPJPL+Tsf76Hwu0n0O/+BObZf8UufhffLBLK5hg5GFWBdBXDbmFbDVzbU5AN3NOEYuXaAtaS8hwC21TekGzsEjJai9DqtPccQ/QSnEjiRhmeoeKPjbLHUsGDUkBLd6nqFvVKFb8YEkiMyzao1HQWWwucat3D3fo3qH3hNhb/7q84+Vu/yemf+xUKYz+K07OfpjZOVRvH10ZxtVFsbQRLG8XQRtETcjuCp+3C0XZha7swEjspJ3ZSSu6kmJTbHVSSOzETvejJ3SxsznB2/PGcfupPYR68joW3vp3gM5/EPf1tisEC8zWTiusSln0C08OV+4ZNo2xTK5qEFQvTkDipuyYvzkBCJRIXVhubjh0IND1cs4pvRFSNMqHa2ExM06RiO5T9gGIQUhH32L0TY/GfMG//G5wvHSX8yI9TnU1Ty2/FmNmKNb0NO78NL7+TMN9LdbKP2mQ/YX6IYGb43uXl05xb/tQg3KSxclMPrZu2Ub9pkPCmPfg3P5HazFMJbvtF/M8fYukbb4aTH2S59J/U7bM4fhk9qLTDOmKVuiU8dxFbNnLXwXDrWHaAY+v3rk6D01p5PzFELwFEvdU4m2v7OFaA4bStu9M1ne81FqjYFexKEWfhFM7X/w39ne/B/o2X0Nr/C1S7HsdicohSd4bShgyLPQMsbuxnfmMfZzf0cvfWAe7cNsTJzYOc3ThIoXsQIzmIo7VXOTGMrFJymEJymIVkRq35VAY3MUCU6MXq6qXQs5uFDf3oGwbxU2mqWppCTxuyzsYc3r4fQ3/+Ec685+3c+c1PUlj4b9ziXejmaYpBkWLNouRZ2KaLV3TWJkSVO6wjiUDbdTAtB9eUBJBDaOmUq/dguYvU9AosnII7P8fSN96C/8Xr8T54Lc70KO5kluB4hsbxDMs3p+G9Q3DzMNXJJ1GbfDz1qf00p3I08/20pnewNLOZRr6f2lT2/7rqU1lWJjIsTaRpTQ22/3a2j+jELoITO2jkB2lNZggnhzCmhinMXEPxA88k+OwfwH/eTHnx33H103gVH6/cxDV8HPcUTvRvOMF32t+TbeDKugTXwnp8jRiil+DEkQxuaFYwXIOF0GIxNCiVT+Hd/V8EX/sczs1/y5mjL+LkVU/FSD2GpraXmjZKuXuUs5tGsBIZnEQGL5HGT2QIZWkZIi2Nr2VxElmsZJZKcpjFVIa5rjSnu9Oc6c7gaCMPWGKtnlsLXeOc6dlHMbUPK7EfV9uPpe3F0PZS1vZQVRbsTvSuXiobBqhsSGN1DRN0j1La+/+weN0RnHf/Lca/fYaFuW8xXzlN6LrUimszsRRIfNM2VFzYdgJc26Jqz9Mwvk2j8E3qJ2/H+9Zxyl9+PqWP7sOa3UXtvRl45zVwcwYmemGiHyYyrBzPwvFxOL6fpYk9RDO7iWb6iKYHiaYzRPksUX6U6tQ4takRBJbnVmMqx/1Xc3Kc5tQojXyWRj5NY7qfxvQu6vlt1KcyNKfGaU4PsXKil6Xpbazke1k6NkTr3TmsW7ZgfuAxeJ+9nuZ/vZfmma8SlE5j6CVMS8Bp4rmry4kTTY8G8jFEHzFE5QST0iNZ5qrLJ3EyiTHJY6bKispt+76pLkKVpHB0LGcOvXIP+l3fwv2nz+C+6W1YP/t89N3XYvdkMLv7KPf0U9g0xMKGQQobhin35NC7c5RSOQqJrFql1CilrjGKKVnjONoYgTZ2r0vvaKPIsrVRLG2EUrKf8v1WJdHPuWVrw3gKsjnMRBYjmcPsylFJZNC1jHp+eR15zWIySyGZodAtFmqahZ4hil1p9NQYdt+PYP/k87H+5G0Uv/A5/ufkN7AKRSRe6rhSZSDHy1AxuHYyRuJx7cy+JKYkPidVC3JcLU8A/OgvZt+W7Lo8h2Sx20vu37fOPbdYnAJM+Rv5H6lUkPdlqe8zqMwTFb5JdOqjmN/8K4qfPshyPkf9WIba8RFqkwLAYcJ8P8H0TqLpNhT9yRx+Pos/O4w7m8aZHcKZHaQ+lb531fLi4rdXVW6nB6hN93/fFU2niaaHifI5qlOj1CbGqE3spX58L82JLK3JNM2pERqTY9QmR6jm5X31Ec7ugnc/keXjWaozm9BnU5T/fgz747/B0pf/mqU7PoNf/BaecVolpeRYtCEiiUFJYBXxLYlvyzES76JdeteOpUpCtP2dPjC22j7/Hw2M1ur/xBB9hBB1nHZ87FxCRRJDpdBSSSHJgjq2hS07u2nimSaWJSeTTWCalO+4g8pnP0b5b97G2Wf9Oqczj6GcGsTXhgi0DKY2jL7GVklCBIlh9d4drQ3gMz3D3D24D+MpP03hbTN4//gVjDvuQLcKmKGOKRlvKReydAIp3XGK2G5R1a5WTbGKHIqBf14QlYxzuFplcK5mVeKa7bIlR9WAOrbU08rry5LqBHlfBqZdwC5/h+jkx2l8/c0EH3s2zvRVRPkB6tO91PKZtb+mMlSn0kSTabwTV+N98tmE//EmvFP/iF66E92RmOk8jnsPjcrdRHoJ1wpVRYEYDFKn3DYkBKjle5dsQAJB+RtJmJ7PRrjWYBpD9BFCVHZb366oDKdYTnLRL1cMGoYUxRu4hku17FIv6jSsEm7pbvSvfR57YoLSkVdQ2vPjnNm8ByOVJdCGlRtuaGMsJMV1zq05iJ6DvmwAsoyuEc52D3PXlizf2ZbFSg1QGLsG/brDeO9+N86Xv0jl7GnORi6LnhT4m+iuRcVzMD1bFe3LxVO15CJ99PE5sXwlMSQlSp4r9a1FQlusqhI1KREyxPI1sR1TPVZzThMZ30Of+zbVb92E/fmXs/iBn6E0M457opfqiR3UxG2f6V/7AL13Eximnh+mPjVMYyJNdWKI4P1Pxv3SSzG+ewvlhdsxTINTQR3DqRNUpPGihOUX0QMpzWuXeD0Qdve3QO9//9F/lw98/s59nhiij/CClYu7bhYph2V0v0LN1GnqbXdGOoukTMmXnXr+bkqf/xTFv/gLFv/3s1nY9RjK3cPMbUyz2D1IpWsQMzmEoWVV3LGoXUVFG1lzELW0YWQZ2mriqitHoTvHYk+O+e4sC5u2UerZiZ4axNh2Ff5Tno3/R2+i8vEPUT5zO6ZXxrNMbMvDcqS0SLq1DCK7dF4QlQ4qKSOTutvAnV8t8ZHyHoPQMqmZBqGU90iW2jqJeepzRF/9Sxr/8GsEU+OEkxkakzkaN6dpTqRp5gepzuwmnFknlqgCaRui4XQad2aQYDpN7XgfrfcOUDt+NcFHn0/4tb/AuOvzOMZ30UNpFLBVU4VsTG1rU9z7dgNA29W3lYUqG1Q7NNO50LvQcI4h+gghaqoayIo6gWQnNmU3VieRQSmq4M7dTuHDt6K/9k9Z/NFf5tSGvRipEXwtg5fMMN8zzHxPmvmeQRa6BiiuglRilwLUc5bdWrmVeKqzGoIoJjIq8y8VAEYyi6VlKXWNU0yOoqdGsZI5jNQwc9uGKT3hyfgvfSn2+0/gnPxvBTzH8fFNAanUoDrnlSm2XHEpjXZ7rC1WrbigUuQeYsnruEVc47tYd96G/89/RPUffpbasVGWj6VpTQzROj7E8qRkwzM0JyX2OU40tZ9gat86skTbYQl7dhhjdoja5G5WjvXROjZMbTJHNCWlV5vwPvJjRF95Fc4dH8a27sCMFjD8kmpIkO9KWo496aJzPNWGKu2yqiPvPL2JCw25i/18MUQfKUQ9k0JgqT5y03HQbQPLKxOc+h7lD3wI/8UvpXTNj6P3jBOkxtBTIyykspSTWTxtlEjbh6eNYQowE0MYiX4srQ9X68PU0msOomKFCkjvtUQTGSqrrr2rZalqe7G0McoJqVnNta3WRJrF5CDzm7OUr/lxFl/2cs588AT2mTupGiau5bEYSLH7qhUjmfIfsPRGsutyMduOi6msXE8ljnxpvzTvxrjzAzhfejW1v/9xWhMDLE3spJnvozY9RDA9SjidI5wZIJrdRTTTiyR1wvwewnUI0eXju+HYLmr5LO7sGO7sMP5sv1ruiUFq0zup5vupf/BH8b/4cuzvfgDfuIvAabelVu0yviV1prZqgRXLVHXnWRIrjS3RuGbsQSeB2nVNC9eUGkITu3Sa0sduY/Elv8PCE38Gc+MwdtcAbtcQQTKj4p6ScClLVj05QinRtsyKyZyq2zS0IWxtEE/rX5MQPWcxC0TbcdGsAuq5n21tgEpykFIqg5mQov8xXG0vurafYtcY5e4MlS3j6I//KRZf/HLKH/0QYeEMXqV8X/H3o6hfjBREHUzHRzY73z7Lsv516nfegv/FV9P4wI/hTF1FqMqI+mjmd1Kd7sedyeKd6CWY3U0wk1EwVdnwaXHnd1Cb2b7uLNH6xDiN4/uoTefwTgxgvm8A65Y04XSGpck0y9MJmtNilY4TTeyl+vc/Svil38S760PUzDtp2XOIuIlr60qYRTq6JMEkIjcxRB8EkIttDq+F55fk0WK1gm8V8b78r8y/+s9Y/KGnU946ipPcQWnDIHrXIEFPjkpqUMU/CxL/TAzhaGkqCVkZ5bqbWg5TG8HURtVai+78uey8QFM2C7E+BaaVxDDi3sv9UjLDYmoYPSGPC0jFIs1hJMcop0Yop4awJGa6ZYTCD/0097zq9wi+8DlCiS3LOShAPHf/EZ6TEu+USgnT8/D8Ev78FzG/8jqcf/g5gvx+ahNZalIqpEqMBqhJzDPfrttsTozQmhhBblVcVGKjk1kaU8M0J9dBZv7exFL7s0jZVDgj5U/DquRKyrAaUnc6maU5mcObHSOcHlVhjaXJDNX8IM7sON5tP4Hzz6/HOSPdUXMqvmxJVt6TpJ7kCdZm2++j5dAV5c7LF6wUd6QvfbU+UeoWVc2iqyvLpWrZiJtiu4sYdgHdsyi7IWXfonzmP9Df9tdYT3025o7HU+zKUk6lcbVBDHFnBR5S9J5IU0y2l6FlsFUZk4ClDRdx6dvglKz82szMi+suSyzStiXadu3l57L6fVY9/sC/kU0ko6BaScjnlvtpDAlnJLMs7LgK/Uk/w8Ib30Lr5LdxnKKSECwGHrooWtll1TGkvjuzqkpvRJpOXHcBp+vOsRA0sHydFfPfCP79T/A+/Iv404+lOtkuZo+mctTzGRpTQ6puU2oqZalM9aTAc4SGKnzPqEJ2+X1d/mcqt+4sUVWrOj2kPpf6/JKtV59XjkmWID9GNS+F/xlV5C/HSZoEpESqNr2X8EPPwv/63xGUv4PlLWJ5C3ji4hsi4iJlTnJtFZUojUg3qgSULSIoa1Qq8fts5FcsRAWeIuUmMRzXlbKN9jJ9yeBaSuHGCBxco8zy2Xn0j3+C/3nBIe7J/TBR1x4iLUMpNUgh1e4KWovW5DmXvBNuDSn2T7QTbPMD12D/5HMofPxDnGmWVDmU9Of7pugMWKqsLLKkxrOtXer7CyoTbxhVIvcuglMfYe4TN2Dd+iPqgm9M9lGfGlLF8eui1vNBFuXl+EzhVBpPsvu3XoXx6Rfg3f0RHLOCY4rebLvESURPIntBeRUVL8JwQyJLV1Uuj9bq68T/u6Igqr6Ac1boqiUqVo3skqLUU6guEljSohnim3WqukN4z7c5+2evY2H/U7A2XK26gYKkFJcPUkwNoiek5lNc87WXYe8EeMp7kA1IwgLqfiJLqA1yZvMw/tCPEL3ktRinv0VJxDTKLg3Tp2GUcdwSoV1WdaV2UMGLiiyX7qL+5ZdRvvUncWavJpwapDndS2N6N9X8EFFe3Nb155Zfjs8U5gfxZ7YRzfYQnRjAufXncL/0Nhql27HCImWRYHQqNMxFVVYmAtKicSo1uzV7bl3lXK4oiLYL5tvW5/3bD5WrIe68b2C4JrWKQ2BVKP37l7jzl36d4o5xChsH8RIjFDYOc8+WQU5v7KeUGlBlPqKiFEP00XddtS1Qye5nlDU6vyVNkBjE2pChtHUv1o8/i8JH/4GFVoWz/gLlUHRXRaVdVy2eoefh3/0pih/7FRqTgyxP7aI5uZ3m9C6a07tpTA9Rz4vAx3p0yS/TpjAl8WQJiexj+XgOjm+jNjPAwqd+FXvxH9D9oqqdFmWsJRFsqQhMi8j0g5LqSls/2fsrCqK+Upa/H0TFKnUNHKtM5FvUKqFqVyvWT3PPe9+KPngNvlIzylJMZVjsGuTkpgHu3txPobsfTxvClQRK4r74YKdYd2v5fSxpe5nryfE/W/o5uVE0BTJU0tdSfMOfUtTvUmVmoVlQIzGscI7oX95KMHEt5VuHaeV3sTy5i+bUaofRVFbFOdtJoxiiF8pq9Wb24E4/Dm4egffsZnmiFymLsk6M4s9eRfQfb6Hpfoezbo2yt0ytXKCln1Li1fNBNbZEOzEu8Ujek7JEzyWSxI1XM4d0fKNMoJdYKhu4i3fwrcMH8DekaWjbqWniso8oMY6qdk49KUNDy1CXrp3EMGe7MqpsaS2Dq5Peezl5FbZSsspR09I4yX707kFKW0epPusofOm/VAimZH+Vyj8dpj41wPLEVsJje4imRBhkjDA/RpQfVypJjclRmhM5lXW+UBC50p9HEk6hiKLM7iCa2UV1ag/149ewcvNeOLaT1k2DVD51I6Z/irurK5T8kMheJLLm1MywR3K9rpW/uaIsUfWlSJZwdbnSC29WaNkW9XKZylc/yPwTf4olbUTVOBa70yqzbiVHMFKjuIkRIm2EqiadSDmVaS4l0pS1oTVXLN9J0Hzwe5EyqEoyh5UaUd+FbFZ69xBWVxq7J8upn/0FKtN/jv7R51GdHqKa34k/PQrHxoimxpXEnLjuKqs81c6ySxmTrCsdfhfq8zenRJRlN8Ytw+i3jCqFKY5lWJ4YJpgeYen4VoLJHAv/8Az803+P492DJcMPrTI1YzG2RDt5h2i3oq3WGaoBam11GXnPbXhWVBJJyp181yByKtTnTnHHiVupDI9zalsfpQ05fG2c+dQe7to0ipkaxklmuGtjlrPSF57KcrYni6gWlZOi67k2lZgeDK9O+dnXBlQjwkJXmrs3jXB687hqoS13ZTi1K03pMVvhmRorf74dY+pqnKlraN48QpTvU6U5orHZmhxkaXI3rale6iJXNyPq8TFELxREw+kR/Ol9NFTBfoZgpg/7fb3Y79tNMDuAccsYy1Nb4b0JgpnH4d/+LmznDKYb4dsyAFBioqL41JaTlJ+lUkZaqteaAtS6s0SrhoyLlWLrilKd8VxJQkjdp4HjySAvqVuz2m2BMqnynm9SeMMfMt83qhIbnQKSK/l9WIkRDG2QijbQVuXv2st8d47iziGca3cRvWAD9SObiV7cQ+t1O+Fdw9Snh3FuSbcFjidH2/WeqlA+Qz0/RFU6j6YHY0v0Elnj1RlpGR2iPtkWnHZmH0/wr6+hWv4mjhob3tahmK9aFEOHhiEDDwsUQndVSm/tJJ7WHUSl9Uz0DKXuU/qlRX1J1IFCqz1XPVAufJmKtcDit/+N+d96DfM7r+LkloFVMeJHn2W+ksF3IT/7osSYkztxtZ0E0t2V2MfiriGcH9vO8gu2sXx4M63DG6gdTeH+pkb0J1tpvSutuoskVhflRZg4u7ra3ThtEeTYEr1QlujDPU80M6BaZ2tTYzSlRndyCH3mRzA/+xrqp/8ZUzqcojNtdS3R3/UqavZT1V7EV6O8Y4hetphHOWgLJUsSSWa5y4z30LLV3G3pmJAyJts4g/Olf6Tw3KMUdz6WSk9G9byfq1W8kECIn+sH35TmN2yhkhrC1/bjJUZxd2+n+hObaR7cQv2GblYOdbN8qIvW4SS1GxPYL9GI/nAz/HWa2qQozGcJp+9b5zqSpCvn4S7++PELs9FISCWaaseoG1ODrEztoHF8N0H+cXj/eAhr/nMYTkVNs60bJdUuKqO2RW6y7erHEL1sENVFINlpa0fK5EaRrKv4Noaa025SsM5ifvYT6M94IboSSR7E6hrASQzeW/Adg+8HB9+FPGZWcitW8ipKqSdRHkpT+xkNDmnUD2+geXgnHErAoSQrhxIsHUnQuCGJf6NG81Wbqf2ffloTMkZDIJojmBbLtN3yKX3wMSQvDCQf7jguT6SpT+YI8+NqplRrahcrUrs7ISIvOaxP/wbBXV/BMkWQu4znFvBFuETJ663mNL5Pm2Wn5WTWoTvfBqi47wLQuchgrmooRW6zfBrj47ex+PQXMrd9P3MbBjnTs5tCql/pfsaW6OWF5zkQV7X9VFJjzGeHcH9pN7UbumjcoLFycBtcvxMOtyEqIOVwiuXDKVpHUjTFvf/dFCtvH2T5Zil1GkESIG2IDtOYjC3Rh4PfhXqc4+0ppJKp92ba4RUROJG4dDg9QCQCMB9+Fv53P82ia1IORV5PBH7aQuedBsqHej/rDqLixldNk8gUC9TkbLVCOShQXTxF7bbbOP30X+Pk9n1UenKc2jTEHZsHWOjOqEFvMUQ7A6Ll5F6KQ9up/eImGjdsJLhxM/Uj2+HgZjjQBYdScEhu22vlcBcrqzCtHdWo/XY3vC3N0rFRJaAhakXSXSOiIxcKEvHzPLRFy3E53mlVEeHPZJVrL/W7cl9kB6sT/Swd30bw0Wdg3flP6E4Jxz9NYNirgwZjd/6yufP3h6i49oWwSFA6if6xj/C9X34uhW2jqi+70jOMk5JxxCMUkqPcvXFMybids4bi28sH1DNjG2n+wm544RaWD3XTPLyJpiSTjiRZPqKpmKiAc/nelVIQFZDywgStQxr+73RTf4dM2cwqYWXRDK3npVXxoS/++PELc3xEDUvqcoMZqYqQqQFSOyqb2jDBTBpfbvO7iab7CT/8TGp3fBJb5m4ppfzYnb9sABWTuxA6VKWgV5/H8koYZoHws5+m9PPPZHFbFjORoZyS+k7RwcwpjctyIsdcV1u6LYbnxYenHHcZLSJhlEJqCFPbg6PtZbFnF8XhzYS/otjWtRkAACAASURBVMHBTXCgGw6K1SmQXAXoEQ0OixufVL+T38tSLr64+QcFsglqsl65Bd6aZfnYGMF0hmB2kOaUlDml1cWstEInJYufwZ+Vov0LA5AYxBmlUyDAFIDK8ZZQSnNSZAVFhnCQxtSA+k5Ez1WSgf5Hnk/15OcoeyXs4B4lo+eYNSX2LAkn23UITYeaKaOtO8tKXXfuvGNXsANLtXHaxjylb3yZhV96PovbR7ETA3Fn0apa0uXcLNoizrKZDSFK/4ZMPO3KUBzaQuPn++Dg/aAoYPwBlrJUD2usHOimdWgD9d/eCu8YUfWjYgE18v1E00OqZVE0QltKpDmDNzuoEiAxAC/+RiJuvjRDSKxajreMaQknr0L/xI1UFz6L75jY/ny7ttuu4brnEk9Spth5Vuq6g6goxfi2T9HzKN75n5Se81zmdwyjd8nFOh5DtAMgqifaE089bS+uto9i1xBzAxtp/twAPLdfZd5/EHDe/2/bEE3CQSmD6qH64m7839/M0ruGaans/BD+TBpvpi08LNaRXNRRXIh/yUIdYo3WprL406JvkGVlsheO9xHln0Dwyeupz4tafhEzbFukDd2lbs1jBouUgs4TdF53EDUDh6hiMWedofibrybakKXYs4tyT45A2xNDtAMgWkj1UU4NUtceT6Q9hsKOrXg/u5XWga2sXL+5XcL0A1if94fo0mEph0rCoW44vJHm0S6Clyap/dEWeKe4k9l2cmM2SzAtCk8CVxmLESedLpUVfh9Ex1WffSvfp6T0lo/1Up0Yw/zC61gpLWIFJfT696gaIQ3dwfHnlU5p7M5f4HiGmsFzv6mQFbfKXa15ojf+OVHPOKVERs38Wegawk6svamal9PtvlivLRAtdg/ga3twezJUf7iP1sGtRDdqLB159K68wHRF4CvZ+4OSue9m5Ui3qiMNX5xg+Y93wLFRavkRlSEOpttjQVqTMleoLVRyqUByJb+OWP7SxSSDAEU4RtSg6nmJVw+ozcyWvvyvvJGau8hcWKESWPiWR2Q6+JYbx0Qv9C7i2DLHxWwPNLMNjNDh7Icm8bYM09T6KSVHOdMl43uHme/ujy3RDrBEy8khShv6KWzahn/1TnhOH42jKeov1mjdIImjHywO+oC/V1ZoOxmlSqCOdLN8tIvW0RTVFydpvHEXK8dEKi9LqARJJOkhyQ5xMS9+PPBKhue5z65ioqICJSVQqo50HHdmfBWoOVYm+tFv2Ux0+824OizWz6CHC9TKSyxV4pjoBd9F7m+Jyn2+/mmKOx7P6c3DVLU0xS6ZQCnSduNU1uhQuItlEV6u5xWpu2LXLgp7u6j9mvTB97Ak5UpHUiydL0QlKaXqSFfLnuQ5D0h3UxfNw0milyVpvqWP1mROJZLa2eN2jK4Wjw+5RHHRdtODhFAEqEqbVOm/ykBASTplaZ7oQZ96Etz5GVz/DIXQVgPuGmZ7ZtOFNsbO5/nWXExUrE75wO3RrO2xuo6M1fVM/LmzmI97HN/bnMVNXs3cpnHsxG6sRB+mtg9Puzq2RC+RJaqmeqrXOjd7SkIpGXQtiyN6rH0Zak/fRfSiJLUXSUlTDxzYwMoNXedniSo3XixRKX1KsXJEnk/ioz2sHExRP6Lhv6aL+jul1GlYgTSalpHJcmHHHU3nrMWLeStufDA9qoC5NDlAa1JgKvKFQyrJ5M/00XzPtSzdtA3vtsewUjhJ0YVy9TS+d6rteYr3qVggPGgvqRE/Hxg+2v9dcxCtmu1RrMWqqGQXcWyHM3WPsnUPzWe/WI3jvVwWVvy699WYWsmdahx0UdvPQirNYvcWyl3bMbVxCr19mE/rYfn5vSwd3MzS0W6WjiZZOZJaBd55uPMPFQo4lGD5QIIl6W763V203rUHb3qvaktsTKZVDePFhEf83I8sXNKc6lWaB+HsDhrTvbj/+LuEzhzFUMYuVwhNX8VHPdvBcAMqXqDmOfnughqO92hh+Gj/b81BNLBWRVvdslJpkjaxk2EJ523v4rv9j4ktzUtkaT7chlFJ9Cst0LI2SimRoyjTUbt3U9zQj/f4QVq/sYvl67azdGiDSiYtH5GkkLji52mJPhREVeIpyfKhJNGLuqi9cYDa8T1EMzJffTiOiXZIs0FjcozadK/6TqL8KPMnRnC/9Zf4RgHD8XHdCp5bUre2ayoJPRFzlsm9l8MaXXMQFRNeDlxgybLVffPz/8TZx/8vij19MUQ7BKILyWFKySHVIWZp45S1PZzt6aeU28bS03ezfGAbrYMblFUoZUkrh8SlT8ABccUvjiUqmXuJu0rMtHE4SfjKjbTeLsIkUmqTa4O0Q0ByRVutokE6KQLbo3izGYJbuzHffzX1O29Ts+sNv4Tli3xeSQmui/6ocEGkLi+HKv6ag6iY3I5jYnoOum9Suft2Ks84ysKOcVxtawzRDoHoXHJMWZ9WYhBH20M5uZ/53f2E/2sHK9dtZulIj9IDXRaAqtpOgWhyVWDkIkL06Grm/mAXtaNJan8ggs5Zwny7r/uKhleHbCAyN6s1MUptegDnll5aE/0sH9uC8ZnnYOvfwnFFoc3DcmTMiElklQjsMpZrKzY8Wrf80f7fmoOomOty4EqBSdE8w5k3vJlK3xMwuweoJHfEEO0QiC4mxignZPZUGkPc+S3DmNcMsPz8HbSOarSOihboqgUqVuiqRujFdOfblmg74SQW7/LBJOGNGvU37KL23hy1WLT5EmXnHy42mqaZ30k0sxNvZozlm8fhPX3ot+6n9M0/oF5ewDU8TKuJZ4VKKyO0C1ieDKG89CVQaw6iMjteluuWqHzywxhPeBpzmwZwk4MsduViiHYIRA0ti6GNoidGKfYMUc7tpPVLu5UFKtqgy0faosrKhRc3XmXTRWREkksXxxIVUAtIl46IBmmXKshvHNAIX9lN621DaryIytDHNaOXFabSRVad3aSGC0aTV9OUzW1iDHdmD/qHn0T19tuoG2cwnAjLjghlgoVdbPfaxxB9+BKFyNQx/TLO3d/Gue43CTflKG3YxunNGWztcTFEOwSinjakZseXE/tZ3DFA9JQdcN1mmqJAL7WgkkAShSaJga4qNQncmkfPr2PpIQGs4q6aEnBuHRWFqC64PkEkGqR/uJXGzWIhDVOdylCVmFyHuLdX2vuQCa3+tFRO7KOR300wvZvSiTH86Rz1Y1mMz7yUZvnzGH4Z3QuUZxpauho+6TiSeH54jlzIv+lIS1SybHIwJOPmODpVs0TNaI8OsDwH0ytQ+Lt3EGafjNmVptA9jNE9qrqSHi5rHD9+XxnSxTwWUaIfQxtjftM4lf274Dkb4LBG48Yemkc2rfa3i1CIZOQFnG1JO8nSPyQIz8dKVSEDjWUlq3cuNtrWH228KEnrL/tYOp6jOp0lmBpSyY2lCWkHHV6tI304NzR+/EIAX5S2wql9arRII99LmB/EnpXZWWkFUff919L4z9fj+mdx3HYraGA7ajZTnJ1f3UFkSqfENkzPUrPiRZmpbpQVWEu+TfGrX+b0M56NvnGIYleWUnI/NW2MciqOiV5MMP4gzx1pg5S7spzpH6Dx8/1wQIOjGs2jm2gd3nrxQPloILsK1+qruuFdWapTOcLZYZpTaWRWUEMgOh3PZ7oQgDzf55CmCC+fo/7RXyI4/TlMSS6ZHpFtEsQlTveZ4FKyIBCVLJyULni2oUqZDN/GLc1RfP2bmRu4itObd1PqyhBq+zCSI5RTvbE73yHufKTto7CxH+OJu+AFfUooGRFUPrKBlcNilV5Ei/ORPve5hJb8/aGEEkBZfkOvGisSzrTbQqWTRiAq0m3nC4D4/8/fUg/zGZyZcaozT6D+lddRdizVcFOzCjiuiJPYsTsvsYpAQVNXNV++5aC7HouBjePp2J/6BJWn/BJeIsPcln6MrgxVbQ/z3VmMZCy6/INYixfzb73E41jo3crKr+2mebRbSdIh8FRzkToAoAqc7Smi5+pSJelU/a0UvDOnlJ78mcyqeHOWZjwptCM2EWmK8GSC6/FRlj/w85j3fAHLtwmtApYjJU5xTFTtIpGMUfWlXEEnsDxKfsSCb1E9/T3MV7+W4uYxPG0QI9mPkRiiksgx3zWMHkvdXVZL3EhksZJSIZGh2DOKd20vK4c2Un+JRuOGLlbUyA+JgZ6nUtMjtTQfyd/dv7Bf9dYnaPzxdpgYx1NjQ2T88jDNibivvhMs6brERWdkYugeGsf30fjSqzHse7DsilLEV4JEcWLJoGr4VIIKllcmMB2KXqjKF4IP3UrpSU9VFmc5OYinpdWspMWuLHIBL6YuTdLkYlpwa/W55fhXlMDIsPouzgxugefk4EUbqN0odaGSRNrQ7krqJIjeH7TSgnqoi+ilKfjbHPXJEfyZHPWZkdXyp/N3RzsBRGv5PTTygyzld+PO7qU6kYVbrsW+5+PYfoXAlg6muE5UWaI1PaQYVTCComrtLLsBzuk7MV79O8xt7sdI9lFKZiimRjm9YQQrmaWmZblnQwzRywVhgaiprND2d2A9TVz3PqqHuli6UTLv7YL6dsF7h7jz9wfo4QQtUZI6spHGIY3WH2yFyb0E+RyhJJVid74j3Pm6jL6eHlDlTmF+mMaxDI1//j188w5VyeNdhhlMHVniVK9ELMq8+HCR0LKw/IAzX/wsd/7ET1LcuINKVz9WYpQ7N+3hu5tHqGk5lrUcd2yOi+0vD0QzGAmxQNvH39+0h+bhDSy9aAfNI1tYkjrQg+34o6g1tY5eXJGRR5u0qh3ZSPNgj1J68kWe751ZqtOjSjg4ihNLHQFRiYmGaoJoH5Jk8vN7qb/vJ7Dv+Rym56s8ipQ5tUudzsnktZPWF8tK7UiI+vZpzlZ1in5IaNgs6P+D96evp9Kdo5IUTcrY4rzcx8DW0pjaCAupLPPd26kk+7ATT2R+Y4bgKT2dkX1/kKX5sHC9PgHXtUVQqjemCP5kO63j44SzUvIUu/IdEQaYkvbcMWr5IZYnhuDmQYLjWfyvvwbdOYNnRdTs01Tdu/GsKroDelDE8+aJzIszWqQjIRo6i5iuRcX1aeomla9+llNP+0VKiSEMbSiGaAdsIqY2pCzPUjJHOdWn1Jr01FWc7e2FX+9dkxBdUSpSIoIi4s1JzJdpLP+dlDrlCG6RjH0M0st9DGTQoKzqtMyuz7ByLEM0OUzhY8/GnfsCge3jOwUC96zqq7etJpZfxHMLBObFmRTaoRAt45s2nuVSWzxL8Lb/w+kde9FTg1gxRDtjE0kOUUkOq64kUar3kuMsdKexntzP0uHNaxKiS9LJJN1TB1KsHEgQ3qBRf+MumtNjuCdiiF5ugMrrS/eYGnE906/GijQmRqhND7Ew+wRq33iL0hy1XOl21PGsAN8KCJxiW6zZDi5KDWlHQtR2TAzHolmxML/zHzg//zz0ZIZS9wB6MrZEL7crL69fSg1RTqVxtFECbT92YpyFXbtoPXuIQOKJP6gr3QF/L5NGW9J+Kv3816WUxqn/yiTLx0Zxp2OIdgZEpflhgGimj3B6hEgJOPfjnchR/eiz8Oa+rrxYy/NxbJfIMqlaJTzbwnIlZnpfU8+Fut+REDU8i8XAYnlhgdLHPoDe+wTMVJpCzyDFVDz2uBMgWpRNTZWZZRVEy6KgdfUOlq7fgf/itQnRtsJTsq3wdH0KXpigeoNG9S29VKdk1HLszl/uYyAz62W8cnW6jyg/QjS1R92vzuwinLqa8H9m8Y0z2F6E5bpEdomaWcGzbQzv4nQzdSREpWe+FOjUT36Xhd/+XazkCGZPhvmuIYrJOKnUGRDNKeV6VxvE1saY2zJA9ed2s3R0A9XzHTZ3uazS60XfNKm6q5alouCFSVoHNbzf62H5mCQzYohe/mMg7bcyp76PhlRMTOwhmu6nOrOD6vEc3hdeTavwNWzpdAxdXLeIzGVTEA1KV44latuyc5QofvMrzF/1NMxEGrtb1JpyGInRzogJdkBy53LCtKREl9PYWq8SX17MDLH0G31KcHn58LY16c7zfA0OiPXZRUOmhL4wycr1Gr6MWf6bWBrv8gM0o+KgMnepmd+NKGw1FEQHCWd3qax95f2/ACc/imPoFEIL0y8Smq5y581g7sqBqGlb2PppisfeRaFnXGXkjWSaYioTT/PsEHhXkiPoCdFwHaHYncb54a0sHdxK49AWUGOKO7Og/iFjtde1IdqUWfUi2izz6g8mqN+YZOmPd9KcbI9Vbis6Daskh4BFRi5XYyv1Elnq2XZCaWqQ5qTER0eURF40M0g1P4JzfA/1b/4Fum5Qqn4PmQgq6veOJxn64pUDUSmuL8/dzvwzn0splcbS0jiJDJXkYNwf3yEQ1ZPDmIksduKxlLZlaD69i9aRHhoH+1k5ujZjokrX9NCqzuihlJpbjwJqkuVXbGTp5jT11Q6maj6LKLBLjC6YSVOdjl39TrBUmzf3U/zMr2PIZNDwG0R6E9sJsHypE7044iQdGRMt+ybB17/C4uC1KgMsVmgo8EiKWnqcWLqcbvy9ry3zk5I5Kqm9mMMZeLaMPhaI7lo3EBWASsmTjCxpvLSL2tt7WVKWj1hDUmojJTei9BRbop0AUHkPy8eHOfX+x+IX/hnXPEOoL6nZS2awqBTwL1RG/v7P05EQPRvM4/3tu3HVlMghFrsy+ALRRBojhmhnxIRFMSs1zHx3hvBJQ/C8DbQOC0S3riOIdqnQxMrRLuovShL86WZWbh6hOiUq622ACkRjd75zrPCl42Ms3rJdzamvFSw8YxkjWETGLN8ffBfyfudA1DbwXQvXNpjz76L8K4dwtRHECj3Vk6GiXMdhisnYEr3XGryMrr2REOX6Yc5u76fxs7vhwAaWD26gdXAjF3XEx8XM3Euh/YPc+RWxRo+kqB9N4L9mA/zdCPVJGbEsiaZ2skmsUjXgLo6LXqK46PeHduP4ON77NmJ++pkwb+GYTfRwHssXofcLXyMqMO4YiDqWrgAqt8aZf+f0wJMpd2WwUm2IznXncLUcBUkuXUZ4xK+9qtKUHKTUNcxibpDGr25m5YjohW5cdX8v4rC5Sw3Rw22INo8kqb68h5W/StOcHCFScdAh5c63Ve9jvdFOcOkludSY3on1vhE4+R0sx1eWqEwHdi+SYHPnQNTWEYAqpZXbZjjVNYaxYZiKNkAxlWUhNaIgKmpBMcgu/zGwkwMUujLoTximfl1ClTatHNikunyWD3evzRKn/5slugpRmURaf1EP9T/dyfJEG6LR9JCyvOpKFCOGaCdA1D+RVjW94dQGWre/HzvQMb0yvr2IZ18hAiTV0OOel72CM10j2NKfnUoreOrSn61Jd0w2hmgHWOJ2op/ShhGCp+5TI5DVGOQDMsVTpmmuURWnh4CozKlvHu4hfO0WNRE0yIu6+hC1qWHqk6IsFEO0EyBqv6+Plfc8iZWpBKUvvA67WsB0LELzDL7pXJS46GWxRH1bx/BNaoatLM/FsEhoFynLSJBqjWjkhzibkrrQLIY2jK1l711mBwAktoSld36U+f6t1J7ezfKRjSwd3YQaRCfiywe3r01L9KFCBaLw9IIktd/eTPOdouwkOqOSpW+rCokwRidA5Ep/D63jIwS3bkPPj8HUYwkDE8OrUnbmELH3C5lQOvdclwmiBqbXhqjrmJSiCr5VoGgX0E+eYb4nS3nDKMVERkFUwClLgBoDrDOOQSGVRR/tpfWsjaq0aenIxjZEZaLnoQ4bifxQcHykjwlEX5gievkGqm8bpD49phTv2/WiAtIYop0A8KXJEYJbtmDPjLF8Uw6vdDu2H6D7C9TNdSZAYnoGVdNQGbNyoONaJSxnkTMf+AgFKaxP5TDuN25C4FlZXTFILz9IF7qH8K4ZgOdupnm4m9aRzXAk2QbpeoXodSnCl3QRvVG6l0YURGV0SFvjMoZoJ0C0NZklOLGFYGaU2nsGsL9zC4Fnq+RS1VxHAiQyU97ydKqWDKMzqDiGmo8SOvPc8co/VNMipRumPTlS4JmhrGUord7GEL38EJ3f1Ef4lD64bqMS7LgXomqW0trUE33IllApur++i+oNSeqv30br5uy9EBUhjNgS/f5lR5cSrtIAEZ7YRnUmRzQ5iP3FV1F1ylhhiciqrB933l4VTa1aRTUa2Zasme/SdM5y908+U8U/7x/7rCTOWaFxeVOnbCCLO3YT/vROONJD84Yulg5vaddYKohuWH8xUSXY3I2UOrV+bxPL70oTzuQIZnM0p3I0Yne+I2LCsplVZ3rVdFZ/dhD/g0+jaS1g+fr6gqjl2mqmfNVewAjKeHaA6XlUC9/hTN9VD4Do/V34c7HRTgHJlfw+ykN9VH9xOys3JKjfkKQlLvwhGUAncnJrtMTpIeKjK4dFsLmbpUMJWq/oYvlvBtTsJXc2SyOGaEcAVCxeFVqRscoTOaxbhmhKK2hlDtNz8K2L07V0WRJLpteGaOTMowclQrtKxfEofuvzSCeMZOMliSQALSsrNKMSS1JsL49dyfDqlM9ujQ3R/LUdtG7UqN2QoHVoGyh4aqyIAtJDAGktPqYgeqSb5QMarZdoLL21l2h2BGdGhEgEpHFM9FK67d/3taZGVGhl5dgY+vsycHM30ak7MF2fwC6vJ3fexHfKhJKNDwwCO6Qc2ZRPHMfTBhUwBRYPtkIFoFYM0Uu2iYjlX9GylLWc+i5Et0CaHUoSr35cH60XblJF9s2jMptoY9sSPSTZ+dS6hKhI5CEQvVFj6U291POjeDMiENzuo/++F3bcDnrJLFVx50WqcPn4KP6JXnjvdrz/voWyX6e6niDqORUiq0xg6+ieg+d4lFs61u/8AU48EvmSQfLhrFpLJfJyLCZGKKsys0E162pBGiF+ZAcy2E16y0XtiMP3ScitT4gmaB5NgLjzRzSW/qSX1rFRwulh6jMikdcZiZUrHeT1/JDa2FoTI7SmN7FybBTvX19BIVqhbq4jPVGBaGi3Idqee+JiVkucec4hzMRgx0Dk4SCz3h8XS1SszkIiqyxSsUQryTSFTTmCn9iNqBtdeRDVFEQbf7idxk05oplhajFEL5ml+XCbRD2fxp8ZZum49NBvY/nmUazPvIBK1CAy11FM1HP0tjtvSV+rjeXYhH6Be576DEqJ3TFEO6SpwNBylBLDqulB3HpDXPvUEKWdGaKfFt3QNkQlXvhgQeO1GPd8qPcsQ+zalqjG0iGN2u9upvFuyQRnFUQf7uKOH780lrooaoUzaZaPZ4lmell6bxb7I/8by7PwzXUUE5W2T1dZo22IynTPZvkMJ8eeQrE7hminWLiGNkIpmVYD6YxEDksbpdQ1RKm/n+rPb1cQXT43q/1BfecPBaS1+NjKkVWIHtRYOqhRfdUG6n+bVuLM1Zm2EEkMyksDyoc6zlE+R3V6QIkzuyeGWD4+gnvLE3HM03iuuX4SSwJR29UJ1a2FKNlX7/hv5nc+gcUNvbEl2iGWqJ4YVWORy6l+TG0ES9tLSbRdc700fnkby0dTLB+WMRoP1OFcjzFR0Uht3JCAg5oaXld7ZQ/1d8hcH0lkDHaMO/tQgLkSHgvzo2oS6MrxDMYtOZYnckrfwCt9C9tbR+NBBKLSsRRaAlOTogiP/OuX8bY8gfmNO2OIdgxExygl+ymndmNqY1jaVRR60hh7drL07G1KrFggeiUklu6F6AENrteovixF7a/7qU+LQLPANJ4G2gmQDvLjNPK9cDxN+X3jLB0fZunYDry5f8FYT3qiAlHTkw6CVYiGJqVPfZxqz2OZ3xJDtFPceT3RhmgltVu58gLRhe5BjP3bWH7O1isOonWxRFchGr00QfWtu2nO5AjzA1SnYpe+EyDqT4/TXIVo8da9tI5lWHlvN/49n6fsrCN3XvXNmxY1q4jtVjjTrNJ4783M7ewl1B4TW6IdYokWEzJXfphKYjfF5BiOcunHMR/XS/OADHBLqCVJl3vjnIfaZUD3/nz/x9by/UMJlg9rNI4mWD6k0Tyq0fh/dxPOtMuc4vEglz8eKhCPZgZoTozTFCGS2T7qk2mqM+NUv/02DLe+fmKiygo1LaR33vYqzLXq+G9/B3PbdxBqV8cQ7SCIOqsQLSiISsfYKNY1u2kdvIIherBdK1p/cy/hjKg5xd1KnWCFtiHaT3Nij4JoNNOnJrJGIlv4zTdhebX1A1GxRCPLUkLMlleh0Khj/NmbmN+2A0+7KoZoh0JUiWMnRnGeuJslNUr4yrJEV5QFmmDlYILmYY3qG3cSTo8QScH9VGdYYp0Cs8v1PqKZcxCVGt4Bmvks0dQo9tdejxOsI4hKZj4yLXyniEC0VKtRfu3rWdy6A0vbH0O0oyCaVe58ITGKrWVwkiN4T96NKm26wtx5BdEjAlGN1mGN2p/vIMyLyv0wtRiiHVGhINZnc2KM5mQbokv5EaqTWcx/fS1+EK0fS9SR8ibLwvFECq+CHtUov/K1LG7ejhnHRDtmEyklM2psdUXbTSEhrvwQbiqL/+RdKj54ZcVEtTY8j7STS6rg/g1tiKqRyTFEOwKi4ewqRCdkcxtkaTJHIz+C+ZVXEQbrSdl+FaKWX8TwK9hhDfNlv09p8w4qidgS7ZTsfCk5/CCIDuJ2DRP88C6Wj2hXWGJJZkdJy+d9EK3/+Q5UcbcMq4sh2iEQ7W1bohOjVKeHWFYQzWF95beJgnU0qM51dALLwgiK6H4FN6hhv/T30DfvpJjY1zGWWKfA7HK9jwdCVIYFDuB1DxP9qLR8XoEQPaCxJBC9XlMZeoFodXVccgzRzogJh7O9NMSdF4jm06xM5FRc1P7KK6gG66jESXrnPdtSBfcy9dOMPMIX/wHFrWnMxGgM0U6JiabSeJp8HwMsJkcwEv3Y3WmiH+kFiQ0ebq8HlDOt2xInrS2D92BLdCpHNbZEO8IKlWRWONNPYzKnICpewvJUWgkz218Wd34djQcRiMqcJd9yMV2HQqNC9UV/lXQudQAAIABJREFUzJmt+wi1gRiiHQLRQtcAvupUyrCYHKeU6kfvHiL8od1wcP1phj5gM3hwTeuhdky0KdNMDyTaIiTnEkviysfufEeANJzO0JzMqFrRaGoPrfwuGvkM1lf+CD9YZypOMio5sFwMTyBaxvmt13N28z48rT+GaMdAdPB+EB1Deugr3UP41/Zd2RA9mGDpsEZdSpwkOy9aojFEOwyiY0SqBXSH0nq1/+VP8WSqsGNc8HVZxoNITNSzTSLTpeI7FGsl9N9/Ewub9uHEEO2YTaTQNYSvjSPizIvJUUqpPipdabwn9sOB9TcC5OEs0eWDGo0jYpEmWDqiUX/TrnadaD4ucbpcdaEPft3oXkt0hCg/Rj2/g+p0Dverb8YN1tXIZJ3ANqnrLqXAoVwrU/rLv6HYsxc7FbvzlyuR9ODXLXSlVyE6xEJyREG0nMrgPH4Arl9/w+geGqLtdk9p+1w5lGDpqEbtTbsIznUsxZZoR1iibYimVZ2oKDo1ptsNEc7X/gp7PZU4tRWcTFoVl0LooFfLFCaOYW7YjyFxtw5xZ6/091FIZR4I0WQf5eQw1mOHWH7hlQdRceFFDk+k/5ZuSFB7cy/+zAhBXGzfEQAVq1RBdGqo3Ts/naM+sws/P4r/jXdh+tUL7spLeOCyuPNtARKT5bLLQuRgVCsUbrsVt+cx6N2xJdop8L4XoolBFlI5Ssk+NS7EeMwQS8/vuU905MFJmPX4s1ifEge9QYRIkizfmKT+F7vvg2g8Y6kjQHofRDME01nqs7vwxCL9ziQVbz0JkPg6VdNkpeQyX21bovrnP0648bGUu2NLtCMhmsxSXIVoZd8QzeddYZbo4VXRkXMQfVGKxlv68GZG1EyfB8fm4p8vT93oAyE6TG12F05+jOW7bqHkrCOIeraMSZZlshDZ1G2bsyf/g2DTNZQ2xeNBOgWiJW0/hjaIldiBqcYl72WxK4M5vJPlZ57TE022le3PWZ8yMvmwrPvJ462D+9KhVT8qgswpuD5J8+VJmm/fQTU/RDSTo5bPdoQlFsM7Q5QfpTnVhzebgfeM4c9uxV04iecsrh933l+FqNwuRjY100Y37sbadS3ljTFEOwWiZW0femIAM7FTZeiN5D4K3cMYgztY+sX7Q3R1XLLAcp0W2yuI3nAfRFu/3UXrHbuo5YdU9jeG6OWxPB+8aUiXkmTll85B9KY9eCf6CfQinr2wfiDqOW1LVCBaDG0i08b2zrK4/6co98QzljoFohVtL7o2hJnoVZaonhinKBDd3Uvz57a0e+fv37Ukw+oOdsHB9efqrxwRQeZViB5I0nrNBlp/t1tZolJCE0O0MyAaTQ8RTY2zPNnftkSPj+Le+gRCx8BfTxCVjJaMCBGIytx537DxaiXmn/5cKl1xTLRzICotn2lMbRBDVUzItM8s+vYB6v9LZiwlWf7/QbQHDmxcd+78yuG2mj0HUrQOpai/dhPNm/qJ8oPUJAscu/MdEc4IZwYURFeOp3Fns9TzA7gffBaeZxO466hjyRGISsG9Y2C7Dr7tYtcr3PGil2CkhuISp44p8RpR34WhZdTMeSMxokqcyt1DVH9sF0uHulWmWqw0FQcVS/RANxzYsC4h2joqcd4eWjd0U3vdZhrHBgnUuOQs9ak4Jvpg1/py/BzM9hNNjsF7h3Fms/gndhF88neVsRY46wmirgC0DVHPdvBsD6Na5tTfvAUjEUO0UyzRtvWZRddy6JrcDlNOyMriXStzljaxJK77kSScA6n01B9Yf+VPYom21GfsoXZjF9U/267k74LZIQXQ+lQ8IuRyQPPBr+mf6KM6OQ435bBnR9Dft4nqF27CiHx8u7h+YqK2dx9EQ9PFsVxKYYnyJ27BTgzHlmiHWKIqI68AKm59jsr/x957x8l1lff/07ZoJatu7yvJFRsZCKaH4pD4RS8hgG0100NJAsRACC0hkND50mxJ22SZBIxD3DA2NgYbAza2sY2brLZtyu1t6rb37/ecuyOtjC3JoDKS5o/zmp2dmXvPPeVznvp5ou1oan56Mc5YTv6tDUxfXM+sKps8J42uFb7NE4+cREBUUj1n1tdQeHctpS+sID/Ujq9AtKsqiVZInKx3xXLyIol+txv7im5S/10Dv/sJmayHZ51AkmhIAiCpnwaOY+PYLqafxnv0dszESpxIF8lYJ8lYF1akGzPajXBbyiYW1bJSJLUTvR+GhDUpCbQbTV6jMvadGJFetO5G8q9bwvS6eqY2xpkVijgJb1orXJsnZl79zPq4erbJv69j6kvNinjEH25jcqCLUlUSrQibqL+1RdlEuayV/EAfqR/WwfaHSGUzZK0TiE9UHsZ2DfJmhlROw3MsckYKPbcDo+PFFCM97K7pYldNL25kNU5sJSM1HaTirViRtiqIVoKkuqyDqVe0M7Whlvy7YkxtqFMAKkBa2rDghLOJoiIPaplZF2XqQzXMfL1VsdpLVoyU562CaKV453vJbu1jeuAU+N5qtB93Emguen4nBT174qjzwmovIFowM+iBhm+ZBGaGzPQY5gXrmIy0k4q1Mx7vxIr0YMR6GE2IJCp10KuSaCVIwOmFrRRf1Mb02jpyl0g2zwkOoutjsK6OyfVRJj9SD9/uID/YqcolV0G0MgBU7KPZ4R5yW9uZ6V/O9OUdmD95JXnHQA/GyRvBiQOivm0pUmYBUcfVVOVP19YZmRrH+NyXyEeaMCPNaNFWpb6LKj8R78CMdCB10CsBRE72PiSFnPlZrUxfuJDcxjiT608CEF1fS+6SCKVPLoLLu5ECdZJmWOqXGktVx9ITnTzH4n0w3ElhuJHZ/la8/hX4d/w7eX8c07PI2SeQJCogKqTMeSuN74Qg6tgWe4op7FtvIp1oxIo24URbMGKtpOJtZKLtqLrnc17ikx3EjvXzp2OduKe2MPOWU8hvqAlBdC7lc/JEVOeFdGR9guC9cSa/sIKZLd1zNsA25aWv1liqDGk0GG5ncmAFDLSR3NpE6Q+3k8uOYLsBvn0CVfsMLFuRMvsSt+Vm8C0Lz/WYCDS8zC62t68iXSs0bGL/bCEda8WMtGMpp0YYanOsQeRkv78W6cVoa2bq9Yspbqg/KUB0an0c70M1TH5TNqp45NspDrRRHGyrCKfKsZD8Ku2e/nAr05ukyudy9vzgVKZGHXx/FMuycF33xFHnBUSFfMT20lh+Gts2CdwspmliFS12/PUF7FjYQxCV+MRWpda7EVHnO8lU1fmKMGeYkdWkFzeRe+VCSusbmFwvWUphmNPU+hPQsbRenGdxgn9uYPKyMM1TALQ0IABaBdFKAVNvuJnZ761kcnMtEz/9KwoZcL0Ujp3E9k4gZvusaatwAyNIowUCpA6eGZDXXZIlC+tj/8zvF/WRja9SdlAJtfEVeHaSrMaRVgSIOpEzSNY3Yr8oQXHdQqY2NJzYILouyuQlcfKfWkppSw9SEK0k5L8DLYqEpFJA5GTvh7+1Gb5zNlP9EfzfvQtXA9PUCbxRDPfw11c6ZqTMnmMizXEN1VzXxLUtfJFOXZPx2+9Cr+kkXd+AFe0kiKwiiLSSibdiKOm06lw61uYEiZRI17bhrGph9g0NTL0zQuEdNUyuWwQXHac0eGuFQEW88CG9n3ADTO9tcUrvqSX7xUaCrV0EW1uYHGhmqr+d7JAUq6s6lioBwEuDjeQGzsDpbyS762cYngkpfa48+wlVqO7AJ4KZ0tDPfD56/UL0uAR396HHmkkmWsKg76pKf8ylUS3WSqa2g+Ty5Uz9dQPTl0TIv6M2BNGLj1M+UYkFXRfS+kkW1syGONMb4kqNL22IUXh/HdPf6sQb7lQgOjUHokEVRCvGJjzV30x+qA3nB89n2ngYw9eYyRh4to1ovmGiz4Hx5+l+55iUBzlYJ5OOQeYfPoSTaCRd08l4vJuxRCtSfVJyt4+1FFa9f4fKXsrEuxhdsJTii5Yys7aG4iViN6wNg+6PQyJmKfsh4Dm/CZBKm9wYo3hpA2zqwx9qJ7tVVHmp5VOVRCtBAi33YWZzJ8X+Bbg//zAlaweG5+LaDkXdxwxOID7Rg4HoeKBj3/gjjIRQr7UzluhgTHgs47J5qyBaESAeFSdfNxO1LThnLmP6zYsQlqMp4dwUae44BFFR3cV5JNLnfCCV95PvTlD496VMXd5JdrCd/LA4lVopDbSroHuJGS1v5OrrsQt3mr68i3z/AvKPX4dvj2A6WZKBx0w6wAxGTx5J1Ag07F0Pklr1UjLxNrRoC5lYF15EcumrGUuVAqJ6VDgO2kg2NzLzqham1kWYfVeEmeOUxWlqYwiiAqByEMjr5LoopY2iytdS+lYLM4PdFIbalcoooU1hmFMnhWqwfUUcItP9fbhXPoOsth3PzeBYeZJZj0nNxfZOIBang0minpMilRzF/uCnGa9pwYk0KtILN9ITMqxXbaLH3KQhNHmGEJLEuhipayH/wnZm10aYuiTC7Nolx60kKqr7fLuo2EJzl8Qo/vNCSlI9UurL9+8f1hQC6bGTvqqS776xzw90kvvlRzH0MRzfJmtmsVwbz9GUXfRg2POnfF6RNtHAnkCzHKwbbmR0eQ9uZAVGZCWZWI+KGa0ISewkB3IBUCMi9Ze6GU/0kV69HC6OMf2OCNMXNx+XIFq2iSoQXRtXhNP5jVGC9ySY+lwjwRWyWUWNlyB7UePDVn5fBbN9YHasxsIbaqPw2M3YbhLDtSnqLkVDJ50fITBKJ486n3WSZCyb5K6HsV9yAX6kGWFVH090qRTQKogee7uwGS2XDellIrKKkRUNTL8uyuw7IhTWNR6fFT+FC1WFOIXS6My6GLmNUbwP1cI3uhECZqnuWeoP1fgqiB590BSOAmnZoTZyQ2KHbiMrRDCDfarCZ3DdS8iOP4bjjWE5FgXDpmRoJAsj+OYJVDL5YCJzYKfRbY0JKSz1xa8TRHuxo42k461occliOvYgcrL3QSgJLUXYvJpMpIeJ+gXkn72Q2YuWYr1TmO2fJMxpLnxI0cpVouPpQuFDFedYDTMbalAg+s4I3qcWIra2YyVdVe+7D6xL/SH1oLWtBXerOPgasYd6sAfXMNO/EP3eb+KajxC443i2rviKLc/C9HVMXzt5JFHH1kgFFqanYd/6E4yVzyNZ28pEQmqgV3PnKwHArUgH0qQvUi4kXdfMRGs9029agf9O8dCHQev7v5btjbHKVPcVoXRMASjrEsysjZJ7X4zpr4nk2VMF0Qpgrxfe1sn+DgWgzhUt5AYbKW5pIehfifffa/BHrsNzRvDdjOIpdh0XxxXWOA3bO4lA1JbAWM8lGehYO+4j9f4Psae+i1RNK16VlLkiJHGRQiVSQoutIBNrJR3rY3RRC9mXLmdS6rPvlTrLwCmvc8BaiVLoeuFEjaoMpVlh5r84zozEhn50AWzqRQLqqxLhPonwWI1FyFfQrgixnW1N5Iaa4LKl5Da1Yd32QVztARzxyqusSA/X9vBsK3QsOScRiGZNT1UAHc3rTKdH2XPN9xnpfi5WXOjwqoXsKkESNaVsS6SNTHyJAtFM5Awm6laTOrUB3iYB9zXMqlpL8ncZSCtUAp0DdZUssDHs6+zaGPl3RJj9QhNTg734w9U40GMFnPvfV2JzWyn29+JdIdlJLfC95QTDZ6A/8j+YThrbtbBsIRsREHUR6s3AlnJEJxGITmpeOBCezpShM7b9XrS3vw8z1kU6UQXRygDRrhBEY8vRYuKpP51UbCW7ltQz9YpligV+5qIaWF/H7NrEnGRa2SBauiRM8VTxoRtjuB+Kw6aVFIc7yQ4feylsfzA5WfszRz3Y30sw3EZBvPGbughufBt68vcYnqNCmmzHwXEcXNtWnBxSz03awfwxf8rnFRniJB41LTCUV812LGw9jbVpmIn2c0kmqsH2lQGiHarqgJBlS9C9lHHJRFpVGqje1wobFjF7sdDj1SupVGyMFetQmpNEp6Xg3vqECm1yhVDlP5uYHOxVVT2LslkrwCZY7YMcHm3kBnsoDITE2Jltz8H7/XdwrCSWsn/OERs5AppCdiS586YC0z8FJA/2m4oEUcsz0YM0RSlkF9g4pkP2rrvQ3ngRmVgVRCsDRKUSaAcZIYeJ9GJFmzFjS5mobWR3Qze5N0v1zwZYKyBayz4QnSutXJF2UUlXFRKVKO6HapnevBpXwmcGWphSlHcnq/RXOc8dxue24Q93MbllJbn+VoyfvRln7Fd4prA0aYroXcjeVXPkf1LlU+yiUlHj8EujFQmiUsROKPFKukNgOqR8E9fYg/71b7Oz/dnsWdCBmWjFj7aTjnUxHpe66B0k480V4XSpBJA70n3YV7paQs6EaasdIyoE2u2ko50Yp66Aty1j+pIoJZFGL64LSyorkg8JgToGdHkSByphTBdHmV0nXvi5JkXo5LOLalTuvPneCIX/WsJsfxhUnx2UuMTOqiRaAZJ4brAbf6iHyYElTA+0k71iNe59XyXppwjMpALRiSBP1nuMUgq0/HZsAzzbx3RPoBpLBzsNcpbEd5nkTJfAcpkomKTzSYJf307ydRczWttGprYZo6aVPXViJ11JNtJNKtFUBdEKiaEdW7SEmVc2MrkuQekdNao+kapLv05qt4ut9BiBqHCdrpV6SSHRiLwKoKog+4tqKG6IYH80xuzlbUr6nBxoUwXpsoNV73xlmBI6lWd+sr+V0pZOcte9hWD0pxiuqcoM5a0kRjDBpP0YZDJY2Z1k7RST5iiut/vkkURLRhrH1TE9G8uxGc8ajBTSOM4o9je/gd3yDHY1NLNzQSOP17dhR3spRbrRYlVJ9EhLoId6faNuGeneRXBhE4V3RpgUT/e6OmaVRHqMHEzrxMQQ0t2VKe4ERBWASqbSRVGCSyJM/ucKSoMdyvMrJCNhNc+qJFoJIFpSHK5NFPpPIz/8bLK/G8Czd5DXUjhOnpwZYDs+gVFgUvPR3YJyMM3K5+5JxCdaNJNYXoZMYKpSp7ZnkQl0xgsa/h/uxHrDW9m1uIORhS2M1bRiRboxVNxi1XN/qCB3pL/nRptJndKK/5eNKm608K4Ik+tOYfYisZE+STbTUZFMY8xuTCh+UAWiZe7QOUm0tDZC8cP1qhyyN9SOvzX0BE9t6WBqSxVEKwJEBxuZGVhMbstpBDe8G2/sYZWVNKkL34aN4+1BD1JMFCZwRQAr7WIiKFDy7mMidwLVWDqYOu+6KUw/gya8oq5F0bAo6RaGb2LmJ0hdcRnp1ecppvussAnFunm8vgunSpNXMeYMV8WQ9pLsWQpvW0BR6rVvWBw6m1Rp5aOvzs+ul2D6kGRZqfHC2LQhsZc71H93BL7UTGlLN94VnfjD7aqS59SWdkW+XAkgcrL3QbgLioNLyH//XIz7r8QOdLKq8KXUlhdn9IPkM4+hBRrT2g4CfQzPASb+wITJyaPOi9TpznnVxMEkIEraImdajOV0MqmH0Ta8j/GlqylEukjGu3ioQQLxq577Iy1hHur1M5E2zJo+RhtOwX/+IkWPN7mxgekN9WHM6FGRPP8YqBV4zkmgkhs/vT7G5IYY+Q1Rsv+6AITUd7ALb6hDsTQJc72wNJ3s4FUpzy+OJXdrH7lb1+PZO9F9jbyZwRWhS9/J2K+/wMjN7yG9/Vp2/d+L4LGfMH73F3Fv/AS5nHjpTxLvfDJrK8lTwFP3DUzPoGgY5CyDjOuQydnoN/0fY887XwXgT8Q7GU90VEG0QpxKArR7Yh1oiWbSiWUkW5Yw+Zompi9JMKViMeuOjWNJAXc5eyp0KAmTfV5Il99dQ+n/SS62BNYLkHYyvaWD6S0h3Z0vgd0V4J0+2fuQ6+/G/+EF+DuvxvI15YAOLA3XyhC4aSb3XE/pvu9QSD2If+PLmb7xW4zc8WmKt34CLXsC1Z0/2GmQDlymNJspzVJB96nsvtPDsT0s28PwR9A++a8kl5+JluhG6tJrUalNHzaJYZz/tyafVxDIHKpEd7x+b3dNJ6nYcoxoExMLWtDOWcTM2lpVdnhqvXjnw4qa8hp67SXfPqqC3Y+Y537OsRTeU8A0wfSGBNl3xZn9VDOFzR1kt3aqcCZhC5rdLEDaTm6oDW9rFUSPFoAL1V1usEslOQjhSHGwldxQJ7mBLopbV1K4/d/I+lJHPoNvuXiupQQsyUjK7LkD8+GbMOxHMH/9UYxffAlj5Gr0+/6NsamTKMTpQCDrOTolw8RwLMZ2PsDEay+i0LAKK9rKSH0fbqQTO9KJOfcq761IJ+lYB6lYlULvaIFyKtapDi05yPRYO6nly8m+eDlT6+qVfVRsk1NCN7deyD4iYfzmRXFK609RAHtkgDTC7MYIpXcI2UgcLq5hZm2c3KWnEFzep9T4owUU1fscwEQy0I43tBJ/qIuZLe2UBpfjXNGLM3Aq+WtfSSY9iu8ZeK6OML6Fpr/QBGhbSUxTCtKl0LQRfC+D56bRtRE8L3PyqPMHAlHf0fFcE890QNPJ/Pi/MU9/IVZNJ0ZtlwLLiXiHUu/lVYt1YkRDUBXp9GiByMl+HzmwJPBegWi0i7H6FUz0NTD52qUqTlQK2pUumQMz8dZfGGH2ojiTEph/hOyls8LStDGqeEKFFGVqfYz8+2uZ+opQ3QlfaNUDXwngLsQiUrNqctPZ5IZXkB+U1oJx1dnk7/8+vie2zbLfZP9XxxagzODYaTxXw/M0LCtF4Is2WwVRdYrIwAjPaE53KGZsNHsPo5/5FO6SM7Br2piItTMe72A00cFIIgTTTKwTJxK2kx3cjtbzhyAq7PeSzdRLMtbByOIl2GcvhTcvYXpjhOI7QiCdFdq8i+LMXiyF4o5cDKlkKIn0y4VyvyjZd0fJfn6Z8sZXAfQAkuFRtgULiE4OtDC5eRXBUC+F4cXkhtuw7/gXfFtDtFGRQj1XgHF/SdS1daSJoCXCmGPJ90NzoC2205PFsXSgB/VFhPd0PNPCdjzSOZPx3XeTe81FaA1dqi69FetW0mcq3qnKLYtEKiq9AOnRApGT/T6S+qlFwvx6M9KncuzHE+2kVzRSfOEyuLCGyQ1RChsjTItKf1GtAlEB1yMliUps6NSGOnh7nJm1EfIfbyB7mcSDhmUmikcZLCpB6qvEPkh+vKTaeluXUxQVfrAF5/o3kks+TiZvKQB1BUxdkUKfAKJzefKSKy/NsYSAxFavrn0SeecPBKJlOivdN7Fch3TgoOUy5G++lvGzX0Kyrhsn0UMu0oMb60YAdCwuVG3iva+C6NECd6lJn5GQM1WLSbgNVpOJ9pKuacPsWsbU3yxj9qIGShsiyj4pjE9CmTdzJEF0fYzShloV0lT8QIKprzYrb7y3VaSwquOoUgB1ZnMHznAPxpXNFIeX4217Ffntt2DlTLTs/ur7H6v1ApQhgD756z4n9YFw5ul8VpEEJAd6AAmslcHJZMXmkcHyHHzTIp0do3j5Zh7sOJU9C3twIl34kk8f7VAqvtjmqpLo0bQJr1TRElq0RdlGtWgvWrQPTRx89c04p7cx+/rlTKsA+Agza+uYWVuj1PwjJYnOro9RWB/De3+c4heWM71JSiCH8aC5ocpRZysFzI5VPyTlNjvchjfchb6th/zvhvDMPJncLhxV4uNAQCogeqBWBdEwpMG2MYNxHH+M6bSOZTqYgU3G3oX3vnfw2+ZuJmq7sCOhep+KtuNEOvCqkuhRM2eYkdPUvdIxKTDYTDrWSSYm/AbC8tTLxCldOOctYOrCCNMbIsysq1VAKiU6jhSISghV6ZIY2U8vprCpk9JAp/L+SlqnsDTlB6vs9ccKOOff19rawczAIqYuX0b255fimQ+pUEfb0fFdIRE5EIge7LMqiCpOQE9OGjfkDcyZOraqoWKhBzrJPXeRef1GHlm4UrE9+bGQMk+o2sLqlEdTGjt572VEuhWIil1Ui7btF6NriHRa00Vyxf+fefKSVmYvmgPS9fWULlwIF50CFy+YK18c8o/OCtBuiCDS5IFAVj5XbUOc2Q0JpoTybr1U7kxQlBryH69h9ltSOz4MqC8MiDTaibwWqiB6VBIKspJ1NLRKJTRMDTQxPSC2TzGtdOAP9cKWBN6WdrSb30tWewDbE61zgkC8666ELx1+IPxzrnncqfMHe1jPHCd1/y8xz3sNRkJo8prREy1KErWi1XLLR8smeqD7CO+okehgrK6LsY4VFC9YzOzaCNPrYkytXc7MxQuZXVu3F0QFQEMQlWD8A0uqCmTF2y/sTOtqmF4XxqMWL6mh8MF6pr7RyMzlHRS2SEB3GFgv2UkSXC+q/XyJqPr3kTFxSCB9MNhLSTzwA43khztwh3uUNjDdv0JJoPbVr6KU/Cl2YCClPrKWrjzzUrnzYBhwtD8/4UDUt03S9h6c267F7X4h6ZouNHFmRFuUk+NAm7v62dGSnHvIxNtJ1i1mdGET6Z42eE2jcixNblgcqvciea6Pq2B89bpBJEyRRA/svd8LoheH1HYzYgd9ZwLv/bXwxXamN3dSEvW9vx1/jmy5CqJHBiyf6hAS7/t0fzPT/cspDLZgX7Ea88ozKQx3wmV16Ff+DWwfIm8/junkcK0cWdPBk2xFJ6iC6JE+JRxD7KUmhrub5DXbyC59FrlIKJFmYi1HzSZYBeSnBmRN6jHF29FqFqMl2hmvXYmxuoPZN65AUkKn3xFRbUrl2tcxvb5OqeQhgB4MRBOhBHuhMNVHmLokivf+GKUvtDB7WZ9S20UC9YfCFtpCyyp9VRJ9KuA7nP+XGNDZ/hUqIiIY7kRoB7NDHfgDPfhDZ5J9+AqKzmNYjonp5PEtXzE1OY6L6fpVED3SIJo3PHKmw2gxg6dtJ7vpcuxTzkFPdGBIqJOUrii3agbTMTlUpLhdWlUIlfhdYd7qY6R2FfYzO+HtYRmR6fURSuskDbSOyQ0CoqKeS379wUF05qIYUvJ4an0E710RSv+2FAZWURjqVSqjAGcw1yQne59dtApjGKJOAAAgAElEQVSihxMsn+paKpB+oBV7eLUKZZre1ACbF6MNPhf7/q9hOcLOZKJ5rooF91WlTrGH6kj9tSONIU/3+iegOm+RtSwmdQvHzWCmHmHXN77E+ClnIvncewFUgLQKoscERFXYkyKIWYUllHnRDtKxs9hZ10z22TXw1iXw1gZm1i5gSuI6N4pzSMp6HAKIXiykyzWU3pHAfneEwmcXw+Zepb5nt3bvBVEBUpFIRZVXTqWqY+no2YMHOggGe7CHTyUY6lJSabBpJcGvP0vG3kkq66D5lmJvk+wk38moJjzDjpuqgujTRfmn+30jSBHYOqQcTNdm+1Qad/QBJv7j84yuOBuzCp7HBDj/2Lwhh1h4kAmICseBqPbpuia8v1gAb+mEty5kWlI1N8555oWFaa04jQ7gXLq4hqmNNVjvjBB8ajGzm3oVUAZbOwgkqL7siZ/3KkCqwLTqnT8qQCreeX+oj9Kg5Mi3kB5+NvZvPkdWvw/DczE8W5UHCuyM2svCUO+oap1a6KGveuePbHiCkR2nYKbxbDnNPCbyFpo3yvT9v8H5p0vRlp2pKoSG1HiiSpaJnIWkRGqp72vl938MAE9t76t+9+BjY0R6wnGOrpgD9C702FKsWBN25Bx2Lo2Qfe4SeMtyZtZFmBIb6caIUtFZm5gHoqGjaa/Hfm2U6bUxshtjFD+5jNnv9SkV3hsOS31I/rV44ctNQpukCYCKVFoNcTp8DiYJls8PtlPs75gbY6lZJdeXse4jN9wD/aeQH+7B/fU/Y5sPoPsOgZVRXvisrZG30mQtE9f2cRwf37aQ/z9dwepIf/+EU+cPNGDOo/cz8i+fZHv3c0jV9ZBOtFJ2NmnxPrxIl6LSE/CUFNFg7r3wlAqVXhUgj84YSCjaxMJTCJ63hOm3Lwyp6y6JKu/9rNDXzZGUiKNpUohMNkZVKJPkxDvvi5D7zALo70WcFu7WdgIBz4E2pvurqZ1PZac83P9P/bARf2sLs5d3MrWpG2+4DWdbK/mBPmYv62Fq8zL0K9eg/+pj5JN3E1gevuWRc6ScR+UB5YFw5aQC0byZInj4LpKf/Axa5/OwEj1KhUwmWpmoaVfkJcI+NB5rJxkNnVACpiE/6dEBkCpQi7NpNelEGzsW12A/bxFTbzmF2fU1iguUuRCn4iVxShtrFHEJb6thcl0tzvsWkP3cIrism+ktneSHugiGxfMb1koSID3cYFG93pNLr/n+UxVg5odaCLYuwb9iGbmhJqRelRAta//9bNyf/zvTo78n645gZneqoHrfmFZa5IFAq9I+O6lA1HQNDD+DuedBzE/9B/mOF2PUrWTXglZ0lZoY5tkLYclovF2Rl2jRTiWdCrlzFeCOzkFiR07FjJ5KMtHO6OKlWGuWMPvGxWGc6IYwgyn/DgHRenhbPfxdLdl31WF8oUnR2k3OqeyTwoQ+Vx9JVEtpVdA7OmPA5c0Ut5yKvXUl7rZllAaXMbO5R6n2xlXnoP32i0yN/Z6sHmC4Hlp2XFX49c3JKohW2ikxvz+mYzERSJ69TnbkEeyvfAPj9Jdi1PaiJVqV00ko86RlnkCjVwXRowOgclBJ2JMd6cWKnIoWW8XYokb0Z5zC5OuXMLNevPURJlUwfo1S8afeU8Pk51eQ6+/CH5b4zw4K/R1MDXQyqWxyHeSGJD++GsJ0tA6RaSlrvHUpztZuipvPgst6KfV3YP7oxbi/+zK59Hay9jiWY6E7BUyniGfb5OyqOl9xRt/5IGq5No7tq+wHw9dIGdtxNm2mcO5rmFiwmkyiCy/aTSHSjR/tUZKoSKRiExVgrUqiRwlIY0uwoi24kdU4EQlN62XPKctInb6M3KsbKayvZ1rqNW2IkfuHBIUvLWNyi7DTt6haSFLqWKRO2bRlqVQcGqEH/uhIYkcLrCr1Pv7WRrxtK5QpZfLyPkqb+nB/9HK8+/vJZpKKSEjYlhzXVHvSswJylkbR3hWGM1WYB34+jjzx75NKnRfiEokhlWB803UwAhPb2oPz46uxX7mBh1cIaYk4lLrJRrpJRzuUWi8gWuUiPUoAGukgHV+qzCtmtAsrIpR6fSRrOhhtaCG5qgnrghXk1jURfHQ5ua83K8DMST3ygTbyQ22qsFyouoee4dAb30Wpv6uqzh8lk4Z3RSPBwBnkB0/D2rYC84YLyD90DYFmYLkSwy1e9yyelcW3dQJnjJw9rgrOKYKhKoge2TCmJ54Eh/redzR8R8KfTOUNFGZ8XSbLTZG88+doay/i/paVpBMhC35mHhdpVZ0/eiCainepxIhMrJ1MrE3R5+mxLvR4L6kFHSTP7sT/wHPwv/NsnMGVYXhSfyfZgT6m+tuZVA6kNqW+S1B9sb+LqS3ibKqC6NGSXEv9q5kcWo53RRPuzzfg7L4dy/HRXQ3LH8HypNyxr8KXPCeD543iulIbKY/EhR7qnq6E751UkmjIQyg1V0w828KxpcSIiaSVZYIMmQdux/2vr7CrdQ0TtR3sqW9mT10LekIInntUXXsn2oEbkQJsraTiLUxIbfVY07x406MHNsereUFoCY25InbiuJuIdTCW6CQZ70KTonaJNkZqOkjFe/AjfdixHnbXt5GsbcLueQ7WJ/8L/zc/JXPPl9CvOo/s0DKyW5twh3op9ncyOSAVIpvIDUmYTauyk0pmTBgLWlXnDxVIi/3dqmBcfqgV8bLnhlrVGOYGein09yrWq+xw+H/xus9uWsF0/1KkzEp+yxkYW59L8XefJTd+F47roHm2ykKSPeeo+kjCyCRpnHpIbSn/d6Q2fOWldh4IrE8yED2whKx5FvrIoxhX/zfJF16AJTbSmg7sRDtWvB0/0s6eunYea+hgoqYDP9JBNtKOFmutgujTSKGV3PlMtE0dSkKULVUIQtVdiLQ7Gavpwol3E0Q6lYd+bEEnEwt6mHjR+dgDl+HufJS8PYLhPIL5yBUUf/hauKwDCaoPBrvJixNpoInsVvlfl8qTnxwQ1qCmqjr/dNT5AZHcxRk3H0SFQrCH7GCPAlSR7qe3SE2k5diDXeT6T2NqyyKsH78OHt5MMfOwUt1NT2qjZZTn3bMrj0TkQCB5sM+qIDrP9uJYAbs9E9MYx/zdbXgf+Aje4jOxJIa0rpWkkJhEO0kluhiv6cKKdisJNRXt2o90+HiVEI9Wv6X2UhlE5RDKRcIDyoi1kYm3KYeSVGgdaWjCjC4lu2glxtr3YP32l+xx97BrUlS/UaXyOabL1KN3MXXdP+JvXcXslkUUh9vRt56GOXyqCrJncyMzm0Wt762C6NMAUZFAy7WnhGtVtcE2igpUw/pUk5tXM71pFcXNvbhXNDOxrZvizR+gNHEjeedxdMdF93LYrtg9J8jawgvqHFfqehVE54HkwQajkHaY0Xx252yMwMAZeQjtik3sfvZLGa8TwJQSF21KIi1GOphItPHoAinP3INW9d4fcvSCNVfvSlR6yRqbSDQxVtPM7voWdjS0osW72bOwCy3WgtH3bLLf+TrB7gfRHINkEKAHAUbWomQnyZo2u/0SKecxZu79DyavOJPsli6KQz0U+9uY6hcg6MQePh1r+MwqiD4tEG1Warykxk72dzO1pUuVMi4NrqA4tJT88HIkqH7y8jVMbW4k94NnUHjguxjmI9hZi4yXJeVNYrg5ApXGGYKohDIdbC8eT59XJdF5IDujpdCyGkVdvPe+qiY6nZnAu+dXjP39PzG2dLWKYXRjbUw0tLC7oZFMjYTitCJ2vqMlyR3v9/EjXSr6IZloY2d9E7trV6g6TGa0DUtKLdc3o0c7eezt60k++ltMJ4VrSSSFQU7PUtLyTJqjZJ0kad9jT8EgWRjHstPkUzfj3vQuit9uhstPwRvoIH3laehbW8htXVYF0acBotnhJhXtINEN4pibVNJ8C4WhRnJbl1BQGUhS0qML/5YPUhj5LY49ginEyXagCJRlHwlResFKqVx4KTJpuWL3PLBp7Xj6vAqi8yZzrDgG2gSGb5IOPFKui284TE3o6MZOkj/awshzzieZ6GTPgmZG6pfhx5uYirUh0tXxDm5Hq/9upEvZQcdr2hitacZJtDEV6WYy0kdOCtz1rSH7owECdwzP8nHMAnlD7GgaqfyYUgsLhoXuZZnIegROikkjg+7mGPdd3GCcYOePGLvyVeS3tDG7OU5pKE7uiiVVEH06IDo0F2870MZkv5C3dJAfkGSGbvJb+ij1t2Jcey7+9q1Yrk4qKGE7MxQ0k0ndIC9kIm5SHXZCCpQ3DRzHUcLJ8QSSB+trFUTngWjJMBktmMqDaLkGKV9nxMtg2SaMa+h+mrHUA4x+5lNYHc/GqO/i8UWtTCxoQ49WQfRQQdiMdGFEu0jH2tBjLTjinW9YyW9Wnkv6wx8jZW0HPQNjGqWMQ6DbpLI2WtYgcPdgZEfJuDOYTgHPTePaNr6Zo2jqZO0UY8EUO0rg2o9SvO2D5DZ1q0qe4vg4VM909XviLFqpEhRKgy2ICp8bbMYd7EUbOBP9yudSvP2TTGqPkyroTOQMPCcgZ5pkHQvZS0JlZ/lJlRMfWKZKchGpVMiVDwZMx9PnVRCdB6K2nSdrZlVF0ZydYcZIkdfG0XIZdgQarpFD8u/t7B6cX11L+sJ16G1rGG3oUVlNSqVXYFpW7SXLqdxCij1hiHoyir35FHzzyaKFsu9Qwelofi/sb/ucGaP8vPtoBPc9d5jpVX4+RT0YDR10Ml5mTRdjLWcy9taL8H99PY9PP4zuTbLb89hdtJgoZTD9cUpGhpLuqOBsoUbL2hlyloTEOKRyGdJZDc8sknUMiuYIeWME07dJ513ciV+SvWEDM4NnUBzsIq9qzUu9+bDmvPJAK8eJZD0JSYn8v5zh1EFhoD3MwS87V+bel/Pyjx/AFU/7/DYv3EuK9JU5Vud4VbODq8kPdqlwseLgMvyhNuzvryF34xso7dqGkfXIWg6TRpbATmMGj+L6IwSGTdb0sV2LTFZXBMsSuiR1knJWRmkOxxNIHqyvVRCdB6IHGixh2BbjuJykhmeRzEl8aRLt6qu57+8uwW59JkZ9B6k6YYRqIVnbQbKml0z8VDLR1Sr7ScJ5SpEwrdSOdCEeaKnHbij1VkJ6eshGJDayBzPSTTLWxXi8MtNNnYg42JpxIs2YkRYVNxvGfgrrVRdG5FSMyCqVbaTFe1S4mJVoJ1XTTKqmEbuhE6PtWYy+Zh2ZH12N6Y2TzqUp2Bm8Q5yTJ5+v/euOO1YGV3FQ6rjbb2T62tdibzsPe9sZmMMdOMIyJKDa38d0/zImB5apVEV36yrc4VVkB3uZ7G8PHVQD3SqNdGZLK7NbmsKQqaFGgq3igKlMhqgyZ0BYDqWL7JA0OSCET6CJ7PBycgNt5Lb0Ueg/g9zm1eSGepD4T3dbK9mhFvXM+aE1uNeuxX/8B+jZJKls5RWMe/L1cORtr1UQPcQNK2z5JUNjNmNQ0m0M1yKdk9IFY8yOPoK7bYgdb16LtvKF6A0rGatrY7ymiUyiCatGaq93Kg++BJTvqe1iV22XCi73pGhbrIukAKp8JyoAFKq7ovKGEl3lSaOSEit9lpIrqgnnalSiF0RN72I81oIWbVWRDBJPm0q0s6u+jVRDD37nc0m/fh0j/zPIqPkoqXx4OPmmQdr/cxf9/iAqdlRpjp3B9iXgO4P12P/g/eTtTF9xOmyWAPEmgoEWjK2rcbb2KsmLLQ1Im+lfruIh3eFuxUbkX9FIdrhVSWiF/j6K/asobllNQcVUzpPsnobt8UhKsjObVjO9eSXTm/uY2tITcglIMsJAK9ObxfnWzPTmcuniJeSuWIw3uAxvSFJo27F/8EwyN1+M9chWSuYIBdOjoOydxxfn55EE2CqIHiKISpyb7WmUdIPpjKiVDsm8w+5cmpHsODtnTAx7lOCqq8m/5b3kznop1tJexuuXkaxvZFwycGIhufNEQgLKQylUAs3Tc4xRo1KLPdGxl4JPAs8rNd3UjvTgRPoQlvp0tJv0HPtVNtKpqqsm40vJxJeTTLQwUt/F+IqzyJx7Pqm3X4IzOEBu92MYboqxrIkWeKEDyXFJ+uUslj8VTJ8IojqOreGpImcOSb+I7QXktcfIPbQV96ZLyP/gPKaGhGWoCQnKnxpspjTQSFHKVwy2qGDz3FBLmMK4tR13q5AM9xEM9lEc6FapphWr2g8vIT+8hMLwUgpDy5RnPT/UrLKP8v3d5BXz1QrsbUuwtzXhDXYwOdQH207DvmEtkw9uYtrcienlSHo5DNshp5uIY+9IAtPxdO0qiB4iiBq+zkRew/QkZdTBsl00SWVzTWzPxDd9xcztBAaGt4eJX15D8tKP4bzs9Zgdz0KX4PxIu0oZtWMdZGraGU+0kIo3Y8U6MZUE16E8/8l4hyKIFuaoSgVRU4GmVAIIqwE4YruNtZNKtDJe26oyucTeqbeeS+alb2LXpZ9k9JZrsLTtpAppRvIGWcOCpMtkxg05JF0pMqgfVnVewLMsiQZWUoVGObZOys2T8YrkrHGKj1+Ff/uHKf34fPLb1pCTyqD9XSpQvzgoZS7CUheS2ij/l4ydYLhbMeZLrGRpeOEc4FaeJKpfuRxr23JcJUELWYuYLnrID6zGumIV2pWd+IPNTG5pZGbb6eSueQPmHV/G2/ErCrpPwbLImmkCx8K1PWzXUc4iyxuvgugcdlRB9BBBVOx00oR9xvQsNN/B8By1+eVUzqlSzR5Z00Uo95IFnUx2AuO+u0h/6zLsiy8h+dzzGWs8i1RtD0ZNF2Zc4iKb8SIdiL3UjnZiq/xxyegRCr72ivT6i5NorKZVxXiOqpz2dtI1ksnVyUSiC3vZWYw+79Xo6z7I+De+SfruX5C1J8i5QvwidXQccqZF3gwrs8qY2p6YRtIUzdRhBdGQLyGUTj03heeNhbnZVlaxCLmOZM+E+dvBxK1Y930b72cfIP/Dv2Jy8HSmNrcrmj2h2mPTMma2rGByQNJHW+YYo9rJzVHvHUm1/E+9djB4Orn+VYqsenpzO2xuY2ZTO9ObOylt6aQwvJrij15O7qcfxL97GH/sQcVutqfgqGB5ywlUhpE4hHL2BL4j3nYNW1iYDnHvnOjfq4LoIS6EvGkykzHDWDcFpKaqga34EF0T3TfUezmpdalY6LtYvkva05V33554COOn12J+4StYF/09xnmvIt14DnqsV6WTCou7nujEiraHtdhVbfY2UhIGVCEe+vlRAyJxputasGLt2NFetCVnkzz3AsYuei/2f3yZx392A/6exyh5Gr6ZVkXGPMsla/iKijBQtcRDcBMpX7y4eqDhuH+ure2P1fkykNquge6HJBghFZs75+3P4jgenquR81PkzEfwdt6Ad9eXKfx0IzM//EuKA6fhzNWtLww0K9W/NNhGYaAvpHwb6KnI8CkGuqC/Hba0MLW5ScXNZredSv5//4LCT99O4c6vUnz0JnKZUSxhNZO17Y7iuI/h+TtwPfk7g+OKJOooQM1aNoFVVefLh0MVRA8RRENpxcKZY33KWxoFUxwiGqavYXspbE8Wm6EAQ77vuGHcYk5P4Qh3ouPhG2msHQ+SvvH/0L/+dbR3/yOZF/0VuzvPYHeDOGdaEdVYVP90tI1khYBoGKK0L1JAqxHv+lmYL/xrjHe+n/TXvkHqumswH3mQnJHByzp4puRLWxiugeaHErwwmUsMrunJoRPaPUOOVxvfchSY/XksPk8NoiGYyj1lHi0Vr6ho2CTywrLJGxaBcM3aHlbgY/tJPO13uDuuxrr3/+He+g84P34j/hXnqlCo0pYllAaWo1iOKsSR9ESJNTewkKzEeH7/DLL/dwHeLR/Cuee7ONt/gpt+FNeVeciosjmGp2NZBhLTmdMzeyX0cIwsPNtTKr3sAffPPuz+VJt35f2uCqKHCKKhGm9iuaZSN8V2l7ck7ElXYCmLSpi5C6aBZwtI6NhuRmVtFPQMnumrRWgL/Z5n4HkS5ziOteMPOLfegnnlf5P6jy8zuu69jL3oVYy0PoOJ2naElEMX1V7IORRBR4tKkczEG9HiTbixToJoD35UGJCEoq8NQ1pUfteqgFjAWFpGbLFxcW61kxa7a6IVLdFMJtaMFm/BiAtbVYcyKVjiYV/QhJFoIYi048W60ZrOYeIFf8PEukvIfO7fsYa3Yd16E+bj92O5E1hZHccxyIqaLrXCXQvLKxPwSraKEPKGr3KKC4iKWihSjTKJmHZoG1Xq9eHfLEKBKGV3fUdMBxnVJHQtBO2wH74pZMFS59zGdC1lAzd96WeSIHUv3q5b8P8wRHDXp/F//nbs689D+1EX3talZAdOITcgDpwmcgPNFIY6yPULo1Qn+WFhl+omJ5R8EmI010J6vs59MZoqVlNiNsOW728nNzhHNC2UdEL+Ic6uoRaK0gal7HOPchBlt3QSbAl5VQvDZ8BVzyV920dw7v4i2UeGCXbfjJ/6A54c/G4Wy5VYTpE8DUzleNOxHREC5LCXMsU2ru0qFvpw3DTF+SkSvZLkD3HvlCW2E/W1CqIVsBD0wMXMOujaGOlH7yPzyxsxr7oC41tfJfnxS9HffBEjz/srxnv+gvTi0zATPSrN1JbA/kSbIvHQalpIxwRYV6DHVmDGG7HiwoK0EiO6Ej3SNxezuRItvpJ0fCWZmk4ytRK72c6E2DTrexmr7SXZcBpBx3k8/LzzGXvTxRgf/QTmt75N+n+vYvTOWxl77F70zAi+a6l2om6O/Z7LFW0jqcBDJDJfC+t0FR/7GaUHv8/kvV8hf+fH8G7cgHv13+BvW0O+v43JyxuY2VRHof8USgNLmBpczvRAIzP9zYTxpu1MDrZSGG7Z14YEgCX2tIn8YJNSx2f725ne0kppSzO5LU3k+pvIDjQqUM5feTaFH7+U/E1vJbj9I+Tu/y7BYz8mu+sXBMn7yZs7ybppPFeEAFsJArYrphM5QA7/YXWyXbMKohWwiESizdk6rpXB8Q1MiW2UzCgtRWb34xiP3kX6dz9H//lPsK7+Afb3Lsf+7H+S+ftLMV77NvSXXEDqOS9j9Mzz2N19DqOtZzLWeBrjy1ZhLW3FWtaKubwNs7Edq6ULt2sl+dVnEqx5KdYLXo/16oux3vNPpD/zOVJbvkPymm3ov7yW7M234917P8nRHYz6Gcby4kzzKehZFS+oNottIN7uE33jiFNRTDcipdp2DtMs4ZhT5MwSeS3AMnx03cRM7sHefQ/Z7bdQ+sNVTN3XT+FXX2bm5++ieNNFBNe9FvfHL8X+0bOxrjoD4we9+Nu6yA/v3wpbuylt62Xy+ytxrl6Nf82zCK7/a4Ib15K95VIKd3yN6buHCR65CnP0WpzkLbjp3+Dpj5C102QdySKaIu+MkrWTuJaGbYYZXkqKVOr4iT9vR2NdVkG0AkDUctIYbgbLNzGkmJ7jE1h5CnqBgp7H9k1cL9zEEm7ia2O46d2YEzvQdz5E+uHfoz1wL8a9d2H/5tf4d/yK4Be/xL/1Nuzb78S8/U6MO+5Ev/NO9N/+Bv3uu9Dv/R3a73+L8eBdmI/eg7nrQeyJ7djGbhx3AtsTb3qanGxIO6OamC4ETGxbx7Z0XNvY1ypgHI/khpFKCIER4FoOppdBy46h5Xah5bajZx8laz9OwdpFzt6F6+xSqcF6dg9j/g7GvV14mQxeagIvuRtv/BGC8d8TjN5FdvROvNE7cMb2NXv0lzhjt+OO3YE7fifeyAO44w/ipB7C0h/FsLeT8R4nFexQbPGGO4npFrHdAFuZIkKTk2RqiT3Td018x1U2eVHPVWUHRz6rgujhWDNVEK2AzS92Vok/1X2LjG+RFi7GIGyaL+QbFoYfOkMk7dRXhv3QpqgFPmk/R8bPoftZDC/A9ITGz0NqSAVzHlUJ5ZESDZbnYEp4li9gIDbLMMpAbGOOAnDhehRbmNg1UyrPWYUGuUlcP4Xjp5TDRTy2h2MBHj/XCL3T4ji0vBSWP47jTagYVAFY3xLHmNhVw3IzYnf1FFCllR3RUs7HUMMQEAtkfC2bnOWQN20K+zVr73v5zHbduSZzKO+lWcqeKVl0ZNLMaGV7vNg4bdKBQzJw5r4nYVyesslLjLNaQ+pArILo4Vh/VRCtABAV/tKS7lI0bCSUSthvJB7Pd8fJOhNM6uHmVEAbiGfUYErXYUJjStfISk6/FPty0jhqg6cwAmliwwsdX/IqsZjSLE9Xji9Tat64rmrC8SigK6E+5WY7ISekxAoK6UfO9JjUPGaSLgX95AtxkXELIzDSCiCFEFo0hVJ6Gi3QmShMqPx/ww8p3wIzS0ErUNSKyN+BJRqGQ1YYjSxxRKbJS/yskvQlkuOPm/A1OP6oim8VZnj5jbBVyZqY0mQO9h22Ap5yWKpIA8tQ0SNyUArgipNIyJAF8MPIkaot9HAAqFyjCqIVAKIibWZ8R0miApQCeAKKIZimEW+oFNMTz39RgaxIrSajORM9EOCcUM32J7D9ccxA2ihmMKYiCPKmTsHU1eYrGsIBoDMpTTcp6RZFI2ziIS83kYBcKWdrZRUAyN+am2Ukn+PxyRwTuROLWPdQNlTolZaiauKkSSpeUyn1G7ijzGQsSHmQdpjNmMxoOlN6mkkjScEexc49iJ17GCu7Q82LhMUZEk/sZtE8n4zvPWnTfFdpDEprUNKnow47OfBsx1fhdUYwjhFkVPKH6QaYTh5rrqkoEU+kYllToTlGpGlZZ9WA+cNzkFRBtAJANCfhUqaham6rIGY73Cghu77QjYWqvALbIFTFRS0r6DaBhE4poAsU/VjB8CjpocQoEq6YCKQJ85TU+xapRKQXkUhErRTwkNAj4QaQoHc90MkEOumsUJYlcd0kjnil/TRZN0NRTzGVTJJXcYSHZxEeCoAd6+8ox5KAkEhytquY20VSN10P3ZM5MdT4qTH0JahfKsiGTT7PZyCnzZDVS+pQkvkTMLO9tKKREwLjp2pysGiVb1AAACAASURBVIXZXTLeUnI4ow7PTDalkhNkfUiTtSM13AXgXW8EJ9g5Jzln8Nx9IV0CnrImxJRzrMf1RLh/FUQrAERPhIVUfYaT50CpzvX+c10F0SqIVqWR6hqoroE/Yw1UQfTPGLzqibz/iVwdj+p4nIxroAqiVRCtSiHVNVBRa6BsqxdAnv+3RBXsfS8xyhUyb1UQrZCJqJQFUe1H5WzOk3UuJD1Vnt1R3LKmyohz5oGmZMipVk74OMZ7uAqix3gCTtaNUn3uKlg/1RoQaVOaZWTQMhPoWgpdS6pmaCkFrsLb8FS/P9r/r4JoFUQrZjEe7cVfvV/lArlIobal8al//Tif/MSl/MvH/1m1b3zty+x4/BFFplIp81cF0SqI/kkgKnGT+5qoXyae6xD4Lp7n4PsOnmfjezaBZ8/7bvi7StkA1X5UHpCKqi78DJaZoaGhjlgsQiwatmee8wzuvOMXeJKFJep8BezfKohWwCRUwkJ4un1Qwed2mEnlORa7dj7OwEA/3/3ud/n2t7/Nt7/zLTZvvhzdEAIMCewPvxtmzVTG4n+6z1z9/tEBXJWE4BgYZoYFC+qIRCJ72znnnD0HosL7enT6c7B5r4JoFUT/pNN8LyjaIlla/PrOO3j+859Pd3e3aj09XaxZcw679+yccxBUQfRgm7H6eQiKVRCtgtKfBErH2wZ6Ioje/ovb6OnuJhaLKakhkYjR2LicnTsfV57Uvd9X+dtVSfR4m++j2d8qiFYaiCpJSex182LM5vdxjhPzqYiFladQfjvv9ypW7UiQEcs1y2Ebc/06Eou3/Ezq2uX7yDip0JJQTSqHmTzV/feC4pwkescvf7EXRKPRKNFoRIHo7t07lNq19/uHE0TL6tyRmAtZI/Pmozzn5bFT7+evoyf7e97YPhn36t65frLfPtX/5j2r6ovwH5TvI2FB8wmyy+PzVNd6uv+fdz25tzLTCFfpEz3l8773ZOtn7xjO21P7PYNwClTV+cqwVcgEykJVC2tuYhUYlidv3oL848kOgVMZuYUV3JIqlGXChnmAfJAF88fXfZKxmXcNuZ/q8xP6fUjXOdimmAOF8njst5ilbLHcc85Y73sHDiHZC4plEL19fxAVO5ZIort37zy8IFp+hnJfZezm5nF+LOHhGK8nrp3yuJVfD/kecwdUee3J79Q1yq/z5v9g1yzPmfqeGvu5A37uoJ8PRge71p/0+Vxf1bPMhSI9sU+Hel35naLlK6/1ufFQhDhVEH0SoDjYBj8Kn8+fbFnE5YW8b3GXQbLc//3fl38vr3s3WHkj/Bn9LwOWgID8va8/5X4codc5ACpvvPJ4KFA6iOfzWIKoHGgK7Mv9/zPG/kAbXsbDNqWshpQFCedAMfpLZMIh1F2X+VTr5InahQL9fUAagskhzvHcgSH9Lq/h8rqU/4lHW/oq/VNjdDjHZm4Mys9Uvu8T90N5rA40tvIbkWBV5Ib0dW4/qnGVA70Kooe4IA7nBD/FtWRyZKIKeZ/JUo7pqQJTkwX1dzZwQsDaK2Hu32+Z6MC3yWc9ioWAqVJ+7vd5SoUsWd9Rk68W01Nc40ALqfyZLJxc1lXXLBWzTE3mkddCzlf3KH/vz36dAx3pdzEfqDGQe5Wb/C+f89Qzy7gd6H7HCkRlLqWfMj4yn6ViTs1NLjj8/KYCFjL3cp9yk3mXe0mIzYHGpwyg0l/5TXmM5VX1u5BVYy1r51BAp3wv9X1Z67aBrN/ytdW6LuXVWMiaVUB3kDksX/NQXstrvLyf5q+fSZmDfKAEALlv2Mf9BZD591BzWAiQ38mekvGQ38vzyPeqkuhTgNn8Qfxz/n7i5s2kktxyyy1ce+21XHfddfzsZzdxw0+ux7alLpFDOp3k6quv4sIL38aznvUsVq1czemnn8H555/PZz/7Ge659y4sWWyeQZC10Y00rpTMsE3S6TS33fYLPviBf+DFL34Jp512GqtWreLcc8/lTW96E9/85jfZvn07lmVhmZoC61CSFDAW8t6Map6nqetbdliX3lOlPkxV41vqfN966y189KMf5WUve5m6R29vL2eddRZveMMb+Na3vsWuXbtwpLyH4/DYY49xww038JOf/ES9Xn/dtTxw/31YhoDe/IUr7zXknhJzZ5oapqlz55138plPf4ZXv+o1rFlzrnqelStX8oxnPIOXv/zlrF+/Xt3zvvvuIwg8NQ6ulD42M6oUdOCYmJlx7v7tr7n++uvDPlx/PV/96lfp6OhQjqVEIkFtbS3Nzc1s27ZN9VW+u69dx/U3XMvPbrmZ8fERFUsqZabDUsYybqYKb5FXU6RO2ViuyX2/v5v/+MK/8+pXv5pzzjlH9f30009X4/aP//iP3HbbbRhaRo2FqWfUpg7XWjgWqqaQbPI5E8RjjzzMzTfdtHftXP2/P+Cuu3+NpqfU3Dz88MP80z/9E89/3gs47dTTOfusc3jFS1/BZz/9GR68//cqKiGUoDQ8z1D99jwL05L67Zaaq6997Rv87ZvfwnOe8xz6+vpUn6Xvr3zlK/nIRz7CzTffjJYWadcKzSlSDM+R0ivlQ0y4ZB11PamfJE3XdW6//XY+9rGP8YpXvIIzzzxTXXfNmjW87nWvU2FmY2Njc/WWHHbv3s0111yzd83IPrnnnntwrLkxV+NhqMNT4ntvv/0X3HDDddx4442qyVobHR1VfRgfH2dwcJA3vP6NnHXWOaxedSrPfc55XHzhRfzf1f+LqWWwZS16BroxgR9I/w01j6Zl8MgjD/HNb36DN7/5zTzzmc/cO4fyHPI8d911l+q3YRhomqbWUTXE6TCD6hNB9Hd3/ZbTTz+NeDyuNnBtbYKly5bw8CMPccstN/Oyl/0ldXU1yP9jsSixWIJEPEE8HiOeiLF06Sm8573v5OFH7kc3pJxGOOF33PFLLrjgr0kkaojL92Py+5i6j9yrDBQCHJ/73OfYtXO7SlMz9TS+bCi1CcI63QKmtlTwlDrrjq4AIpkcY3jrIC980QtoaGhQ1ys/g1xbnDPyKk1A9fOf/zx79uxRwL1w4UL1ufSnJhHnEx+/lLHRPexvE9wHoqnUGFdf/UNe8pcvprY2fJ5EvIZYLBwzuZcs1PJzyXsBwWc9aw1f/sqX2LXrcfVsrqillsb2hx/g7W97i+pD6EQK+1ruf3mc6uvr9z5H+Xvha0QFUK9evZJr/u/qUBuYB6KqEJ6tqwNtfGKE235xC3/7ljfSsLCOREKcVjKPsb3zIX2Ve8v/n3/ec7nl5pvQ0il1XVH9PSmRYkv5FB1PQNQyyPouWzZdzsq+vr1j37Cwlje+6bWMj+/h05/5FA0LF1BTU4OMlcx/baKW+tp6nrVmDVdf9UN1jTKIymFlWhmSyVEFQLJ26urqqEnUkkjUqr7KXJbHpjy38rrmnDVs2bSZ0ZFdWGb6KUF0YmKCq6++Wh0acm35rTz3/Cb9lc/kAPviF79IKpViaGhI/U++L2Mk31+3bh0TYyPhwTUHoiJFZrMez3vec6mpDQ9C+X5bW5s6AH/+85/z4he/eN99Y3L/GhKxBHU1tXzmX/+Vsd27yUqpGVsjyFpq3cuh9MCD9/He972HZcuXqr1XnsMnvspcioBy//33q74vXrx4b4yorNFqnOhhANQ/BtHfcMYZp6vFKRMiYLl48SKuuuoHrFzVR21dDTW1cWpq4go0ZQElErLwYiRq4sTiEWpqY7z4JS/g/vvvUVLbNdf8mI7OdgU4svDKC7/8Gl4joTaY2mSJBG/52zfx6MMPKTUrdEIJiIVA5kp5Wk/HcXR1Iv/hoQf4+/e/j6amxr0bQPpUUyPXDDdGCPgxtWClDytWrFAL/8Mf/jCLFi3au5AViH7sUsZGdof21L3SaHjv0bHdfO3rX6GpeYUag1h8fwCKxvaBkjxXGZzkuWTMFjTU84IXnMftv7yVwLMIXJMdjz7IhW/7u/0Wd3kcpK+y2MvXkfdy3fnShDxbPB5l5cperr3mf8N+zwNRV0lzGiOju/ja179Ma1sTiZootXVxNZfhtcN+l+dCxk+1WIxFDQv413/5BKN7ds9Tu8PqllJmRaTprOdw+fe+Q19vr+qfXLO2Ns5rX/cqPvCBvw/XTU2chJqPcB5qEzXU19bylr99M9sffUQV83NtsecZ6HqanTsf40P/8AEWLWognogST4TAvm9cQwCTtSdrVSIY1H1ralm4oIEL3/YWdjz+sGKhny+JivT56KOPcumll7JkyRI19+XxLo9z+R5qDGpCAJS19MY3vpHvfOc76lAsz4V8d+PGjWTSE/uBqKzbXC7gL/7i2UiImnxP7tPa2sqXvvQlzj77bHWd8N5yGM+1aIzG5cu58frrMDNSAUG0prC2Vyo9xv/++CrkwAyBWdaV/E6uH46D2otz8yfPI+9FahcJuAqihwE0n6j6PxFE77n7LqUCl080mShZxGeeefqcJBECqCwKBaTxmAJOAZNwoQioyGKO8levPJ/rrruG7u5ONeF19bVqM8nCLC9SeZXFGC6E8G95X1dbw4Z1axkfHZkX8hECqecaCDBYlsZ9v7+HdesuZuHCfdKnSMQCKiHQhwAjGyz83z6wXrp0qVrQCxYs2AtS0UiEf/n4x0hNjIdljPeOuY5hJNnSv1kdKiKNy/MqEI3LBhfQqKF+QS319bUkamRBR8IWC+8t969fUMf557+M3Tu3KzubZ+tsf/h+3v62v1NAIOAoYy/jMn+MZDPIuJQ3bggaZcAOn3HVqj6uu/bH+0DU1lVtdzFxTEyM8fGPX6oyVuSwk/7L3EqT+VIAv6Au/P/cYSj9TcTixKMxGurr+dAH3k86JRU55yjVROIqS6Kew6bLvrc3LEv6W19fR0trczgeMicKCMN5KQP08qVL+OQnPqYAVJIMHAFRy+S+e+/hDW94nVp7cpCHB/Tc2lJrLnxm6aOM/d61F48ozUgkuWedew73/O5OHEekUSnzIRETBg8++KACPZHsRVILQSwc23BthvdRzz+3lsprSr4vZij5bXku5FUk0VRybD8QFTtrPp9Vkmi4X0KpViRbMfmU51Nea+Y0NAV6sRjnv/zl3Hv3XQSOhSvOOFsno00wMLiZxqYVodAyJ5CEgsITx6G8DyNqXUq/u7q6lJY2/wCuSqJ7N/j+DpwnAuWB3j8RRO+7527ELiaTKYMtm15tNiVFxFm4cAGyWZ/3/PN4yV++iBe9+AWcedbpClhCqSyy99SViWvvaFPSrCxI2QxLlp7C2WefxQtf+Hxe8pKXcN5556kFJSfk/EUlUsqC2jr+v/auOzqqal+TntAJBKQrgli5EHpockUURBFEir57BQREQBEQBbkUaQICIlIUkN5BCahIkRogdAwlgYQkkBBSZ5KZJHDfW2+t7/n99tkzk2FSgPC8LOePs86Uc3b97W//+l63ZjUscuqi1k8SSKksz0Bk1EXhQCmO20FHAUNAgC8er/sYmjZrjDZtWqF1mxAEBzcEI3/IebJtWoRzJCqC6LixY3Aj4boo9MW6KeOciqjICBF/BAD04vLyENejxo0b4pVXOomu+K23e8tn1tmgwbOoXLkS/PxUuwgqixcvVBuDcIvpuHrlIt5/b6CIeRT1eFWpUsXWPraV80E1BdUdXAz6Od6rV6+GGjWqoUWLZtize6cCUVM6CNBZJuqRzVJnyZIBxuIjB+oNbmqPVK2CJk2D0eXVznj77T7o1r0r2rQJQY0aVRFQ0k9ESwIp56N0yVL4as5smQ/q/wgS5ER55HSuNUuBaO1aBleoVBh+fhxntbmwjcGNG6JlSHO0aNEUjNtu/3xbhP74A6xZmbDwBM1MM65GR6Nf336oUKG8sVGrDZrl+Pn7oGat6lIOaa9Vq5bymTRJ2iL3y7ZWKFceCxd8jZTkBGSaCaKpMi7Xr8WJvpwgqC/SDz+TLmrVrilqF9JnSEhz+VyzZjWhaao+SGd8lnNCeuW88Orbt+8dnCjp9PbtXJkXblKazjSDwnIqVKgg+npGp/Fq1Kgh6jxWG1MnT0JSQryMLeeRdoafftqmAFRojwwHuVBf+Pn6oVJQIJ597mmRckh3HN/69euibNlSUPPOjdNPNgzdDt7dIPr/AKKcfA2iVatVAQFi+fJlOH36JKIuX8T5C2exZctG9O37T1Sr9ogBZhQ5KQJx0nzVbu/rLeLm++8PEnEkIuIsIiMjcfz4cSxZsgSvvvoqAgMDbcTpS27UxxetW4bIAuNhcI6GntTUZCxZ8q0ACImYejbRtXn5oHqNqnj99S5YsGAewsIOICYmCleiI+Xz1/PnikhGMCoKiApgSwacZGxYv8oAeopPJGJPVK1aBYMHD8S+/btBUSs7JxPZOVmiZrh8+SJ+2bkDk6dMwOvduuDJJ59A584vIyXlphjOuIFRFE5LTsAvP23HvHnzbNfo0aMFSNk3tpP1kXOeNm2a6HEdn6VhYd7Xc7Fs2RJERV5Q4C8Ap06kPHfunICvXvQEAAIHDRFTpk7GyVPhwtWz7TRanDt3CrO+nI4mTRoiwC8Avt5+8PHygY+XN56q/yROnQi3cY4FgagscD9/Af92z7fF3K/m4HDYQfwecQanzxzHTzt+xOaN6yRPQJaZCTBMyEhNw6wZM1Gjeg2hIbWxKk6TKpTub3TF/G/m4tDh/YiMPC80eOToIaxYuRRDhr6HZs0bI7BCBbz5Rg9cjrwoulsxSPJ0TosJG9evE1UOy9UcKMGMG9Obb76Jb775GofD9iMq6oKUf+jwPsz7erbQU1BQBZl/jh8vvn+vIMr6yY0OHToUW7duxcmTJ3Hu97M4cGAfli39DidPHBV9ueRGMKfiypUoYQKoTmOdrNvX1x+BgZWEGRkzdrSsq7PnTgmtnzlzAhs2rsGwYYMFmNlH9Y6vDczdIFoMAEqAKIwTJVBQPA0MLI+Roz5CTMwV4WzI3dD3jIYjWn2vREdhyJD3ERhYwSB+XzECcKJJMDVr1sCCBfNxI+mavMOdNSODZ75nwWq1Ijw8HF26dBGdjRAoQdjLGwF+foi8eFFO1FRASp89E06dPolXX33F0MdS9+gFL08f1H38CUyeMgmXIiOkXWybyUyrOnWoSg1AcW7MmDFCxCQsx53ZmRMVEBWfu1R8NvZjBdYieimd6ytdOuHU6eOi8KeRSy76Q/KzeCmYYM3ORHx8DNatW4Off94h4ycuTzxJUqzbqci2ZiI7O9t2hYWFiR5LLxiOYaVKlcQYxvFyfFZ9tsBqpVuScvEhd5iVkYJbVrPMi15ELI/jS30cDST0mqBqhGPDudTjxPZv3bpRLOgBvgHw9/GHl4cXypYug+EfDBORm+J3QSBKA5CPjx+aNGmCI0fCxDuBnhpqnFJhzTLUAuInTDHehGNhR/FC+w7w8aahRxm4KK5ygx73rzGIi49WFmrD95Ft5mWxmpGccgO/7voZo0aOxK6dvyI9lUcx01eYonwaMtKT0TqkpQ38OPccV+oLx44di4gI0oxZ6IbjQbrhnfMXFx+DTz8dJQYmvsdNTQMo73fLiZIDnTBhApKSksRbgHraTDIKWWbkZGcZKhklSeRaTZhIw1xJf1FrsG5fH1+UKVMO3bv3EI8E3VbOH8eXd3qtpKXdFI+Oli1b2hgUR3p3c6LFAKSFgSj1ZdTzUWyKibmsIiIMJ2ERdQ3fOYrcYYcPyYLRFngRN7yVHuiDYUOFSMR5mQtWgIlGBOPKNGHJku9Qr15dBYweXqKPI/ezZdMmWC2ZNv+/jPQUrFq1EhUrBorhiAtBcWrlMGXKFNBSTxcpAigv1sV6VZ102M5A7NUYjP54FMqVKwsvQyQjcbkCUeWnl4phQweJCEUCpkjGxd2nTy9ER1+GmUBgLGxuLrLBGHd+Zjtysi2yAWgHc9HT0cvATIfuNMOwQr2gCYcPHULt2rVloaoF6yH9jY+Pg9nEPvGoYV78rNQbVHGIR4FhHebcxl2NkgQmXPhc7Gw3F/D48eNlE1Pt5sJLleOCM7N4V0YMej98PulzlCtbXqzp9MLw8/VFcKNGiImOFtG7IBDlxkYuetmypaq9dAi3mGAVx/o0AVH2m1Zs1Q8TZs6YgWpVqxoeHEovXKpkSUyc8C/xaOAcEhjVXQVScKOTzc5w2k9NThLXIHo/0Hin9aG//LxdGAI9FjS4VA6qhBEfDUdsTLSMp0SZkb5JN6I2SgfdrPg9NTUJo0ePEr0yJTRlrKTusWggqg1fnM+WLZoLDZoymOeT7Wcd6iKTwLWVSTe4zDQkXruKZ555Gj7iCaLqpR6/bds2OHL0CCyWLDXvjLIy2ioeGUZkIF3rtm7dLMZdGufcIFoMwKmJjveigCh1Y1Omfi6O6rbnKR6J4cJI30ZxzJyB/3r7bRHfSFh6p6eu6UT4MVizzMqn0KZLYxmqDdSvnT9/TvSX1J96lighIOrt6Sl6uFs5VmWIycpAXGyM+BuSGMUSKfpaT3R+pSPOnD3pYEFWi8tVf7OzTAg7uB/t27WFt1g2FWfhDKKMAlHAlIqJE8baQE2BqI9wdBSx6Y9HH1pyRNnZmcK9WLPNItYrP1lasxWgKz0r/RftLltcLAJIMh4mhN1n2Ke412RnYu2aFaLD0wuH7aYP65kzZ0QKIIia6TKWz3X5cpSAuQJypf+j6EsRlPlOCwJRSjHkIHXSFM6Del6pGcSPlaAom2o64uOv4h//eNvQoStDGtvbqmULJF6PF9ohh02/VMc5df4sY2mMJ8smd56Ta0W/fu+IEYpl6vl7vm0bnDh2VOkeqUe2eWO4riM6OhKNGj0n3g3sn/b6KAonys2ea4KqlA+HDQFpWujf8LV17ge/09F/y+YN4kWg57CERwkEBVXEwkXzZeMm2Lt6V/8m/1tMou7g2rKV49aJFjxwegALu9tA0Vi8zoYlcqK0zu/du0s4QdvzLkA0N9uCMZ9+KpwOiZQLj4RTr149pdc0ZwjRUA9o5YLKQ+jp4sD+WtcuahHRr5PuGX+4WU2fOhm3c7OF+yAnE/H7GXGutoGot6f4PM6ePUNEOkfdqXP/uUj0QkxOSsD4cWNtrldsK5PVOhqWCKKsMyM9Cb/8vA3kAPic7hu/0+/0pZdekkX6yaejwHZ8v/w77NmzU/RqVkZyMfxUrM/KICOcp81lS3EcxQmi4l6Tk4URHw2ThasXDttOR2z6DVJ8PX8hQnwO6Xfo6oqMvCS+jOwv55Tv0z1s0qRJyMlWIJCfYYkWbRq7uLlwk+Rc5Aei3FjCj4XhhRfaixeFHmPWO3fOl4rrNhF8MyD+tQUAx50gysAPK554oq6AKDd4XtSdjvxoOLLECMe2OeRwyKf89PRkfD55PLzoBXCXIMq+EEQpCSxetAC3sq2iE6efrfPGIBt3poqiGvMJud8AG/hxTaq0iDEiuhcGouSiyZmePn1c1pamBd7d4nw+E+0MHAV9t4FiPiDKnatcuTI4f/73QkGU4uoXX0xHUFCQgAyJhsTaqlUr/Pt2rohsCkAVmDqDKKM7evfuKSIXwZNWYc8SHpg+bQpu5+YIl0BQ42KjTo/lkxNlG2vWqiY6vEIJity3sfNnZ5nFQfyRKlUEHNhWZ07UPnapiIu9LNE9jguc+kWtb+SiKl06AI9UrSxGtMaNG+HFji9gwMD+WL58Ka7FxSLbkiXjoMpVLlvkSIubE2X5DLHs3u01GSe9cDhm5CQZYcarQ4cO+PvfX8j34v98nn3m+LC/5KQGDRqE27dyDVB0bZ0nl9axYwckpyQJN8g25QeiDF0MDf0BDRs2EJcrekAQtKkOOHXyhBJ3CaL0Sy0kRNQViNLFizpFApCiGy/xaV2+bKn4uBJANW3a5/xORiUjIwX79u2Gl/fdgyjHj1elShXFwEWmg31REV931kWVBcOXe/XsDl8H3T39tHv27AFKOjbdewFY4Kg3fvTRWjYwdoNoAYNWEBE4/1cYiFKPU6ZMKVy6dEFFwjguBCdxniA6c+YMMYBoguFEMfzy37dyhJsgJ0GCtS0mB3Ge0R3UMdKVheK8AlJPTJ+aF0QPH9pv0xdyoRJEGzR4Brt2/yK6K+c+5vnO+gyOhoC8dcsmPOkQoeUSRPkO04mZUsAoEyrpyVFwMRJcCCwKWLUfo90vlG2jYY6BCl06d8bWzZtFN+qoF1W6UQNgjM3sfsV5ctyM23++XStZuBpENTfJ9qo205mf7myuL48SSufH9/S75Ip69+5dKIh6eJYQEE1JvWkTk23zTinEkGaEBi0mrF2zSrhFAh3bRhqixwZ9hcX9yaYG0u5udwIP59oViJJ+Wa66uPF6iVrj150/i4QgACpjX3DZDJu9dClCIvNUWUXXibI/nAdywJs2rkeO1aIAlJu6q/XMDcNiRocX2uXZCElPH434ULxAxHhZSPIWPkNJ6NYtK9q2be0G0TyA4Grg7/K3wkCUk05xvqggOmOGAlG96BxB1GbNtS2GvDpRgmjvPr3g6+ctHCG5UHKjSpzPUeJglgkH/3ADqVGjhiwypRP1RHDw37B376+ij1Q6R9cLjGJlZnqqgDijbLb9sAXPPP2UECmJ3CWIypgqrpHxx7ScUwdGscwRTPXC15yOAngVMcJ2lgoIQHDDhvhu8WJZQAKkFHNJ5HpMigFEdf+Z5KVN6xZ5QJTzocDTS8Dfz4/cGQErv0tJE3pTZN8Ioj169MCt3BxjM3TNiXIDfrFjB6TQSm7oGvMDUer+Vq9arkRuOtAbGxTDLW8mJdqNWMY4FbQO7gBRczouXjxvA1E9P88++wz27d0junpR8YhONB+6MdYVJZ0r0ZdQrlwpFWghoc9FNSwpfWSF8uUNEM2SDZ3qiTtAVDZuGiMzZSMk/XDuePGIj9GfjBL9O/XtFNcLGg/5n4bNXItIRroc3t3i/F0CpquBfhhB9EjYQdStW9cGouQInqj/uPhkinWygHHR/SVocZdfu3oVateyi6uFgahOWMG4fXKG+QAAFzpJREFU+927d2P48OEIDg4WxT8XpwYbgqsGWG4o/I9+r2VLl0azJk2xd/du4YDMGbRMK52YAEwxgKgYw0xKFOz0cgdReeiFw7ZQ/UBjH/1OGfZYukyp/K/SpeVZPs+LQRHkDhnmmJuTXawgumnTegnEIPeu1DQKsCUkVLtT3QOIUj8cHx9r6DBVaCjno/4TT2Dzpg0izotI7QrMnGiJUXInThyFnx9VSeRCi86Jcuw5D0UFUc4jpYnXunSSjU/PISW1/u/2FVDUXiCu1rb+TXOrt/+djeeee8YGxm4QdZpcPWB3e9egwgVMTtHZsMSB/k/jRE+fOoGQkBABJlls3p4SmbFy1ffi81jQziyGJXJ/BnjNmT0LJQP8bZwo1QiOhiX7eBr6S0kGYYbFYpHsOCkpKWAiC8ZiM4PQ0qVLJSabmZHILZPrI5hyAXl7eMPP2wdVgoLwwdChoE6MYy51FDMnSuAgd9e/3z/yLECqHshFMisRs1nFxEQjNjamgOuqPMdn9cUMRNeuXUNWprn4QNRixv59e9CqdYjN+KM5xi2bN4obkN5keLfPy52fnTlReiowhp2RY9Rbs1zOS+XKQZg2ZbLMg3CDRQBRghZDL6kTpbriQYEopQkal5gmcNDAfqIb1iBKpqFFy2YS2EGAFJAsAA/IWNCPlIlgGHGoy3GDaAGDVhCBOf9XdBA9L4Rre96FdZ46UUdxXk9Wu3btxLB0N+I839Uc3NRpk2URSLy8OU38Vfv372uLCRa/VE9vvD94CK5cvgqrLG6ld82hdd0AKOpCRZzPzBT3ngsXLqBPnz55iMqzhCfGjflMMvJItiIj7poEzfbnZJlVPDMXnMFBirU4I1WInr6iYom3MONOOlavWYFKQeXFe4D9kT55eqJ9uza4HheLzAylWtA6Ob2ZHTqwX/w7ueAFgH2Y2b48rsZekXJFjDNEOW3JVX6wPDUgBdnWdOTmmDDvqxkICGBeAeW4zjDMpk0bg9mcaJTINKdKP1Qf6NytsjJpUDGbbqr0g+KbyT4arlkyHlq3fffiPIHOmRYvR11At9e7wFvi35WLEzn7Xr162dLQcfMyMUjDGH89txw/reu2ZHIMkmHOoBohXTxD/vd//hsdO7woOQA8PMhFqs2tW7fXceMG09KlqvHgiQtOZUuWKotZNl6mzWNQiJ4XLXkUxcWJ80i6LionSn9RHpG98Jt5qBhYSQIXWB/rrlmzOvbs/VXabDKptIq63dpwKmPDcbHw2G0LFi5cIBu6Xpe8u8X5YgBSGygWyoneH4j+9+1cASFN9GqC89eJOoMoEzloEL2RdF3CHMUA5ancbhhiWq1qdWzYsAlpKTfF0mpOS5Y7uU4hLOMIDIrk1G0y3JRRQI5E5QpECRx0c6KTvjktRYAvlxFGhs8i+8Lyyf2RKxAPAXISxvXVvC/h7aM2BVl0Hh5oHdICkRfP2xesGNyUcYlgfeigMp5xwbB9/gHeYNjhpcjzogsjQDMqRUcYkcNWekcVnUOLPxNvnI84gcDAiqLzVCoGL9SqXQPffrtAIlpoMNP6WPZBL0T2iZ8JRNnWDHHx4rM0gqmr8Nj5gnSiziBKzoveBJ9+MhJlSvlLSkL2nW2mDnbfvn3C8TMXqNXiYJCRsVdtlfamJSPTxMCKFGUMZJCFKUO8IhZ+swA+VLl4cGMiSHtJLoXF3y40aIteEsYcGJ4ALJP6Um52nHPmDtWGRILigwJR0hs3fOrNz0ecQY3qNSXLE+tmjgoae9/o8bpEa2Vnm1UbeZw230lPQY7FrDYVczpMDC6JjRVXQ01PmubdIPoXAtGc3GwBDKXfMeHgwf1o3CRYuFESBjkLclstWoRg/297kJZ8QzhGupCI/x+jQgwQJTcRGhoqsePOROUMoiruWp0JxcTEx48cxs4doUi7eUMWltKlEUSVWClRSwa40fGe16JF80X844LTnGibViGIuRwlxG9zr9Ecc6YJv589jcfr1LEtUqYXrBBYFus3rBFwFpWFEZ3CSBdGvcixG+K4bnCLmam4lWsWVyYuPl46D0Lz5k1w7NhhW3Jo8VVkUmH6ShoAqvuUfDMB69asxKEDvykPDQFTRloZAQL5JCC5GxAV9YPFjJ+2/4jghs8JiGqAouhNHTgTW3PzY9grQS2PJEDAT0uReT+4fzdirlyUTY3gzLIZ8Zb2R76FalWr2FQ3VAVRvGequh+3bZV8qxI9ZXCipBc9LqzvzMlwWyiunkvdxgfCiRobI41L5Mbp7sVkIhxX+uBSPTF+wmdITbkhtC3tZYZ+cs1GHzgmsbFXJbk0XdMc/U0JpG4Q/QuBaO6tbLFCqrjrdDCv5/jxn4m+lgRFYiZI0Nrc4NlnsWrFckRevCC+mczWn5yUKJmZLkdeknyQzF6urdQENi1qOYMouTkmhSZAMTSQWYdqVq+G4R8OQ9ihA1J+UmIC0lKSYcpIlxMAmPGeFmn6Jp48eRz16j0u2YgEQGlg8mMOze7IzEgD1Q2KS87r4pScdAN/+1sD4cTYTi52urZ0ePHviIg4h8TE60hKSkRCwjXJZ8BMSN8tXiTcLQ0S5BYp1rPt27eHyjjRqstwRZbFzy1bNse2bT9IntCUmzcki705Ix3cLFg//Vr3/7ZXUhL6+3qhSeOGSEyIs4VtZpFDJ/AXA4hStGdoLgF78HsDUKa0ysylQYocKYF0+fLlcvpB0o0EsdozZSEzbsVdjZHk0f3e+SeCKlbA+HFjkJjAxNpKbcCy/30rF59PHA9fP6o2lGsc78wuRuf1RYsXIvLSRVHlcE7pFcCsT7FXo8U5vnbNGrZoPLVx2w2JxQ2iKqzVbnX/7be9RjYwlYJREgP5eEnk0uDBg3D82FFJJM55I61zfOKuRmPvnl0SCEKDIMfQmWkoKohqSUekHUMnrSSfO3XSzmqau/1e4m5f+LOf1+KLiKQFGpb+XHGehgHqAcVxmJuHJQOHww6gY8cXxImauTxVlnkmZ/BGqZIBaNm8GUaOGI6v5s6R0NEPhg1Bs6ZNZCEQcDWI6gUhdw+vPDpRdbREqizw2bNmwtvTAz7kYLw8USWoErp07oTPJ07A6lUrBax+3bUToaHbsHzF9/j445F47LFHbdwfyychP1q7NubNnS2Z3Amg4l7jZFiiX2Tv3r2Ec5B2ikGEzvylEBzcCCNHjcDUaVMwZMhgtG4VgooVKqDu43UkrRzj0ElXKsY8FdbsLLzzzn/JODG7PEFU8nN6eqByUBB6dO+GuXNmY8P6ddgeug0bN6wXg0vnTi9LwhGmlmOfS/r7YtzYTySRh5RNkC4mEJVFapwae/jgPrR/vp30XY+ZvpMba96smeQ2nf3lTHw5ayY+HjkCHf7eHpUqBsq8+Pp4gYD380+hEm9PTlTGg7kEYq8gpFUL8UXmOFA01t4AzEnbrFlTMM/DzBlfgEZHRjQ1bdIYAf5MqKPS4AmdOOR7JdAXN4g640J2jgWjPh4h7WZ77W1XeWwfrVUTvXv1xKSJE8BxoXH0lU4vo3KlikLn5EJJe2yrFuWLwokKZ56ZjsTrcYiJjpJ1YEpnhB1PRTWMosXAzDn21w2iDn6ierJoWLpfnagziDJRBo+Q2LBxLZo2DUaZsiQScgZKR6oJnUTDhce7/o3fCUwkLMcdWv53AaLUr0VeikDNGtXlPf2+4hC107r2u1Q5G1kW/9fPkoAJ3HQrYsq1q9GXYaHoTN9EW9ihXSfK5CJr1qyRpNEsi+/zcq6T3314GRmvpk+dKpwZQ19pcOIioOEhISEO3bp1lcTa1CWrsWDb7eW6qsfHyxc+nj7w9/GDr7cX6tapjfBjhyUrErMwFTeIcjHRq2D9urWSX5PuWBw3PX96DNhW/qZ/53cZC46zDzPm+6BPr564cpmZ7VXOAnLO5M4PHNyLho2eQ0nmS/VhGdRtUiVkL5Nl6Y3W8TPnk76r/I2XbsODBlHq2RMS49D9jdeF1pkST7dBt0OPAe+OF9vIvjCjPp/V67KoIHr6VDg2rFuN+V/PkfSFlBYeFIBy/t0g+v8Eosw6xCslNRFr162UBNFlypYWXZFKmqzi20lMXHgkJE10XJhlypQRN6lOnToJmFLUlgXhBKJM6EuReO+enZKsROc81QTLMp0/87teXPzMi0TMOrt27YoDB/aLxZiJjbVRR8DIQSfKZC4pKcl46623bNyoBhCWrevgndmVGJTAXAPdXuuK38+ekegwZa2n8SlFjF0XLv6OHj26I7Ai0xWyXQRT1X5dpu4Pv7M+Hy9/+HkHwN83AI9UroJePXvI0SYqyXHxgSgXj+Z62G4aQ9atWydx/vRlZXu0OoSfeTm2lYCg55DjUTqgpJwPxbFgueKFkEWjm9p8d/y0DS90eF78Yz2ZKd+DZRIU1dw5ls1yNaDygDyGvDrOBdvywEE0iycrJCM2LlqStFSpUtk428w+h7rNepz4nW3jXDN5Nw9vJA3eDYgm3biGMZ+OwqQJ47Bg/lcYMXyYJLXhRucW5w0WnOK8/coQP1EmD/bi7mwcb1GmTElcuhhhi51Xz6soC8d3eVjZjBmMnac1uISUQef1dm3b4PYtFftuf5712sugJTJXwj57ShZ4Ks9ZBsXmqVM/R26u1Wb1lgUn+ToJDlxwqdi96xcMfm8gnnqKRzeQc6GeUzlWK06DIKnS15GjfPPNNyQ9GMVBiak26mOoKUWhpESGGjIXJdOu0bUnDceOhskRG+3bt8Mjj1SWI0xUGw3xyhgzqU+SdTDHqafo95g+7qOPPkT4saPiXyn+oYYRR8R5p3kgJ2mxZOLM6VOScZ7x1lzsVFlwk1D9U33yFkd+b1Sv+gioEzwfcc4Wqy6O/DxtlSIt875eicT4f41Dq1YhqFRRHTMhhgoxshBYNTipu6+Xr4DnSy++KCJ+9OVI8VQgR0e9q2q7OmNpybeL8GjtmkI3pB8vzxJ4iRFLKUm2BedIO5xHx4sco8wt9ZhZZlgtWTh4YL+oLKiz9Kcu04Eu9fyyzXqOOT716j6Of7z9lkSj8dwjzp2VqiAR6+lBkSoqiSNHDmLAgP546sn6cpSJbL5ivWfbCawe4NiSBoMqVcKrXbqIDnnd2jUi9VDyUf30QN93/omUm4ysykvTt29lS5Z5qhhEDPdi4pPy2LJpg/iA0gAkc+Q0Fo7jws8WurNxo8lMx7X4WHwxfRqeb9dW0iPqtrK9mvZ4Z7sD/P3RpHEwpk6ZLDr60qVKSlQe1yUvOt8fCTvgcARP3jk5Hn4EX8+bDfob93qzO04eP4p3/vmWBAGw3c7tLI7vDx0n6txp6ow+GzsaA9/ti4ED+mLAu+9gyOCBuBYfY+MUnN/R37kz/fzHGT8jR3yAQQP64b2B/eX+xfTJEh2kn3N5p1XRmonFi+Zj8KB35b2BA/phQP93sH3bVgl/I0fhavfjb3QJ4blF69auxPDhw/DSyx2FQJhwgVfdenXQrFkT9OnTE3PnzMLpk+Hyzq5ff5L+sa/62rJ5PdKYNMOJSFgPTx+lzm7eV1/ig6GD0fW1zmjZogmefqoe6jxaC7VqVMdjtWvhuWeeRrs2rUWknDh+HHaEbkN62k07SBSSck33k32OiY7ErFkzJDkLj63gcSy6X888+7Sc2cS2fzN/Ls7yyOp0ApxrApc+pCdj32+7MHXKRDllVI54eaq+JE157LHaEnrJk0l5wuZ7g/rjqzmzEH6UIrzd0JGnfLoZZWVImZ+OHilzRwdx0sDc2TNlzArKrJWnLL2567rM6QJO237cLHTZu+cbaNG8CerXrydnd/E4D2ZnkvZ2ekkOxVv+/RJEX7mkxsBpDlmX9qvlWMTHxQhnxWxXr77yMoIbNkCdR2vLPNZ7vA5CWjaXOZw18wucO3tawIaHDGpaYR/5eel3i5CequZX94fgTcv61MkTxWGeYzn4vXcx/MMhohJhxJwzjel3C7oLbZjTcfDAXkyf+rmaw5AWePIJRYN16zyGvzV4VvT1o0Z+hB3bf5CNhLT0/uABam1zfb/bFxPHfyaqKl2mc3tIexP+NVauaVMnYdXKZZg7Z6b0y/nZgtp8N/899CDKgUm4FouE67Fyv37tKq7FxajdvBBFMomGIMMUc3yPllxeqeQGuOPms7D5OyeRVuWbN67jevxVOe72RmI8Yq9eVuBD/Z5haXWePNvipjhsMUnqtfDjxxAa+iPWrl2N1WtWYcOGdXL0LmOoNRizPhK+bueNhHhRoKckJyp3IRcLUNqaRb9Ds7T17OkT2LPrF2zdsgFrVq/Aiu+XYfXKFfhx6xYc2Pcbopi4hSGLzKVq8+V06Es+Y8K20aIsbkvse5YJUVGXsGvXTmzatAGrV6/EmjWr8MMPW3D4ML0EYmT8+J4siHzK1XNAcYxzxeNEeBQ2T3NleRyr9evXInT7Nhw5GiZ0wM0tPx2YzIkxN9wkOJakH95JA+ToWdfdgqiaaztos19s+8Xz5+QcqU2bN2LFiu+xcuVyae+OHaEIDz+KhERGUqn37ONtL0f3X2jGmF8+dzPpOk4cP4IdpJnVq7By+ffY8IdedtfOXxAVyVNn1QF6fJ/9jI+LFjplX9lP0ryNPh3GnvRIuuL8cE3RQMOjnEl3AuZsg74c3tPtdHWXfhnjQT9SHoOyj3O4aSPWrF4p55Jt3/YjePw5E1Rz7vQ7bC/bo68kBhpkpChO1AW9k85Dt23Fkm8XYvWq7zFv7peyqbOvLNNV++73t4ceRElcjsQgnw1Oo7BBU//TamcQMY/mYHZuzVUUQCS2Oo2J1JMkd74vv+u7ay7LXgY5UzplZyHbyssin5lEmLpGlqXL14DMNsolVkd7u537zO/6Ny5sLhJeBBqpy6iT9VO9QZchnYFev8d6CttUSIhsI0GU5Usm+0xmPDdLf9gXZixnnVwkfFaVaW9ffsQsz3IMhLNn+9U48c6LZVOclrEyNjdpu4tFZgMA0ogxdmoslbM46yKIFqW/edrLDdHolx43GQ85916pOtQc2+eZY6My/itg0uCRp1xjw7b95kDbbLcc0yI0Y9COZI0nzbA/3Aztm5RuD8vSbbSVa8wfv/M5GRsmwDY8BeQ5B1p3fK+on9kWgijLZopFZoXinTRhP/iPm499PbqcB6Mduo156jfo5Pezp3D0yEHZHNkfzjvrz/NsAev7bp57+EHUASQ0YdgG19Uichg4/TwHTC0kBchCRIUBKcvWk2m4uuhy9AQ4lq9/0/c8/8mCJtFr0FV39cydIMPf81zGRsI+aAJ0VY8sKId+2ctXdQu4SWagvOXIc4WMpa6PYyJjyYUg/VFtJRej65M2Ooyf7V2Hucnzm8Ozut+qn7oOzR0ZG4tDH/OU41Q+y+KY6HHRZfMuC8/p+YLK4n8y/s7jJBugphX7/NrrsoMcf3NVh/13A1yc5p9joZ7hXZ1swLnUv/M/6aPMicP8OPfPYZz1mHAcbO/m0z5XbXb1m218ZIw0jRltd/rN1fv8TY+Fpif93fa80QehQU0HBu3d8axz/+/x+0MPorbBu8cB+E94X4wXnGhX10PaL5d90f27jz4VOFayWFxz/X/mPD+Mbf4zx+thq9sNovexoItrsmkhlYS/+dyLqx7X5ejYclf3ewekgvpDUHHdlsJ/57sPqux7bVNh7z34NruaO/1b4WNaWPsfzP+6fa7u/6ltdt0uN4jex4IuLuL680DUFQE7/uaaaIrS74KBjnXcW9kPHpDurV0F9efBttlxvlx9Lv7+FNTXov/nqq36t//UNrtulxtE73ExF51YXA+88/tcaPldzs8+DN/z6wt/v9/2P8iy77dt+b3/MLY5v764f89Lw24QLYZF7SaqvETlHg/3ePyVaMANom4QvW/O8K+0YNx9dW8QzjTgBlE3iLpB1E0Dbhq4Dxpwg+h9DJ7zjuT+7uZS3DTw16MBN4i6QdTNhbhpwE0D90ED/wd3oVkRTQSwwAAAAABJRU5ErkJggg==;" vertex="1" parent="1">
          <mxGeometry x="1124.49" y="2083" width="58.01" height="42" as="geometry" />
        </mxCell>
        <mxCell id="Sct_ijZb0S9W05oiDWKm-158" style="edgeStyle=orthogonalEdgeStyle;rounded=0;orthogonalLoop=1;jettySize=auto;html=1;exitX=0.25;exitY=0;exitDx=0;exitDy=0;entryX=0.25;entryY=1;entryDx=0;entryDy=0;" edge="1" parent="1">
          <mxGeometry relative="1" as="geometry">
            <mxPoint x="1265" y="2184" as="sourcePoint" />
            <mxPoint x="1210" y="2184" as="targetPoint" />
          </mxGeometry>
        </mxCell>
        <mxCell id="Sct_ijZb0S9W05oiDWKm-154" value="" style="rounded=0;whiteSpace=wrap;html=1;rotation=-90;fillColor=none;dashed=1;" vertex="1" parent="1">
          <mxGeometry x="1160" y="2015" width="320" height="110" as="geometry" />
        </mxCell>
        <mxCell id="Sct_ijZb0S9W05oiDWKm-155" value="&lt;b&gt;&lt;i&gt;Issuer&amp;nbsp;&lt;/i&gt;&lt;/b&gt;&lt;div&gt;&lt;b&gt;&lt;i&gt;Bank&lt;/i&gt;&lt;/b&gt;&lt;/div&gt;" style="whiteSpace=wrap;html=1;aspect=fixed;" vertex="1" parent="1">
          <mxGeometry x="1280" y="1930" width="80" height="80" as="geometry" />
        </mxCell>
        <mxCell id="Sct_ijZb0S9W05oiDWKm-156" style="edgeStyle=orthogonalEdgeStyle;rounded=0;orthogonalLoop=1;jettySize=auto;html=1;exitX=1;exitY=0.5;exitDx=0;exitDy=0;entryX=0.216;entryY=-0.018;entryDx=0;entryDy=0;entryPerimeter=0;" edge="1" parent="1">
          <mxGeometry relative="1" as="geometry">
            <mxPoint x="1000" y="2139" as="sourcePoint" />
            <mxPoint x="1098.02" y="2139.88" as="targetPoint" />
          </mxGeometry>
        </mxCell>
        <mxCell id="Sct_ijZb0S9W05oiDWKm-159" style="edgeStyle=orthogonalEdgeStyle;rounded=0;orthogonalLoop=1;jettySize=auto;html=1;exitX=0.25;exitY=0;exitDx=0;exitDy=0;entryX=1;entryY=0.75;entryDx=0;entryDy=0;" edge="1" parent="1" target="Sct_ijZb0S9W05oiDWKm-146">
          <mxGeometry relative="1" as="geometry">
            <mxPoint x="1095" y="2180" as="sourcePoint" />
            <mxPoint x="1040" y="2180" as="targetPoint" />
          </mxGeometry>
        </mxCell>
        <mxCell id="Sct_ijZb0S9W05oiDWKm-160" value="&lt;i&gt;HTTPS&lt;/i&gt;" style="text;html=1;align=center;verticalAlign=middle;whiteSpace=wrap;rounded=0;" vertex="1" parent="1">
          <mxGeometry x="120" y="2038" width="60" height="30" as="geometry" />
        </mxCell>
        <mxCell id="Sct_ijZb0S9W05oiDWKm-161" value="&lt;i&gt;HTTPS&lt;/i&gt;" style="text;html=1;align=center;verticalAlign=middle;whiteSpace=wrap;rounded=0;" vertex="1" parent="1">
          <mxGeometry x="270" y="2038" width="60" height="30" as="geometry" />
        </mxCell>
        <mxCell id="Sct_ijZb0S9W05oiDWKm-162" style="edgeStyle=orthogonalEdgeStyle;rounded=0;orthogonalLoop=1;jettySize=auto;html=1;exitX=1;exitY=0.5;exitDx=0;exitDy=0;entryX=0.038;entryY=0.363;entryDx=0;entryDy=0;entryPerimeter=0;" edge="1" parent="1">
          <mxGeometry relative="1" as="geometry">
            <mxPoint x="654" y="2049" as="sourcePoint" />
            <mxPoint x="741.04" y="2049.04" as="targetPoint" />
          </mxGeometry>
        </mxCell>
        <mxCell id="Sct_ijZb0S9W05oiDWKm-163" value="&lt;b&gt;Payment System&lt;/b&gt;" style="text;html=1;align=center;verticalAlign=middle;whiteSpace=wrap;rounded=0;" vertex="1" parent="1">
          <mxGeometry x="415" y="2230" width="170" height="30" as="geometry" />
        </mxCell>
        <mxCell id="Sct_ijZb0S9W05oiDWKm-164" value="&lt;b&gt;Payment Service Provider (PSP)&lt;/b&gt;" style="text;html=1;align=center;verticalAlign=middle;whiteSpace=wrap;rounded=0;" vertex="1" parent="1">
          <mxGeometry x="790" y="2230" width="170" height="30" as="geometry" />
        </mxCell>
        <mxCell id="Sct_ijZb0S9W05oiDWKm-165" value="&lt;i&gt;HTTPS&lt;/i&gt;" style="text;html=1;align=center;verticalAlign=middle;whiteSpace=wrap;rounded=0;" vertex="1" parent="1">
          <mxGeometry x="660" y="2026" width="60" height="30" as="geometry" />
        </mxCell>
        <mxCell id="Sct_ijZb0S9W05oiDWKm-166" value="&lt;i&gt;HTTPS&lt;/i&gt;" style="text;html=1;align=center;verticalAlign=middle;whiteSpace=wrap;rounded=0;" vertex="1" parent="1">
          <mxGeometry x="1040" y="2113" width="60" height="30" as="geometry" />
        </mxCell>
        <mxCell id="Sct_ijZb0S9W05oiDWKm-167" value="&lt;i&gt;HTTPS&lt;/i&gt;" style="text;html=1;align=center;verticalAlign=middle;whiteSpace=wrap;rounded=0;" vertex="1" parent="1">
          <mxGeometry x="1040" y="2155" width="60" height="30" as="geometry" />
        </mxCell>
        <mxCell id="Sct_ijZb0S9W05oiDWKm-168" value="&lt;i&gt;HTTPS&lt;/i&gt;" style="text;html=1;align=center;verticalAlign=middle;whiteSpace=wrap;rounded=0;" vertex="1" parent="1">
          <mxGeometry x="1206.5" y="2114" width="60" height="30" as="geometry" />
        </mxCell>
        <mxCell id="Sct_ijZb0S9W05oiDWKm-169" value="&lt;i&gt;HTTPS&lt;/i&gt;" style="text;html=1;align=center;verticalAlign=middle;whiteSpace=wrap;rounded=0;" vertex="1" parent="1">
          <mxGeometry x="1209.5" y="2160" width="60" height="30" as="geometry" />
        </mxCell>
        <mxCell id="Sct_ijZb0S9W05oiDWKm-171" value="" style="shape=image;verticalLabelPosition=bottom;labelBackgroundColor=default;verticalAlign=top;aspect=fixed;imageAspect=0;image=data:image/png,iVBORw0KGgoAAAANSUhEUgAAASYAAACECAYAAAA9Z4aLAAAgAElEQVR4Ae1dd1gU194GQUAsaKJeUzSmaUSDomI0ajTFFBO8xrSrMUVTNIm5qRakK1ZUlLKIYO/Ye+8VFYVZepfmghQV8X7f8/3xfvc3MLAsuzOzC7uMenie88yyszNzynve+Z1fO1Yw8Pef//wHrLA+YBhgGDAXBgxQD/+1laGT5qoMuy8DOsMAwwBhQOyPEROTDJlkzDDQJBhgxMSA1yTAY5IRk4zEMMCIiRETIyaGAcVhgBETA6XiQCn2JmXnHg9JixETIyZGTAwDisMAIyYGSsWBkklFj4dUJDbOjJgYMTFiYhhQHAYYMTFQKg6UYm9Sdu7xkKYYMTFiYsTEMKA4DDBiYqBUHCiZVPR4SEVi48yIiRETIyaGAcVhgBETA6XiQCn2JmXnHg9pihETIyZGTAwDisMAIyYGSsWBkklFj4dUJDbOjJgYMTFiYhhQHAYYMTFQKg6UYm9Sdu7xkKYYMTFiYsTEMKA4DDBiYqBUHCiZVPR4SEVi48yIiRETIyaGAcVhgBETA6XiQCn2JmXnHg9pihETIyZGTAwDisMAIyYGSsWBkklFj4dUJDbOjJgYMTFiYhhQHAYYMTFQKg6UYm9Sdu7xkKYYMTFiYsTEMKA4DDBiYqBUHCiZVPR4SEVi48yIiRETIyaGAcVhgBETA6XiQCn2JmXnHg9pihETIyZGTAwDisMAIyYGSsWBkklFj4dUJDbOjJgYMTFiYhhQHAYYMTFQKg6UYm9Sdu7xkKYYMTFiYsTEMKA4DDBiYqBUHCiZVPR4SEVi48yIiRGTookpJuZ/FV0/scnFzplOsIyYGDEpduIfOfK/sLICZs/+P8XWkZGP6eQj1neMmBgxKXbSazT/A0/P/0Nc3P8oto5ik4udM520GDExYmKTnmFAcRhgxMRAqThQMknDdEnjUek7ixFTUXEZNEWljV+Ky1BSfg/3Kx+wCcZIlmHgEcGA2Ylp865L6D0sEM/2DzBr6dw3AF2GL8C7E5djxrzt2LTjAuISslHJCItN1kdksj4q0pCcdpiVmI6cjofzsAVo5eqNVv19zF/cfGHv5gO7vj5o0dsbrZy94NTDG796b8aFKylsgrIJyjDwkGDArMT0zfRNcBjgi5Zuvmg9oOmKVW8vNHt+GpzdF+HUhUQ8eMCWfXLeWuw3TNfTVBgwGzHR5H/viwg49vZqUlISCLHVAF9Y9/ZCm16e+Ml7C24WFDOCekjenk01Odhzm46YzUZMuflFeOOzMDi6eiuCmASCaunmA2sXT7z1VQTUKXmMnBg5seWdAjFgNmKK5bLQ/+NlcOyrLGIignJ080UzFy+MmrwGaVm3GDAVCEwmrTSdtKKEvjcbMR04cQPOHwbCsZ+PoiQmQXJydKuq1/SFe1FcUs7IiZETw4CCMGA2YorYcBqd354Hx/7KJCYiqBau3ujz0WLsORKHBw8e7zeUEt6SrA4MgwIGzEZMf83ZBadB/k1ukRMkJENH+56e+GP2bmiKytgbU0FvTAGg7Ph4kpVZiKmi4j4+/2U9WijEImeIlOh7e1dvDB4bgrMxqYyYGDExDCgEA2YhpoJbt+H+3cqHgphIEd62nw/WbYthoFQIKJmU9HhKSdrjbhZiupGQjeHjVLwOR0xaUco5u+4eWBxxCnfv3WfkxMiJYUABGDALMR07w6Hfx0FooUBXAX1kaNdzJnyXHETRbWad035rsc9McmkqDJiFmNZGX8CL7y1ACwVb5LQJyq6nJzwD9/GZD5pqINhzGQkwDNRiwCzE9Pfi/Wgz0A8UBqJNAEr9zIipFhBscrC+UAIGGp2YKiof4Mfp2+DwqqfJpNTO5Xc82fMnM5Sf0a73n3xxcp1WUz8755kICD6CkrI7itAvJKfn4/VxYeg5NBA932pAGbEIbmNDMXHaBgSGH8LBEzdAhgklAO9Rq4Om/D4WxBSg54YU9Fyb3LCyMQXvb0/D74ezsfpqIa7klD70fnZJmrv4dGeGaL/8sD8LRXeq9LyNTkwFt0owbsp6OLiYRkxESh16/IAOr3xvnkL37vED2vf4Ee2dJ+HJXlPg8PJfUK07r5i4uacHzYFNPx+06uuDVnRsQCGroz1Jrq/54Qk3f3R6LQBf/7EeMbHpILeOR40gmqo9mxOL0TpcDSsVBysVHRtQwtWwVXFoEa6GU0QCOkQk4JnIBASezUVhWcVDN2YkrOxILIJdcLxovzgExyNFc5dvX6MTU0JKLty/j4KDiT5M7Vz+bR5CEiO6lyZg0vw9SK3ulKYCNz03M+cWbJ+b3qjLYFpS88XNF63cfOFA+ape8MBvXluRX8gkqIaOd/m9Siy6XAArmnhETmYqdio1Oi1XY/WVwoeKnErvVSKI+ieUE++bEA5ZJVXE2+jEdPZSEoaMDYWDCRY5J9fpaO/8k8WJqePAP9Fi2l68EJWA45kluN+E+ZrOXE6CzSseNctMc+rlbF/xwIB/BiI7t+ihAnpDiaSxry8orcDUkzelJ14jEVZrlRq/H8lB5UMSRkXL3L+O5oj3TxiHIeuTUVhupqVc9L4r6PFRIBxMsMg1CTG9NAFPvusP+7lnYBWeAKswDocymo6c1mw9i2bOMy1CTER6Ni6eeGdcMAvJaYDvTprmLr7el8ljx1zSUp37qtR4MiIB/qfzQMukxibaxr5fTkkFRkWnVS1zDZFzGIfJ+zNRfLfSPEu5RZEn0W6QP1pUR+8b88YnhXR758mWlZhemoDWn4eg2bJYWC1P4DvvxagEJGju4kEDwGrq4M6Yt41PyWJMvzX0tzYvTUfgiqOKB7ipfWru667llWPY5hTxiWdoQpr6fRgHl3XJOJqm/KV4ctFdfjXC698MtTeUw4JzeSirMAMx3a+sxLSAfbDvadobn1d8i+mCzHHu5Ylw/G5N3bVvCIffjmTj3n3Lv43e/SoUtk2QKsbaxQulZVWKR3NP5Eft/sczS/H0implt6GJZ47vwzh8eTgbd5sAp8aM4bWCO7BaJqF/C45HNKfBvWoJsFF1TLc0JZjkEQ17E10FLE5M3b9D+8FT0WLmflhFJNYjp4ziexaVIiruV6K9q7+sZVzLfrThghdauGgV+r+PN+9xT9Y4YyQp6xen4/CpOIu21xhwK/W3lC5ne/Jt+YpvstaFcfWLYMUzhsDCOIyITgOXr9yIBdLXHkq7LU1My+JxOru0Rm/WqMSUklGAL/69DvYmWOTauHnjCUtb5F6aACf3BbBdHFO1jNMGRQiHyJgCi07UnPwiPOEiTSgt+/qg+3uB+PCbKIz+bg1GT6wq7t+uxLtfr0D/MUvhNMjPqOyh1q96wm/RLou2V6lkY0y97lRUYkWsRh4xhXEYvCUVo3dn1pRRuzMwckcG3ohOw4urk+CgjUGpzyo1v5zbk6hc4wVJc1FXC2EVIm6Rax3GIe5WrcTeqMR0+VoaRnwTDvs+xqfTdeo7A+17/mw5/VL379DBeRJa0jKOdEu6IAjjMHZHukUn6tnLSXBylSYmyqPuveQANMVlvPKTlpxUSkrvICdXg9MXE/HXvF1w/iBQdryitas3Rv0QbtH2GkMASv0tWZxmnc0TtzgRtkgiCuFw9WYZP1bCmJVXVPK+SST1rL2hwSe7M9BuhR486uKz+p6dVyYi4qpy00OX3auEx/EcccOAisNr65ORVlS7QmlUYtp37AZc/rkI9iboSCxOTC9NQNvh3mg+54x+YlKp8XSE2qITdf2282jdV5yYKCVw13fmYev+a6J1Kyu/h7B1p9F2gJ8sQ4R1X2+4jgoUvadSyaEp65Vz+x5+OJAlPvGIRMI4dFuTJNm/cfnlGL4jo4rI9JGR9ne8dU6NwEuWleyN6W+yso3ZlibeP2Ecvt2bibzSWufRRiWm5ZvO48lB/nyyf2P0G/Rbpz5T0b7HJMtITCQt9ZyMVt9EVbkIaA+29uel8ZJAMmaQpH7ru2g3WkiQun1fSmwXjDOXkiXrRhstfPjDCtjK2KmGEZNpMXLJmrv4IDpV2iIXxuGX/ZmSY0YYCbxyC/9YmShNTg8BMRWU38ezkWTtFnE8DeXgezq3JhyF+kDsz8rQSX0TjBS3c0KOmWyRa9v7T8uQEln2uk3kpSXbBef1S0sCOQVZVhn89ncRkqROy+TRv6xCfGKOJMg1RaXwDNwLWxnGCFrKvf9NiOQ99Y394/xdTH45noqSQSKhHMIv5cvq3zPpJei9gdwPRCYzYVSlxjNRCVAp2BM883aFtP4tJB6RsbdAy1oBS4a4h743ipiKbpdh6tw9sO9lWoycxYip20S0d5kCx1+31rfECYQkHC1ITKRzeHn4Qn4bdTFp097FC5NmRiO3oLhmEIXB1D2SDso3aD9sZYwJuQv87rdZ8p7CM+jeFH508nwC9h2N5cv+Y9dxPiYZFIRcVl6ryBSuedSO5Od2IqsUViESpnDCUzCH46nyfI4uZ5Wi70Z5xOS8Nok3s8vpW/IUzy+pQExOKQ4nF2MHp+HLwaQiXMoqRU7xvUZ12KT+uZxTJssitz+tpMYiR20R+zOKmLJuavC9xxbQxBGbWIbOWYSYqhXebcaGolnwdXFpicAUYrmlXE5eEZ4fNFeamJxnYmrAXpTKmPgUB/dv/2jYygiotnaeiRXrT4gS0+2Schw7y+F7320Y/kU4XhsdDJePFqPHh4F8oe26eo9agoFjQvDe+BX4e+EexNzIxP1q3xR6eS1eeQKTvLbiZ59o/OyrU3yi4bV4H7ikutLghZgUzAzcg58MXPOTdzSCVh5rUD4t6n+6R706adVxkudWXE/IrukjeplsTSiSlggIS0vjkaml3BUjkoNJxei5PlmWxDRkayouZpXW1EnffXNv38PymEK8uzsDb2xNQ99NKei5Lhnd1yTxxXltMlw3pGDIllSM2J2JkJhCkFJfuBfFkP5yJFu0bIrT1FmK0bXkSrH5hkbcIsdLhQk4nlPX5aHRiOmGOhvukyJh38d4YnLqN5OP8jdbRgHBMfPliWj7QQBsgq5Ik5KKQ/910spKYfAaerx4NRXPDp4jTUwuXvBddgSVMuL5ktML8Ma4ZbCVEbdo/fw0XLqqf0MGcrzccfAqRk+IxEtvL+B3vyHLIF/6+fB7B9L+gTXF1RsOrt7873q8Fwi/JQf5YOE9R2LRZ9RiOA7wRcuBfnpL29dnYbLfjppJUX7nHv74ezvauhi+hu7VcWgAvp8aXXOdMeNBBD5t7g7847VZeusk1NWxrw8mTl1X84wSCt69mC9tkSNiWhaP2/dqlypi9Qu6VICnomRY5sI4uO/MQGaRfumUyMX/dC76rEvGU6SzEvyniAz0lerznaISeYnteLVXucexHLRSqdEq3HDpsioJ53LrkgtJaLNPScQQqjj03ZCC2IK6KYcajZhOnE9E348Xg5SzhqQiQ9879fPAkz1/MauOqSPFxH0YAJslV+q7BhBwdEsYhykylZViIJN7LnrPZXQcHMBH/xvqJwrzeeatOYjaeqFmchi6f2XlA5w4n4yW3WfKylRg3WUa7t6ttYoI901JL8CU6VvQyW02WvX3BTl2UoYCQ3UUvqdsBrQdO/2+vYsv5i06jFlL96LTm3P4OMqWbnS+bqH2OQ2ehRkLd9e0jwj4t9m70ZqerfN77f9pj8B+7kuRlJZXc63QBrHjvYr72HUgFu16ePF11b6n7mfr56Zh3fbavr9Vfh+/HsqWJiYVB7e1SSiX4aFdcrcSY/dlwYbSp+hiUvf/UA7jD2brXX5t5zRw25ACpwgTPNKrSeuZFQlILCjHe3y4jZ45ItRHxaHHqkTE6BATOVeO35kubpFTcRi7OwPpOuTaaMS0avcV/k1oStZKssh1eMV8OZg6PjMOTp8HoVnIDenBFjo7OB6hF+UpK8WAL/fcvNADcHp9luikp3QlfccswcGT0kr5Ak0Jxv22GrYynF1t+njj4x+X15vQtAwb/NlStHb14SU5U8aWiKpVfx88//Y8vDBiHpwG+hkktZb9ffhNUtdEn6tTlyo3lCWiuzrTtV3fmY/128/XuVaq/9OyNej05lxJy6VNby98MWUlirXywt8sqYA7WeRI0hBwo+9IAar7MmWFOG2O1/BuBZKK73BSfCciRI8TcMDZPDwblYhm/DJJhFD01VX7uzAOT65Lhd1yiXuoOPxzexooGZx2f1N4iUNUsnj/hHGYeuImKEOD9rWNQkzEjKq1F2D38gyDoBPepPqOTn3+Nou01PH5b9Cx69do9Vu0tKJbe0Do89I4XMgqqdNZ2h3X2J/H/b6OT+gmNvkd+njjw+9X4DqXJVqvO3crQK4HzV+RF7PYrNsMbNx5qeaepBs4H5uFLm/OgZ0JzrL6xljOdyRdvfJ+IE6c42rqQv1MWTc/+iZKcjsw8vEa8+fGOteKjRMp6Cd5bOAzLEjVr1k/byRm1M2DxBXdQ7MVSdKuAqEcFp2XzgRwOqMEQzenwFqK6AifKjUGbU5FbG7djVq/PJEHW30Ow7r4lvu/nLqQK8ThbNy8XesgSf1OxGQVFCdO2iEcgmIKQTmbtMeqUYiJlKKzlx6CXQ/T8gg1NjF1fHECOjwzHm1HL4T1suuwikwW7xw9g2QTwqFEy3yp3WmN/ZmIYMD7S9FSwt/IwcULY39bj/TsQn6rKdpuSijldyuguX0X2/bH4NUPF6CZETmd7F71QlFJ7Ro/Ma0AL7wtLUVITWZjz1OoTZ+PgvQux34L2ImWr/mJulM49vHC22PDQYYYOWNEklizZ6ZKvkztukxH9J6roGWf9n0phIKU2qLSEmErOB471BqUVzzgA24pTIPKHfLWv1cJdeEdeJzIQSdadoVJSCfVWLVWqfHx/toX1P0H/4H/uTy0M2Xppgf/km3SviaEw7wL+SiuTosr9FFCQTn/ghe9V3A8NiUU1bHI0fVif7Ktcjfzi/Cr3zbYyfCX0QfWtn3+Mk1iIiubUPiUuT+ifbcf0HbUAtjMvQCriCRp0Gh3sPA5jMP3ezMtFrWdk6eBy/uLQRNTX/8I3zm4+aDzO3Px5rileGd8MF+GjV2KPqMC+R2FrTtPhXV3D9DbXbhG6tis50wERR2rmXSUGnnkt2GyLHkk3dEyjVL/NnfzgSN5mQ/whQNlyqTvZeiitOtHxDzQPRi3tUhSAPnhk3Fw/nCR6HKOlO+93Bdh79HYOgQi3EP7WFRcDmuJZS61z87FCz97bUGeTqZPsjQeSCmWNoUTpsI4DFqfjOEbasvQDcmg9DrkRsBH3lN2R7lLL5Ua3dcm42hKlfsB1WXNdQ1eXCXDn0rAuErNL/Xsw9V8Cl86mrz0C47HiuuaekvV3WoJixyfQliNHan1VyaNQkyJqXn4bMoq2JlqkSPFd7fvqopANIaOzj+gQ69J6NBrMjr0+gnte/2MJ12m4IkRfmjz83rYUEAuZQpoiDgbHI9tao0sy5c22E39HHM9Ha+8F8grX7Unqr7PlICPiEe3iC0B9d2HvmvZ1xtPvz0fmdUZLB88eICFy4/A9iXpJTnpdJr388FTgwPQfegCjPklCp4Ld2L6vO34ZHIUXho6H+0HzQb9Tm7dyOr11r/0x+vd0pTinS/CeUugofZQRgWnQf7wCNwrmr+dlnCfTlohuYRr3scbPd0XIeZGrWQijDFJPKqYQmnFt0AE1RavGssYfS9HwS1cr3WkFLufHqx1W4i5WYZ3KRGbVOpa/plq2C9PQNdVSRi4KQXf7cvEtKM5mLA3E24bU0Cxd821niUq7VT/rnkoh+jk+n51gVIxhCoOruuScD677nKU+ljsT7bEdPFaOtw+DYKdKRa5vh5VxNL/T7QbNB3tBnsYLkM84DQyAE6fLkbbb8LR6q/tsPc9imZLrsKK1vpUGkJI1QP3zMpEZOso4wRAmuO469BVdH1rPj+JDU26xv6eSKmTiy+27o6p2YE4M0cDaxnLcbr2H6/PxrCvl2PXkWsgC6Buv5AJfp7qCJ57dyHs3aTJiaQrMstP8TVs8p++YDdvICBrmaH+oDQwn09ea9CniUzYEZvPwaZr7S45+u5FhPpUX3+sj6b+qauYpbZScCpNaFlkYOREFyMDW5Uab2xOBWXN5OtRUQmv8/myloA2KjW6rknGuKO5iMura9oXxu98Zgnc92TCnhTeciQ4FYfuqxL5lNTCPYTjlzukLXIf70jnl7LCNcKxUYhp33EObSnJvZHpdHlR380TTmOWoHngxVpyEUhGzlE3j1JDQRDCYdnlgjru8UJnmesYFHkUHd8I4M3r+iZJY3/Hk9IAf/gv2QeSRIR2/TB9o2T4Ci03nxsyB7OX7jc4+YX70S4sm/ZfQ7eRi/ilplg7CAsdhgQgYv2pmvoI9xGO52NS0G2EuGRJuz8PHhuKczH6YwmvqXPQpr9hyyDVkYjPqZ8Pps3bZdDDnoJTZVnkGopHretJKe6yNhkHkmqlk7PZpXwqFSkSoWWa2/pk7FRLp0ghx9HPDmXDVo7iW8Xhg+g0xOohOn6pKiYVhnK80yZ5nAtjLBwbTEyUtXLjjitoLkP81wUmWVFsRi5F88ALDZd0tAZQ7I0jek6lhvOaJD6trtBBljj+OGML2rxm/g1CacKRAv35oXMwc8FukLez0D76bCVhVaXx6vCaPwKWHaxDaMI99B0py8HsJYfwpJsfP+F1MSD8TzqpzsPn4eiZuhY57XvSEmz4J6Hieiby9Ro2ByGr6hMcSXGf/BjF7xIjPFffkfKJvfPNclyOzajpH+160GdKmv8sr2iWcBVoJFySZNZvXTI23ahV7FMuqEA5y0mVGt1WJuKQnuWWbruE/wtLK/DqarI4Sijjwzh8dzALGTp+SBT3JmkYCOEw63x9pTnVQexP1lKOvIKXRJ1EcxlLAF0QkJXFZtxq4035jTHYuvdQqeEUrsbyq/VNl8JgmeNIUsWIcRFwNKNZniekvlXe2L0/WoKlESeQpxNrF7bmBKwkNkEg48bY39aBPMqN6Qtyvh30RYjozjlETC8Om8/H34nd22fJXrQZ6C+qWKfNVifNiMbt0lpLIymIA0KO4Im+fqLXkjTZ7a0FWLstBhSYbqguacX3pC1Ouhgz9n8iBZJaVByfp4ni27TrQ5kNxu2VsQlCSDxCLxs3ZvScuadzpZeqoRw8Tufils5+d8m37kj3T0g8Qq7d0usg2mBiKtSUYMbCPWhupEWOFKIOQwLg8LMJPkbGDrCc34dy+HJ/FtL1iJXaYGjsz3mFxRj6aZioUleX0OX8T/1LXvj2Lp5o1dsbLqMWY7L3Nuw9yenN7T1kzFJRHaEjSTRDArBp5xWQlGxMP2Rk38InP68R3WuQLHs9hi0EuZ6I3fvKjQw8O1A8dIf8vT74bgVitfy9Dp9JQNe3F4jq8Uiv1H6gP2bM2w2yThqqBwWnnqPgXak81nJwp/sbnozUPCE8EaHGB9vS8ee5fFDeJ936HM4oQRep9CgqNV5dlQjyKNe9Xur/M+mUMlhCIgyOx+KYwnoWuYOJRZL90yacw0YDS8sGExOB7qs/16K5kcG79BZvNmw+7KYfbHqJKZTDiG3puHizzOJ7yl2Ny0C/fy6VlQaXllJ2vb1g18tTf3GeCdru3K6bB1oO8EX/T4Lw1R8b4B90CHuOxRncHpwyBbTuIR7jSDGQoyavxA2tIFYpYAvn8wuLMe63Dfwy0iCpuvmi/6hlkpOHnEff/jwULUT0mUQwXd6Zh1XbL/P3I4yO/jEKrcmNgXYlNlBIP/XOhEjEqusGEQvtEI7kd7Yu9pZ4cKo24RDZkMXMUKG0s5ShIJTD01GJeCc6Db8czUHI1UJczS2rCYIWnk9H2rZpVRyZ4yX8qEI5zD+TK9mv2vcWPnN55eLkUt2u8Lja5aVwbdC5PPH+IcJcm4QjafpfAA0mpvjEmxgydhmaG2mR44np7UA0DzjTdMRU3bFvRafheEZJPdYXOtmcR0oV0mNkoKjehCYS+eh0fnMuxv2xHtMX7NVbvAP3Y/aywwiKPIuI6Ms4fi4BqRkFoEBYsTZcjk1Dy14SxNTLE7/57wRJyGL30ncuLasQY36SkJgG+GHCNHle22QsaNnPMMFQf1GWC4/AAyi6XQ7vwAPoNJBi/Qz7iZEPlfOIQGzed62es59um8iy5y2VLlYgplAO/Tck44/jNzH9VG69Qssg33N5WHCpAMGxGmxJKMalnDLklVToJSShLuTMSE6NPNkJz9J3XBaPi5nGjxk9hyx0ohKTSo3nViViR3L9dC4T92RIhKKoMXJbGq7pxNcJ7WswMZ2NScMT/XxFPXL1vaEowNP6vSBYB1Xv56avU835HS8ycxixMwOns0p5L1yhUyx5DF9/Cs++NRe0VNLXT/Qd9dU/3gjA1Lk7kZSWzyueyZqmWyitCOn8hDQjctuxfX8MWriIO2XaO8+Ed+BBSZLT90xKWzLsyzA+44C+NpIU02aAP0JWHZNFehSo266X4f6iZxAxffXXRqjWncSr7ovRQsR5lSQscn/wXrhXr3OnbpvIy3o0+Q1JWa1UavRcnYSdicU80ZAeRrdoyu7zHtOkyCbC032Wof/zSyvwxzGJXNo0f5bGGcw+YOjewvcUKypKfCo13tqaikvZtZZd4doXpBTnYWp8eyAL6TrxdcL1DSIm8l/Zd1wNWwlrjj4w0mSzGhkMq+U62yaZk4yEe4dyeCYigX97UVhBU+5mOmnWDrQeKG6RI2mpz+ggHD9nnhzkq7acAell9I2T8B0Rk++iQ6CllAAeucfFa86g/dDZaGVgE1RyFWjn5o+9R8XzmAvPI6X0m58Hi+6/R2TzzFvz8Ny789GG+teA7xORIjmKDv82QnYoC+GlXYS8tCR/HM1BYVndUBahHQ05Um6nCXJ2/10ah2wT9aYulKxOjHzD1Bi7NxNJt2qNDNQmcj5tJXYdzcNQDn+fzK2T90m7PxpETATSqC0XYGtEXJYAdIoyb//58irfJYEwzHmkjh3lQPoAAA6bSURBVPpvwKATJT7fl8kv3cwBGO3OlfpMAP/sp/X83nBCv+g7Ut6j4ePCkZ5VN4hU6v5yz0duPCVNTK964le/Hci/VV9sF3tOWmYBxv2xQXRLLyKNjm6zEJ9Y680sdk86t3z9STSTyMxJ9yW9nJheifyyXhg4Fycv6vd70lcPUiTLUnyHcFh+tW7KWH33M+U7ShMyXmq5RPNpWTxi9Eg0Us88klKMllLzMZTDr8frZwZI09yBoxQxUXzdpUKD0RUNIiZaOvgH7ZOVulV7whFQbF+fDUeyyJETpVQHGHOeHLqoU6gIysagOLiuTeK3IL50swwFZfeNXu5IDaQp58ki99G3MqLme3vhg/GRdczfpjzP0DUbd1yQXsr19caw8aE4f0V/Mjl996ag1yUrT6Ndf8MSC+GCCOQp19koKZcvjRUWlcFGRgCuNu50P9Nz27r5YWHoIZDbhr426PuOvKZlEVNwPPam3jY4+fTdW+53ZKX7mXJBSRFAGIdph+UTPj2fEsy5rk8GBQqLzs3/Ku39LuTX080eTS5GC7Fr+XMJWBhbX2kutL9BxESBjROnrpcV8KkNCrIYWQ+dC7sZh0wnJmpccHxVWgVKrUCFIr3DOLywMgGjolMx/Ug275B2Pb8cmjv3cafiAZ/uU2h8Ux/jErIxfJwKlORMu390P5PENGrSGtH4r4a0hfazk1J+08vE0dkT84KP8PvXST2PErxtOnAd7YfNgZ3Ezi9EEM8Mnw8yw0vdVzhPvx01UYVmJsRnCv1r298H73ytMlpvtp23hkmY0ellGsrhuJ44MKENDTmSrsqL/IykiImCdIPj+YRvcp5Hy7A3dmWgmZjHtiAohHGYF1N/TzvVpXzYi2VJIN3b2iTs1vJg161bg4gpI1uD4ZS6VWJiCUAQjmSRs35jPprPPWcaMYVxvKnxLFnSKh/UK7REIgUwKRPJtKvbaKX8f+wMh35jlopu2UR91W7ILHgt2mO2dmTk3EKrl+TlbqLt3wMjjotKb2QJm7f8KCgBnZ2IUl/Ag01/H4z/fbXR7YveFwPrbtIBx8JzdI9OL3uCLIbG4mEupYuV2FmWnCJ7r03CNTNt300EEnFd5g7A4Wo4RSTg2s36wbLabafcTv03p8rOB/X8ykRs5upLPb8fykJzMWILq1KaXxDJVd4gYopNyoONkW4CBA6abFZvBsoThwV2Fo4qNSi/8J6E2nAK7c59mD6vib6AF99fIOmT03XEfGzaedHoCWRMX3QZMd+gglh3Qtu+OAMjxoYgavMZXI3PRL6mHBk5Gj4+LSB4P16mXE5GEAZF8QcuP2h0+yiQtvmz0vmUdOtP0p/NyzNAS1hj+kj47b+kglMJqyoOn+1MByXyF65r7GN06m3YVj9LdMlVPXccQ+Lx3Z5MfocUUljfLL4DLreE3yll3K50tBXUIMJcEzuq1Bi8OQWn0uu7InTeJBG8G6bGZ3syQd7hhvrEZGLisxxeyYTNc+JR2rqgoP9JdG/2VqD4+tVQp1Tv1669i4Ohxin9+5mL9qPVa1UKWn39RN9RVseeIxfx236bsz3BK4/CyggjBknJlImANjGgXNh8eXkGrHvOFLWW6Wun/ate2H3oikGQirV74t9r0Uwir5LuM61dPPHZL5EmPY/qwutFpZZQoRx+P5rDuwmI1b8h52hijyUFuJx0J8J8onqTN/dSUn3EVQkHJP3RPcT0QsL1wjFMDfed6aCdg7XbQCuVZyMlLO2hHCYfzakXxqJ9H5OJiRSbW/de4d88ugMv9T+9sZxGhZi0jCOF3MDN8hWw2o1V0mcK6/hxajQorkusvyh2y9U9SDKGrKFtI+/vDt29REM2xOrZkHMOr3gizgiLnHZb9x27jmZGuKuQFa7zwADe8VL7PnI/U+S91RKJdLE0eUM4BF4uMCkURG5daDkXdvUWv4OJHImpUX8TymHCoWzkldR13iWL3FMrJFwpQjlMO5MnaoAymZjIm3jRiqOwkQj81AUskZI1ZTr8arVJxOQQrsb3Fty9RC5IjP0d5bEeO2W9eJgGSUyu3hg8OlRvfJuxz5T6PZngKeaREq7pjpux/5NUTJ7WbV6TvleLl2bWSfIvVU/t88Uld9DBxUdWyhg+Fq6Pr6zNHLSfof1ZnU/pYiXCQIiYguOxOl5jdh85ruAOH+ArNyWvJDmR1CQnp1koh3+fuFkvPdDx1GK0l5CYKFvmrEviQcUmExOlP53iswU2RsbI8cQ0cBYcft9lEjGREm/pBcvtXqINysb8TLvYfvRDlKT/EGV1/GD8ijricmPWQ/te5DD70U+rQLvyNoScKCC3/QB/uLgv5r3aSadoiNhoy6ZO/fxNbt+dOxX40WODrOUcYdVj4W6TnESFfpKTLpYmP/nx7JK5865wb1OPm5Jvo+s6id1IhCWY2DGMw4trktB1bQpsJXZGsQvj4Hu+/jxceaWQV7QbJECVGi+vTsRGPfF12u03mZgKNaUY9mUwbIy0yPHENGg27DyPmERM7VckYu8joPg+fTEJr1MqEJH+owndaqAf/j1rm8kTV3uw5XzOzi3CexOiYN/fR1ZgcR3CoXxPrt7oOCQAU6ZHI3jNSXT7cKGoct+qjxfcf6i/dZScutJvaAn6rylrJNM6O7p4YfDYMOTkG+cgqlsPyXSxNPFVHHqtScIZEauT7n0b8j9tarDihgYvEDkZoycSSIqu+S+R9t6QglWxt/D5rgzQykSMXDpHJSAytr6rwF9HcuAoRmr87i4pOJkuPg4mE1NOXjHaufrwAK4DTgOR28JviJisBs2BTWB1bm6xDtBz7qnIRNzIEzd7NmSQLXXt7iOxcPkwkF86UeS+3uLihaddZ2Pr3hiLERPl/U7P1mCy73Y4vx8I+16efPZJsVg+Bz69ihda9/PlE6wFrDgByiiwcucVXqKmxGt629fHC1ZPT0PkptMmt2/JyhOSO8K06OeDbsPm4shptWiOJTlj//vBrCr/OfLTMVRCaJ+1dNAyS849G+M35KO3OqEII3dloC2Fy5CSW4ykqsmI9/tbnYR/HcjGgbQSfmnmuiW1ShluqH2hHIZuScV5PcT7+e50kDRlsG9COXy8J9NgjJzQFyYREzm3xSXmoplE3mSBjLSPPDENngercAkFmR5Soo7uEplYb5sYoTEP0zE+KRfT5+7m03GMnrwS+sonP62G36z9BtOVmLO9tLHjll0xmOyxDcPHh6HT0NlVJNVjJihuji/dPeA0wA8DPluKr/7cCL/go7hyvTbr48XrWZg4Y6vetgnt/XnKVn77cFPacupCIjoO8hd9OdJSkYhpruqIyQpv7bpRalr3bWlw35FusHy6K4PftYScerWvtcTn+IJyPlMBmeNd1iWD8nzzPld8apWqsCz6v+2KBLwdnYbJx25ibbymjvVwYUwhPt6VYbB9X+zJROR1jV7F/qrYAlD7DfUP5TyLTpb2hjeNmB48wLmYVDTrbLwPCZGU3cggk5ZxJCJTMnVLDLC5n0HOn5TONj4xx2AhPVSJVhZGc9dJ9/7kEqIpKuP9kyK3XsTcsBPwW3wYHgv2wyvwAOYtO4agtWf5dLj69nK7f78SufnibaSlmO5z5fyfnavBEPcgXhLTfvHpfm7uPBNjflmDpHTjHSn11YOcd0liFyuJhXf0Tlp99zPHd2SyJ1eCvcnFCLx6CwEXC+B1Ng8zTufC53w+5scUYnmcBhezS/UG0VJaXHVBucE2pmjuoFxng0qhHbRxg9i1lIKXogKE3xs6mkRMdLP0rFsY8tESNO80Dc1fniG/vOgBx69Ns8jZqjiM2V37RjbUKPa9ebzdiUxpg82SsjsoL79nthAZOeP35fTNaNFT3NWiRR9vDHAPwqETnFGxcHKe/zD9hoiKnFFv36WwLOMzWTZFW00mJgp6vBiThs1br2Lzrmuyy4bt1zB+XaxJSzkHlRoLz5qWja8pOpc90zwEuSb6PFoN8Ddo6SOpiZZwTw72x6KoE7JyLLGxMs9YmdqvJhOTqQ8kp7BJcvLI6NExOYarsSO+fmyOqXVh1ykLjHLGg1IRu76/SHJzUPuenvj2r83IlLlduJxns99YDi8WJ6ayikoMWJckKypa11zZWqXG9VzTdBIMVJYDlbn6mvRt7t9GoY1INkpeWnLxwhufhuDU+aQmXW6aqx8eh/tanJhu36uEHaUr0SMRSX1HSd5onfw4DAxrY30inblor/ROvP198PTwAAStPI579xhWHlYcWZyYUjR3pfebMkBa5PVtTM6eh3VQWL3rk9LhU3F4deQiyU0bSOE99vfNKCmvG8PF+rR+nyq5TyxOTCdSaa8qEySmMA4fR6cxacmIZGpKBp4xdbuZV4SRX0TAUSLg2bG3FwaNWoZrcZkMJw85TixOTFtuUHIrCa9UXYlJpYZ9cDy23qjvAm8MwNlvH663pjBey1adwFNvBID2faPAYH2FsgY8N3wuIjaa7kUuPI8dmx4nFicm2vO9y8Y0dI5MRJco6cL/LjLR5E37GMiaHmQNHYOzl5Iw0l2FLi6z0aV/QP3SLwDOr8/HrGUHmKT0kEtKAlYsTkz0YNITkduAUAmx413K0/2IdLZYO9m5h59A2Rg23hg2CTGxAWy8AWR9yfryUcQAIyYmjcmSXB9F8LM2KZfUGTExYmLExDCgOAwwYmKgVBwomSSjXEnGUmPDiIkREyMmhgHFYYAREwOl4kBpqbcye45yJTNGTIyYGDExDCgOA4yYGCgVB0omyShXkrHU2DBiYsTEiIlhQHEYYMTEQKk4UFrqrcyeo1zJjBETIyZGTAwDisMAIyYGSsWBkkkyypVkLDU2jJgYMTFiYhhQHAYYMTFQKg6Ulnors+coVzJjxMSIiRETw4DiMMCIiYFScaBkkoxyJRlLjQ0jJkZMjJgYBhSHAUZMDJSKA6Wl3srsOcqVzBgxMWJixMQwoDgMMGJioFQcKJkko1xJxlJjw4iJERMjJoYBxWFAjJj+H4iqzsFksEr3AAAAAElFTkSuQmCC;" vertex="1" parent="1">
          <mxGeometry x="730" y="1920" width="66.82" height="30" as="geometry" />
        </mxCell>
        <mxCell id="Sct_ijZb0S9W05oiDWKm-172" value="" style="shape=image;verticalLabelPosition=bottom;labelBackgroundColor=default;verticalAlign=top;aspect=fixed;imageAspect=0;image=data:image/png,iVBORw0KGgoAAAANSUhEUgAAAS0AAACACAYAAABeFj9qAAAWe0lEQVR4Ae2dvesFRxWG/avsbGwUUQhBRfED00gKESKojWjhB4qkCUQhYqGgBCtRAlYSBLESQQUFRcGPKkWKFFteebgcnExmd2fnnNnZub+3WPbevbuzM+e888yZj937rmVZbtpkA2lAGphFA++aJaPKpyqVNCANoAFBS5GmIm1pYCoNCFoS7FSCVbSlaEvQErQELWlgKg0IWhLsVIJVpKVIS9AStAQtaWAqDQhaEuxUglWkpUhL0BK0BC1pYCoNCFoS7FSCVaSlSEvQErQELWlgKg0IWhLsVIJVpKVIS9AStIZC6623ltuf/rjcfvnz5fbKy6qQgvK+BgQtQes0aAGov/9tuf3qteX2vZeW2/PPLbdnP7DcPvzB+/aFz+0LVpVaNhK0BK1u0Prvf5bb73673H70w+X25ReW2yc/fIfURz+03D7x7HL71EeW22c+dt/4/MXPq0IKyvsaELQErRBovfnmcvvD75fbz15dbt/46h1ERFEA6uPPvB1QBqp0L2jtV1YB7W4jQUvQCoEW0dQz77sDiogqBVLNZ0FL0KqFsqAlaIVA66c/vgOrBlClcwQtQUvQEoxCYFQrJEFL0KnVivc8RVqCWwjcBC1Bywuj2usFrZOg9e9/LbffvL7cfvD95cbUf62DZjlP0Ho8n15Ve4JWB2i98UZ5Jo31SMymXVUMnnwJWo/pV48mel0raDmhRdT0178st9d+sdxe/M5y++yn77NoAIqp/nwmjQHnXs4cma6g9Zh+HamptXsLWgehRTfv9V/fu3mff/7/q7kNUECpNDtmxwStsn00eyjorUEqPy5oHYSWPXaSr+g2KNXscyc8wndFWoLOWToWtA5Cay+SErTKkdSWXbApY31ErmcJX/eZ19aClqAVAoraSAtAEaUCKaJWutU8l8iKeh4DEkxkgz0NCFonQ+u5jz+mKNegxUQEYLKZU97s8NKL9zc98MaHPYHqd9ko14CgJWiFgANo2cPRFkWx5+FpHqImimIpSC5AfZdNjmpA0BK0QkACtHgfFt08FtHyWpqjYtT5slmNBgQtQUtwOaiBmoqlc/oBWNA6KFjv7CGLTyVo2UAaaNeAoCVoCaIHNSDgtAMnwnaC1kHB5o/lbK0/yn8jSlOkNVbwEZVGaYz14ZTQ4lk/HqV59Sf36XNmqL7ypft6H9b88Jlj3/3W/XEbZq84n+t4LbBHdE8JWgym8085vOed2b8I+3ls3/ta+1cglmSgH7RkeuKYzYJ6NdS7HJa+vaOffOdlolyUkT8YsXLNMrs7BbT++Y+7YTE0CxLTd4+zUBGQEMWkG8f4jY11Qky/s1aIVwIT7fBwM/8KQ9rm5Jq9B1pEXqzTQihHNvJaqihABDEeSYtzuYYHvEvl5dlKXp9DObEVNks3jrHWKhc4jUJLXtK8M/NYyhPHqFjf/vq9IaIxqt24hr8nW0sXGJOWlRGt5JrCFmy23gwb0DBS5rV0Rx0HvPgPnZFPW4aSl4m6Qpmsfljd4KkEbH3l2d9LQ4upc6bRbeU0hs67XC3fzWG2ngiIUWGAwJ7YcHTLPdNrEMqR7f3veSckyCcREMI8kpaJFPDkZQUgpEflTPObf+acXNQseUD4R/Ni53PPrb8QA4j4y86v3ZNu6fEgbMdxtEVaeRn3vqMDK+8WFHMb9/pOA2x/ybbnv62yUTe4HrsQiV1xAfAloYWgcACiiAJVraMAWB5FpEJrEfjWvWt+Q0ClPGEnKnJNGvk52NaiN/ZU4Fqxk58StGqvz/PCd/y89RdiQKvV9kDWfEhZib4oQ5S28AG6GfEYEhrg3j3qCvbGTtjetGJ2HLm/FLQwDHSPFFSpgmwdQ+B0kdac0lpxtu659xv26AEtuhKUE2AdKRf5mQla5JdhACJpynmkrHu+sd8BINrZ6uKuaarlOO9xA77cMwq+VpZ8T2PENgLKJdtcBlqEoRi/h6ByJ2x9R+Bb0IroHm7dv/RbD2ghQroUjH8cjZBmgxY+o4ITEfWu4NyD8a5SZYs6NqquAEjGu6LK0ZrOJaBFi98jvC0BYO/YU4EWdiDCaoHwbNCirC3l3NPK2u80Ati2tVJuXUe0g/17w3etbNz7rGhyzQ7DoUXYjiHWjHT2cfKyFWmNiATJU3T30GNX8jNT99BT1tZr0cnWGN1ahdw6zvgV0U5rnqKuw/9MvGzltedvQ6FFvxxDjmo1Sk4UtPYrhaC1byO0RcRFtzSiAv/5T9cAltUZ4DlqycdQaLH+6Oh4ihmt117Q2q+Qgta+jUyfDHt4l0QQZV+tnlA+ynZ0nWMEwIdBi5kcxG/Ovcpe0Nr3iaC1b6NUz3ua2qvIrF87c0wuzfvWZ3pIvcbutmwyDFrMsFzREXsCG9HikSeNaY2fWd6qwFu/ofPW8S0eVWtdi7eVp6jfyNvZM4pDoMVA9xUGFEuOE7T2owhspIH4fTul+sJmPOGxFUHkv2FjrkvTueJnuolnLj4dAi1ajxERS43DBa39SiJo7dso1xpdqdKjUzmo0u/f/Fpcb4RojzoHYGzje8QkGOmcuQxiCLQIlSOMhTCYWiZENUeke4zJhsNq7ydo7VfIR4MW2kBHqV5y6ER8R5u10RZjvhG9EcqFvwAgi4lZ50XaLJ8geLDH5bzlow6eFW2dDi2WOWBEr5EQGobiCX2cwQJVnMHG9DBO4TjrSXg0yB4m5RocuXb/M6DFPY5s7333uDEt7Az0sZmBn7zP3j2kTECEPeOrPCxOtMDGMgXTl5V5TS9HjpPW1kPhaZSFZsnbkfTzcykfZcl9ld6Hz4A09W+eTs13gO+dJc3ztfb9dGjxCAKirzHE2jk4n1dvHJ1uZTAbmCFQ0sapGDu9D3nbWlyan59eW/OZh1tpkcjLka3kQMoChGvue+QcymgVmqgY4dM4ULlJh7dO5BWBxsFjG3y6NVjteWA6Lztloyx7z9KxDolrtxq5PO297+hr780J6M9bRygjkVRJN6Vj+JM61Qpprjva/S3lo+bY6dCKqGhUVNKpKeDWOURltKyIEidj+J7QIn2gtZWnI79F2DKtZEAHWyD2rQYBgRMxp3mdAVrYHz8f0Q7lJOqJahyw8d74D797GgDyuneP1Hf2Gb9in1QTRz5Td6hTll6v/enQosvmFQCGje4/EyLT0tMV6xVpXRlaCK5F6CbMGaBFJLHlWytLaU+06QFJXvlL97Bj+blHvqMxz9opunit9bMGyFZGz/50aGEUr/OBVmndkscQdi2tcN71sd/Ye/J+VWgdjT5Se9jnq0OLCPKVl31RADDAh0cgUjqXBmItkmU8lt9L19Uci/Blq8aj9W3ayvenQ4tIq9Uo5jSuJ528MGd89+Q92qkR3UNa1SPdpTUbzwAtxjLX8l9zHNB4gJLqd+111xF2rCnL1jme7ikznr0CCsvz6dBicLM1/DSns6dF2RtItUJG7h8NWnSZIuwTUdl6DsQTaXmhhZ1Ig7RSLR79zPV0N0t290RzUWWkXlG/jpaL86MawZJt7Njp0LJ3Z7UYJL8Gw/ISu+jxLTNOaS9olSvbU4EWQwfe9VNrETeD/p60AUbEmxeIlFqhRf3wjI2W6lx+7HRoYRCPY3JwYSScxXjF3lRyXviW74LWvNBi2USLz/NrItZQ0c3MG1tvgw5oSCPPb8v3vJ7VfmdtGfZpuWftNadDi4x5QuA14xEaIwTWivT8CyRBqyzIGSKtKGhFDHEAGAbd04rKOJdHX+h/axIpvdfeZ+pR66RD5LKeUj6HQKvns4cYGsfjQFYfI4TIgUGPqNa6BSXH1ByLGIh/SmNaUdDydJ+s0aV3kD/SQ2/BM15GlMOYG90zz0YDBHgsr0f31L18HV+NnmvPGQKt6C7imlGBBOKgVePZq4hZMkHr7dGBCe0pRVqU2bN6HL2io/yVLhHdTsBF2t5trU7VHAdarevhTE9b+yHQIkO0CB4A1BgvPQdnAi/E5nlGypNnRVrrrTe26Tl7iP+jIi30y2NNnqgIHeUD1j2GTdI6cNbnyLG1EryGQYtBSISEWM8yJvex6AvBtaz1ErTmjLSioeWNLNFfDlEa1DPrQq970buJ6NWUgMWxYdDi5qwHiZxJPOoEWgRat7XVySWjCVqCFrrwLpIGWulaLcaAPNo6qv2e5wOtiKUXpfrHsaHQIgMUbiS4iLy4f23U5REW94qcWdFAfH1kEh1pMYhO5Wyt/OQnXRoAtGhEW9O70nXUkbUV/2sgOnJ8OLTILJUPh53dVUwdzeBhPsZQMqSgNW+kxb8/lXzacszbYJSghQZTTc76mTriGTfe88cloEUm6aKxNsTTenmdXAMuQatc8b1jPDRYvQfiBa1zoPgkIq2UrIif7ppnZsYDL+6dr59J8ydoCVrowbvAtDSm9Ujdw9rhlrRu1X6+TKSVZph1XMysEPl4INEKL8SztiDVkx+Naa239LNFWt5XLOWzh4xpjWqoW+vJ2nX0lp4ctAxggIMHogEFhjhrzCsXlOWHvaClSAsdMP7p0QLX5mOoj7Tk4aFnD1MgrH2mFaLL9uUX7l1HHN4bYER5pee4PEJVpDUu0qIhihzT8v7ZMDrKV8Q/yuJSAoytIZa1el57/JLdw63MAxKczaA9YOkVUiOq0h8DCFpzRlrohFXsW9o68ptHB3SrqNh5NOIFIemSL+rFyI0/PnnYxaVHRFI6l5fo2+NAiGCtj91ynKgIMOb39YhVkda6j7BNz9nDSGgx0+0dNOf6/CWW3hcMok3G2hhWoXEfudE7yutO1PfpIq1SwXkkCGex9sUDlRxutFb5gLwnfUHrMaDlHYRHZ2grH37wpos2mX0v1ZFHOvYQ0EodwuAmgsgB1PK91BoKWuVKcfV1WpGRVsTYEzpKdctnz2uO0TeNIl3MPN1H+/5w0MJBtsK+BVTpNXQ586lbD7RImxmiKBF5V2VH5uepQMv7bznYHLgwqZTrgKje+0gbDXb+RtT8PrN/f0ho4RRvJUJcACqf4fFCCxBG9fcFrfqImkgrfUC5teJGDZazlKeUB55NBWror2VDnz2f+yvl+exjQ6CFePIIJrrgEX8tjgDyMQIvtGgJo95lL2jVV+wIaDGNHzH0QMOF70qaB2bktQVYdg3Qi2oYS3kcfWwYtHC+vZCvh4EJkb0C6wEt0swXFbaKQNCqr9xM0vD22lZbM2jubbAMKnQB8wkey5d3XIt7kM/INWmWt6vsh0ELEdEi0OrQstDCREUgGJexB++0NM5nRid1VoRwSWNNtOm99j4LWvXQojKjtZauE77ydtsMWGie/y7Y8m2ExtB+VOO4lVd+Y73ZmRMAQ6FljmQPuIiMmJlhHMn7jumIsQdEni8AjBAUwqWc3ghT0DoGLXSGxlhkWttoEPngL7ZUr62f0U/eEOZQ8K7XsrwBLt7Z1WNgngADKBJ8WL3Ny9Hr+2WgZYZGHDgWQ9B9JAKjcuZrWtYMAuwAVgRccDoLWNN7RbW4OJtt7d+CABplYeyPlrlUyQStNpDQQOJbHsrHhtg2bUD4znF0hA5NmxF70iv5MtUYQIi6LxqzqMsTCJhNABV1gPxZHbNGOC1Dz8+Xg1YqDIyBwIh4MBIQY6oYsTFATkTGxmeOEb3gIByVptP6mXumYsYRERFcmh8cT55Zfc+KcMrHZ8rA/Sn72hiIoOXzs1Vo7IzW0BcbNo/Ukfmb+6VvK92q2D10RjmpI0RyNJboh2EUGmY2/uiVyJIJB6JBAEV+gRT2YEOv2MrKxF7Q2pnqxUA4H+OlG8dyY6aGPfqZtEpraXAk9z2a3t753C/d0vMRW6l1FrTi/ZDaPfozfgQKW7Cy3wCId81WKf9ojEAADRuI8j3QtrpVU69IExha3nvvLx1plYx+1jEcVxq0BRQ4+ax8cB9B6x5JU9nOtHvkvajYW89Wlio6UQ7QiMxHj7QErZ1Iq4fRS2kCrdIAJt3FHpFWKQ92TNCaH1pETbVRlgGMcVx8bzq46l7QugC0gNLaimUExRqYM1tAQWtuaKGV2rEsA5btifavDi5B6yLQKkVZJiRmd3qMN6y1pILW3NAiai+NSZqe9vY8QXJ2dL+mxdJxQWswtIBRzVsXzxxvELTmhRa+q9HTHrgY6D4zui/Bae2YoDUQWrSILJ3YExC/M95wVrQlaM0JLSZstoYZanRm5xD5s/TgiuAStAZBC2AdfTaNhZ8AZa0FijouaM0HLfQU8VYJgxZ7wEXEdbWuoqA1AFpAofUBU1rS3ksgBK25oIUeooGVwou0z2gsaxvdJwEtIporrLkh1KaLl78zKxVIzWdWGPcUkaAVAy0qV+8oBT2xALlGN55ziPKB4xXqEVHlwy8uxeBQnMo4oo+OeLk3K975kwKPeOxawIdgSbu2hao9T9DyQwud8aC0demjKzswpPKy+Ng00XvPjCRlQnfR5dnTJjqnvJQb7eePu/Us+5AV8VYgFtsx8E3BaTXY96j05gAcCwB4ALmHuHh+ixaHskSVg3T4S6bSlLke46lvIPC9ddmYRLGHob1+QrNoimh7a5mMab7HniU4lK13HcJWVl5W99MA9CjPXppDoWWZg9IAjPGh/OFMWsgWYXENQjUj8x1h5W9tsDxE7nFm+iT8kfxzLmWmFTPA5q/HsbwylQ7QEGvLRvrcx9Lz7OkS0eK35INryMtWF4PGzRNNcG3+v4dojmibe9c2mKYr8sw1r7xc/wYSj31rrqVhI+qxhhPfUu4j+rMG3nRIGSkraWEr0ve8LaKmHHvnXAJaeSYxPlEEb2+gBQEAVAjExWZGxJC2cYyN3zmXaxApT6ufAaq8DHznoVcDseU/z3ueb97wQAUFfHuv46Fl5xzvVsr70WP4zJuPUjRp+egBLUubIQIqI5Uy9ZP5JtUV/qHxQ59ndoksr7V7fEFjB1SJiijDWtmsfFZ32AM+JqewCzoeFUWWyntJaJUyyjEcQShMC4loiDTY+Mwx4MQ5a9ePPI7TyXsp3xy/ar5H2iy9d09opffhM75AS2jKdDU6usjz2PIdDQLotGyUDyihQcp4JTitlXEqaK0VQsevCepIv5wJrch8K614bQpaS7xRJdR4m3qhxThh61o8+TPenx6bClqC1iW707moBa1rgSP3z5nfBS1BS9CSBqbQgIFR0JJgpxCsIi1FWoKWYDUFrEyoEdAiDUtP+3ltoUhL8JqiIgta80ImuoEQtAQtQUsamEIDBj9BS4KdQrCKtBRpCVqC1RSwMqF6ocUzeBrTegzwKdISvKaAl6D1GMCxRsizF7QErScDLR509lQWXXsN+wlagtYUFTki0hK0rgEdL/wFLUHrSUCL90JpTEvQmkLsXqrr+msI/Uiklb/Azt6vxrvV5M/5baBIS5HWFBV5C1pAikiKF0IaoHh5JJDifVEzvCNKMK2HqaAlaE0FLQDF8gUAxRs2+c773nnLLS9Y3Hr7qcBQD4Yr20rQErSmgJb96wyvAeYVwrxKOOqflK5cQZW3d4JW0BK0poAWrwK+8jvZBZd3wqWXTQQtQWsKaPWqAEr3PNhE2VrQErQELWlgKg0IWhLsVIKNaq2VznwRlvlM0BK0BC1pYCoNCFoS7FSCtdZW+3kjJa/vBC1BS9CSBqbSgKAlwU4lWG8rrevnj9AELUFL0JIGptKAoCXBTiVYRUrzR0peHwpagpagJQ1MpQFBS4KdSrDeVlrXzx+p/Q9hlgCjDWXaaQAAAABJRU5ErkJggg==;" vertex="1" parent="1">
          <mxGeometry x="800" y="1920" width="70.55" height="30" as="geometry" />
        </mxCell>
        <mxCell id="Sct_ijZb0S9W05oiDWKm-173" value="" style="shape=image;verticalLabelPosition=bottom;labelBackgroundColor=default;verticalAlign=top;aspect=fixed;imageAspect=0;image=data:image/png,iVBORw0KGgoAAAANSUhEUgAAALoAAABECAYAAAA2li+YAAAYpklEQVR4Ae1dZ1hUR9tml6pRQRGUIsXFhoIxyeebNyZRQTrbAMEWOxojVpBYYiHRaERELKiJPTEqJooajZrYAhas2CkKIqjYu+fn/V3P7J6zZ2HBGInJC+fHXHNg58w8M3PP/bRZMHv48CGqKhzHQSrSGtQGDJhVBXL6fW2YoDQH6aASBiSgS1qrThCaBHQJ6BLQJbUvqf3aggGJ0SVGlxi9tpxmaR6SZpIYXWJ0idElJpSYsLZgQGJ0idElRq8tp1mah6SZJEaXGF1idIkJJSasLRiQGF1idInRa8tpluYhaSaJ0SVGlxhdYkKJCWsLBiRGlxhdYvTacpqleUia6V/P6LcfcKAigVVag9fBwL8W6Pcfc9hzicOIDA6FN6VNfp1Nlt79F36V7tlzDieKOUzawcF5LocRmRyePpOALoH19TDwr2L0h084LMnm0OM7Dh1SOLyzgMPy7NeboAQQaf0IA/8aoF8t5xCzjoNPKgff+Rw6pXLotJDDySJpo6TD+voY+EeB/oLjcOcRh1WHObgl68FNANcX3yUcHjx9/UlKQJHW8B8F+qF8DsM2c/BO4dBRBHACOrH6hK2VN6i8/A7OXyx4abmYdxXXSsrw8OEjKWIj5Qr+GdOluJxD0l4O/ss4tEsxMDjP5FR7JXPYf9EY6I8fP8Gi9Ay83/0zvB8QV23pEjgaAWEJiIqZjrT0DDyQAF+nD/wbZ/TjRRwCV3LwTeXwdgUWFwPdfg6HJxWiLeW37yJqwFSYuyph6al+efFQwdxdhbdc1OiuGlunN7qum29vFOi/nuegSDY4mx3nc+i8iEOvtRz+s9DA7O1TOAxdb8zmtFGXC0rQwEsLi5ZqWHlpYOmlgblCzX6m31Exp9pDxQ4BteGLzDYYs1PXSmCvo2bMGwV6XIYO5ARwssEHbeKw/zKH1IPG7O6ZzGHd0cpAz9xxCHLbIAG8DT21GDlpIcZPTxdK3ORF6B87B91CxsGiebjQlg6Ee6f+EtAloFf+q7o1qe4oetJqns4m776Mw+ocDqV3OVAGdNhPBpYn84WAnltaGehjJ6VC7qwDr7mnCp0+jMXz589NgrfgyjX4hYyBhbtKALu7e5TJtjU5T6mvyvv2b1iTN8boRwo4NJ7NYcgmDhfKOJSUlSN+6kKcv85Bu9rA6MT0qpUcbtyvvGANXFSQ680WWfMwJC/8vlrgJn3zHeR6Vpd5qOCvrtpOv5R3Bdt3HcRv+4/i5q3yavv9uzbuxYsXKL5WxmQgWQ5k5aC4pOwvy/L06TOcPnsJu/Zm4VTuxZf2w4+/c08Wtu06gNO5l176jngtbt+5j4PZx9k6Hsk5/Urvivv5O57fGNCT93JYfojDnbv38WPGbtg19kP6dxnYeZ7De2kGoFOoccpODg+eGAP9/MVCyKz8BXaWWfaodiOePXsOP9VomLsr2TuypiFYtmqz0eJTqHJ9xm606tAH1J+sQSBk9QIhs/RHwqQ03Lx1G1/OXAkz2wCYNQuDWdMQqNSfg5xi2ozzF67AzKo7ZHbBf6pY2IZg/IxlRjI8efoUefnX8OU3K2DbOgIyy+46GUiWt3Sy+IWMRtbhXNCcKoJgzaY9sG4cqmtbPwDvdh6Mg9knsHJtJiw9VJBZ+8PMKgCNvCLZuweyT6JVh94ws+jBSmvv3ti97ygO/XGSrRcbv0GQbj6WPfBO56H44/CpKjXno8dPcORYLjSfTILMsptOdloPqwA0cdRi1+5sHMk5A4fmoWx9zeoFwtKmC86dK0DZjXJ84PcpzGz0a2/hj759p4IOXMV50s/XSm7ALyiO7Y+ZRQDqNwzCvCUbTbat+P4bA/qNexz+yD6FvrEzUd9VBTO5Hy4XFGPRYQ6t5xkcUQo3rsrh8OKFMdAXLt8EWdNQBlrLlmo4eUZUOUECxPcZeyCzDRS11+LGTQNTHztxDhExUyBrEgS5h868sVBoYKFQ65xcuyD0GfYltP2nQtZCCTn93kON+AlLhHHXrv8F8sbBwuHjHd+qanv3SBzIOi68/+DBIyxYkgEvn36QO4aCzDFLcq49VUwOvh+LFkqYNQrGsnW/CO/SRhJjf/3NOlg0C9PN01ONzj3iEDVoKmzsQ5mjTn3IHcLwdfJqBqDFK7dB5qabD83749CxmDQ1HY2ah8CshRK0tvy4VFu6KNGx8yAQ0VQED8k/J/UHuLTpCbmrjlAoQMACAwo1W1ffD4YiduwcvOUVwfolU/Ij5Wi2F3fv3ceAT7+GhYv+XXcVNNopjAwrjkV7+tm4VMgdQlg/smah6D9kNluDim1N/fxGgH6z/DYmzlqB9p0Hw8IljG2ol29v3H3EIW4zBx99LJ3Cjd2XcjiYbwxyErxL189A5gfbuBZK9Bk2HSWlN3GlqEQoFy8VYt+hHCQkLoajTy+24LTwMvsQLF+dKWzU4Zwz+E+XT2HRPIyBmjZGbhsCApRzpz6wahauA7+HCnYdesJSoYveNFZEgdQ6v5Bh0RMgq+cPeaNA42IXDLmnMWAIxK6uWty5e094f3jCfNi21MLCTT8vxzDYuavh03UIrDzUMHcyONMkY/PWvXDh8hXh/dt37iF60HQmNw/OBm0jUc9Ly3wZeZMQyB1CIavvj6PHzuLho8eYMCUdFqJ+7X1iYOcZAXmjALi91xfOvr0gp88VBvnljiGYMtNYE9EafJ60FLYKrRDhIrDbOIXD678DUK9NBOR2IbBqpUXDdpFsnUlGGjt+4mKWyKO8yLQZKwwH1UOFHiHxzHzj15iv01f+xLQqO0gtlPgoYOQrmZh/O9CPn7qAbv5xsBKF/Gghp3y1FNfuGIcVKRoT8wOHonJjoJOd6uzcU1gsK4WGqWJnl2g4OfcUSnOnKNh7RDLmJWYigJo5BGPM+AW4f1/3HzzocGgiPod1Cx2LUCjS3jsKa9bvRH7hdVy9dgOHsk/DsV0vyCqwm4trJErLbglAO5pzDoeyThuVI8fO4dc9R+Dg20d4n8wnM6dwHMs5J7xL/omlsxI0F4oIyWz8MX/JBhReuY6S0lvIv3Idn45LhnkzA9gbKLRYtvpnoY+Cq6WoRwdFBEoLZyXeclfjs4R5WLVuG1KXbEC/2Bm4XnqLmWJ+mnEs/MofDNIGgcpxyD6Si6JrN3C1uAxLV/4MWw+twOzkFzVoa+zIr1i7BTZNwoQDQeHbiAGTceLUJVy7fhMFRaVYvHQz5HbBhn0joDuGY+nSTKZdSGsvW5YJC0e9pvZU478Bo3DhkrH2OHr8LFp4xOi0HYWPPVXIOf1q/sPfAnSysW6V38Hib3Wn0MJNByp+ceWNghkYjhRxcJ1rMFvIER26tXKiaHPm77BVRAoLz/dTXS3zVKOpoidiE9Nw794DBg5Sf/PmZ8DMUcfkdBhavN0Xv+47JoCHZ5CtvxwAbR4/BvX3dkhcpXZ8e6pp3pfziuAfFA+ZnqWt3VXw/nAI8gpLhHf37DuKJs300SCFBg2ahWHbjoPC53yfBDzXd/owzURyUI5g1JTFQrtffs02CrfSWCHh8cjLLxLa8H1Rff7CVdDa83Mi8glTTsDV4tJK7buoxoLmzLeVWXYV2lzOL0JzV8NndGBHJiQLn/NjsgTfwGng95/MsjYfDGY2P99m09b9aESMr9Aws6ktfX7klNAXmZuhykRmbpEs9V2UmJ+64U+bLPw4NQ70+w8eInN7FoKiJkBuFwSye/nFopom66CIxJWrpZi7h0NbkX1OTum3Fa7lEnjGJi6ElWjRyW4kFjCUMIGlSLXZtNIiuM8XyBItGE24tKwcnbt/Bkt9yNHaXYNp01eadLTyC4shswwQZJfZh+K7tQY25RdQXB/KPgn/kDGQu+hs5nrOSqiiJ+HMuTxh4+jQaXvPEPwCCpfGxaeC1k3cFz2TM9wjYrxhbgoNEpIMJgRpBWZm6O1iT59+OHshv1I/fL8VfQp7zwj8fjDHZPuvkr+DTG/i0JqaNQpg7cgvSPxiCWz02o5A3CVsDMpE/g8/Hl27oL3jTSVyjnuEJxhFkrKPnYF3lyEM5AR2W+8oZGw7wMYi0+areetgw2PIQwV1zBSTB5Mfs6q6RoFeeqMcYxPT4NSuN8wrsDgPdrKDI/pPZZELv6UcyFzhU//vLeJwutjYbKHNDlcmCuAkkCu1k5GWthkLF+nK7Dnfw7dbLMzJPCKgt45AcPhYI+eTFmDHriwjRnNyj6xy0Y4dz2URBF5umbUfKDZf1UJu2rIXPp0Gw9IlnB1uuV0g4kbPA7Gf+B1iqzbvD9JvrBrNO/TC9p0Gu1/clkyY9h8PERi9oVcEvl27RejP1asn5J46zSBzDMP0uSuFz8T98M99h8+AXG+ykTmljEo0Gcmh9mMmpUCmdzDJae3oP4z1nV94DV1DxsCSH9dNiZT0n/DMRD7j3v0HGDYqWXA2Sdbew4wdyLyCInwUSP3pNAQd/G9X72BjHco6gRbtYoTPHNwjcDjnbLVz5Odasa5RoI8cnwybZuFsE3mAVKzJJpw1Zx3yy56hZYWruR0Wc6BvGImFzDl5Hh27Dhf6JBsvPT0Tz5+/EAqxzKncy5DZ9DAwsFMoJiYZIiTU55BRX0NOdjE5qO5KaPpOrDKUlbL4e8gcdLYjOZJe7/Wtsu2i7zbDURHFwnmkwSgcOTdlHWijxXMh7bRs+VZYORmiJN2Cx1V5gM6eK4RVE4Op4eAehZwTuo2muD+FRPn1pdBrfjUHkeSo1yiQ+QRs/o1DkLFlj5F8YlnbtBsgOOGUi5g6azlrm7nrDzj4kr2s085tPhhiZGqI+7hedgsd/WKZTU1jNlTQQd1qNCaZNyr1JIHISEvPS9mAe/cfwsErWtB8sno9sOaH7VXugXhcU881BnSyf82cw4WQFr8B4prYlk7u6g17sOEYZwR0MmGmbTcGOQm8euNuWHtpGVObsvHEkyKHjh+PHEl3735Gi2rbJlKQj0KVFePqfF9PnjyFW8f+gjMp3mi+DdUUXpudthHWpEko/EhOm5sWKambQH2I29IzqeIvpq9gDhnJSSZUZNQ01k/FtvTz1ylrIdeHVMlebt/hE6HPeYt+gEzvxJGz2LClVvjMVF9/HD4JmbXIFLPsUeUBO3nmIhydRT5Rk2AcPnqWEQtpUcF59FChW9BYFF41+B/isbOyz0BuaxizmVuUSdNqwKCvGUnQmtC1jclTv0WfYTNYWJd+J3dR4pMRX1U7P/G4pp5rDOgnTl8EnToeaKZqAsLbHw8HRWIG/mgIK5Lp4vKN6Wu505IqhJ8q2HjiSTn4xAiZUxrfza0nAxe1IdanZAgvl6xJCNZtNI5L8319n7EXti6iqEOjIPy2z9iWpexpwsQlzI6leZFJ5vbeJ0hft6NKc4AiP5+NTQFFRkgOAnqv3kkmHSsyk5zb9BTMFlnjQKzP2MU2m649fBgwkplq1A8dxIkzjLUXPxe+nvhlumBz0zuUFCsy4YSSr0Dmp2CDt1DCXzOe+Qt0eL+atQYWjnqN5KFCQEgCu/fPj8PXZJ+HaROE0CeFR7079jdJANO+WQVrvR1OhOH8Th9Ye+hMGfIBfD/+FCWlhhwIP8ar1DUG9C+TV4DS8jyQTNXkjKi0k5B37R46LzHY5jzQ7z0yZnRSa5p+UwSvndl4scY2nniyyr6fQ67PhNL4Ts5RLMZObe4/eMQyd7xclARSDZpuxBJkWpAN6Os/gkU4qC2B2M23N4qKDal4cvhien0Bs2ahTNNQEuS/QSOxe1/l6I1YPtIAoxIWGIDuqUKA0tg5o/ZXi69DqUkULqWRuRamjhfu1BdeuQYnJ9FBtA3Eb/uND6J4XAKo7zsDhUND85I1rnzQnz59itVrd8CpTS+dqajQwK51BFau3c5s8MdPnmB60iqDRmqpZv6GOEpC45LZMWxCGiipI6y3czgSphsiRmL5Nv28B7YtdQkltuZ8uJSiYj69kfHTbyZ9AHEfL3uuMaC38x7I1Dc/MVM12brDExbgN0r7i67lUsKo//fGICfBC65ch42bWogTm7LxxBOM/yJNuPRF4zu4RuLYcZ1NSyA2cwoTTBcyo+p7aRE/bRG7D3LuQj5mp6xB09YxsBLFz4mpew1NAiVnaKxTZy7hY7+RsHZT6kCu0MDeJxoLlm5Axta9lcrGn3bj8LEzjLVJq8ymTKajLrtHMr7lqsbA2Fk4lH2CybHqh0x0/mAYrPXhSWI0r3f7GWUmN2f+JoRbiSlt20SwtRKvhfiZDiaZDeI9YcypiMai5ZtwKvcSu1czcMRM2DqrYa53DClEqomcKmQqyS9KW5hhJD9Fwz4IiUPmL/uRey6P1T2CxsDCQ5dh5seUWQeCzCexXPxzzslzcKwgH71n4anGsPj5glbm2/+VukaATp5zc5eeRgvJT1BcN24ZiW07D+Kb3zm8t8DA6PRtIlPXcivGiauy8fiJU8KFMoH8mJTxo3g4//kEUTiO2pBDRVqIbFcKJZo5hMLGS4t6rQxsSWp6ztwfGFDJD0mZ/yMsHA0OIvXDEj5NQ03edzFr0B1z5q4RzJO9B3Lg8W4/HWPq78vTF0kICCQDMS0lREg2K3cVWr87wEhT0IEdnpAKc72qp4PYc+A03L5tyLjy8+VrcgCJJNi6UNy+dSQs9NqKxmPj0r0afUSGklgE8rc7DTQKBVJ/e/Yfg3tF+elOTaMg5hybvRUASzcVGrWNMhCfQgObhoHCPvBy8TXFyl1cRD4ByeahQgefTypFzvh3XrWuEaCvz/gVti007EosqfGqiotLBAqKbqKf/nuilCCiQtGXc2WVGX3MpFR2v4X110JZpY3HTzpz+0F2cYgfv4GbBktXGWLfBYUl8O08hLE+sQUPdsqOWjQLhfeHQzFqcho6dBnKwqPEpraeWmzcvI9tEqXv+wxKgtwxrMo58mNTTSFW21aR2LTVcNjIIU1O/hH27aNZ6puNTfdb6J4N2fq0fk5haOIdhZje0ypFNFgCJXwCzCmX4K6C3D4EM2etBl0O49dBXJMWoZAeH4a0cFWy+yVDx89jl9RojpRZZePTOjiHo3n7aET0nF4J5NQvmSWTKY7uEsZMSiYzyU73c1yVaKqIQOyouVD2m8w0KMkoaxaGnoO+MCkfL6t7u75CzoXMRQe3iEp5EL7tX6lrBOgLl2cgPDoRYb0+r7bEjpgJ+rMWids5DFzPYdCPupKwlUO5iT871yd2GgK18QiMjGf17NR11S7W6dzL8A8fpWsfGY/QyASjuDPFeg8fyUXc+FR4vT+AAbahp4ZdMpqetAJZR05j/x/HoYyZgO7qseimGoOBn87CRf39Eorp9x+eZJCJ5KqmBETEIzZuDi7lXTWSm8C+ZWcWxicuxPshcWjYNpJFrBx9YxAQmYDEKenI2LJPuCUp3ljqa3jcHIRGJyI0JhGhUfHYtfuwUf/i9nTlIUg5wRDVcAxjB438n+R5G+CnHoeG+mjU/wWOwOgJacj4+XcGaHE/4mc6bIuXZCAsJhEOPtEwo+zvR4MROyoZGzftxfXSm4iOTWKfEyaCNeOxZfv+KmVkppV3bwHodHiXrDDkC8Rj/9XnGgH63XsPWMqf0v7VlTt37uHpcw53HuqATeCmQpe7Kt5WpAkRsOhCGF9e9gXnp8+eGb1zq/y2cMeFXyAahyILdB8jr6AEBVdKmXokR4vaPHr0mP1841Y5qBAg+GQIRTt4Wf5sTbY9/z4vA1/TXyigq6qFRaXIo3s2xWWsf5LB1HrQe8TQJJN4nXnZ+X7FNTmKbbsM1oU/FRoGzK07DrG5PtOvF42ff/U6KOFHa0zmkbgPU89kxpEMV4rLkMfu59xkeQN6lwpdgTbIeLtKO5syxZ/0/xJ0fYE0LF20GzJ8tuAXmBr7r/yuRoD+VwaW3qlsqtX0mhDg6AIVRW2YmeapBv11hIt5hhuQNT3mq/RHxJG+ZhsLLbIEVEs12n84FEdycl960F5lHGorAb0Wf4eSNAZdiRXumrirEBE5rVqz5FUB9Drtj5+8AO/OAwWzqr6bCvOWGn855nX6F78rAb0WA51safqSAzm8xOj1Wmow7asVNc6WYkD92edHj56gS9c49sUOko2uIw8ZPvNvO4QS0Gsx0PPzS2Btb4jZN/GMxN791Se1/ixQX7fd4NFzINPf+aHLeC6+vUA+3Ov2W9X7EtBrMdAzftoLu+bhsFNEsuLdPgbl1cTbqwJJTf6enGzKbXh46mQi2Zq6qEBfYqnJcSr2JQG9FgOdMo6UoOML/TWAigB40z9TtIYiQZm/HBDkou8NmLoEV5OySUCvxUCvSaD8r/clAV0C+j/O8m/iEElAl4AuAf1NnDRpjL8/cSStsZQwqhNsJgFdAroE9Dpiukk2eh3Z6LrO6hLQJaDXCa0mAV0CugT0uq7upPnXnoiQxOgSo0uMLjFa7WG0ur6XEqNLjC4xel1nAWn+tUej/T/JO0dlpnFI8AAAAABJRU5ErkJggg==;" vertex="1" parent="1">
          <mxGeometry x="722.38" y="1950" width="54.71" height="20" as="geometry" />
        </mxCell>
        <mxCell id="Sct_ijZb0S9W05oiDWKm-174" value="&lt;b&gt;&lt;i&gt;Fraud Prevention&lt;/i&gt;&lt;/b&gt;" style="text;html=1;align=center;verticalAlign=middle;whiteSpace=wrap;rounded=0;" vertex="1" parent="1">
          <mxGeometry x="812" y="1984" width="70" height="30" as="geometry" />
        </mxCell>
        <mxCell id="Sct_ijZb0S9W05oiDWKm-175" style="edgeStyle=orthogonalEdgeStyle;rounded=0;orthogonalLoop=1;jettySize=auto;html=1;exitX=0;exitY=0.75;exitDx=0;exitDy=0;entryX=0.95;entryY=0.888;entryDx=0;entryDy=0;entryPerimeter=0;" edge="1" parent="1" source="Sct_ijZb0S9W05oiDWKm-145" target="Sct_ijZb0S9W05oiDWKm-130">
          <mxGeometry relative="1" as="geometry" />
        </mxCell>
        <mxCell id="Sct_ijZb0S9W05oiDWKm-176" value="&lt;i&gt;HTTPS&lt;/i&gt;" style="text;html=1;align=center;verticalAlign=middle;whiteSpace=wrap;rounded=0;" vertex="1" parent="1">
          <mxGeometry x="660" y="2070" width="60" height="30" as="geometry" />
        </mxCell>
        <mxCell id="Sct_ijZb0S9W05oiDWKm-177" value="&lt;i&gt;&lt;b&gt;Customer&lt;/b&gt;&lt;/i&gt;" style="rounded=0;whiteSpace=wrap;html=1;" vertex="1" parent="1">
          <mxGeometry x="80" y="2350" width="100" height="50" as="geometry" />
        </mxCell>
        <mxCell id="Sct_ijZb0S9W05oiDWKm-178" value="&lt;i&gt;&lt;b&gt;Merchant&lt;/b&gt;&lt;/i&gt;" style="rounded=0;whiteSpace=wrap;html=1;" vertex="1" parent="1">
          <mxGeometry x="250" y="2350" width="100" height="50" as="geometry" />
        </mxCell>
        <mxCell id="Sct_ijZb0S9W05oiDWKm-179" value="&lt;i&gt;&lt;b&gt;Payment Ingestion&lt;/b&gt;&lt;/i&gt;" style="rounded=0;whiteSpace=wrap;html=1;fillColor=#ffcd28;strokeColor=#d79b00;gradientColor=#ffa500;" vertex="1" parent="1">
          <mxGeometry x="418" y="2350" width="110" height="50" as="geometry" />
        </mxCell>
        <mxCell id="Sct_ijZb0S9W05oiDWKm-181" value="" style="shape=cylinder3;whiteSpace=wrap;html=1;boundedLbl=1;backgroundOutline=1;size=15;fillColor=#ffcd28;strokeColor=#d79b00;gradientColor=#ffa500;" vertex="1" parent="1">
          <mxGeometry x="615" y="2348" width="50" height="70" as="geometry" />
        </mxCell>
        <mxCell id="Sct_ijZb0S9W05oiDWKm-182" value="" style="endArrow=none;html=1;rounded=0;" edge="1" parent="1">
          <mxGeometry width="50" height="50" relative="1" as="geometry">
            <mxPoint x="130" y="2720" as="sourcePoint" />
            <mxPoint x="130" y="2400" as="targetPoint" />
          </mxGeometry>
        </mxCell>
        <mxCell id="Sct_ijZb0S9W05oiDWKm-183" value="" style="endArrow=none;html=1;rounded=0;" edge="1" parent="1">
          <mxGeometry width="50" height="50" relative="1" as="geometry">
            <mxPoint x="300" y="2760" as="sourcePoint" />
            <mxPoint x="299.5" y="2400" as="targetPoint" />
          </mxGeometry>
        </mxCell>
        <mxCell id="Sct_ijZb0S9W05oiDWKm-184" value="" style="endArrow=none;html=1;rounded=0;" edge="1" parent="1">
          <mxGeometry width="50" height="50" relative="1" as="geometry">
            <mxPoint x="470" y="2760" as="sourcePoint" />
            <mxPoint x="471" y="2400" as="targetPoint" />
          </mxGeometry>
        </mxCell>
        <mxCell id="Sct_ijZb0S9W05oiDWKm-185" value="" style="endArrow=none;html=1;rounded=0;" edge="1" parent="1">
          <mxGeometry width="50" height="50" relative="1" as="geometry">
            <mxPoint x="764" y="2760" as="sourcePoint" />
            <mxPoint x="764.16" y="2400" as="targetPoint" />
          </mxGeometry>
        </mxCell>
        <mxCell id="Sct_ijZb0S9W05oiDWKm-186" value="" style="endArrow=none;html=1;rounded=0;" edge="1" parent="1">
          <mxGeometry width="50" height="50" relative="1" as="geometry">
            <mxPoint x="937" y="2760" as="sourcePoint" />
            <mxPoint x="936.5" y="2400" as="targetPoint" />
          </mxGeometry>
        </mxCell>
        <mxCell id="Sct_ijZb0S9W05oiDWKm-197" value="&lt;i&gt;&lt;b&gt;Kafka&lt;/b&gt;&lt;/i&gt;" style="rounded=0;whiteSpace=wrap;html=1;fillColor=#ffcd28;strokeColor=#d79b00;gradientColor=#ffa500;" vertex="1" parent="1">
          <mxGeometry x="710" y="2350" width="110" height="50" as="geometry" />
        </mxCell>
        <mxCell id="Sct_ijZb0S9W05oiDWKm-198" value="&lt;i&gt;&lt;b&gt;Payment Executor&lt;/b&gt;&lt;/i&gt;" style="rounded=0;whiteSpace=wrap;html=1;fillColor=#ffcd28;strokeColor=#d79b00;gradientColor=#ffa500;" vertex="1" parent="1">
          <mxGeometry x="882" y="2350" width="110" height="50" as="geometry" />
        </mxCell>
        <mxCell id="Sct_ijZb0S9W05oiDWKm-199" value="" style="endArrow=none;html=1;rounded=0;" edge="1" parent="1">
          <mxGeometry width="50" height="50" relative="1" as="geometry">
            <mxPoint x="640" y="2760" as="sourcePoint" />
            <mxPoint x="640" y="2418" as="targetPoint" />
          </mxGeometry>
        </mxCell>
        <mxCell id="Sct_ijZb0S9W05oiDWKm-200" value="&lt;i&gt;&lt;b&gt;PSP&lt;/b&gt;&lt;/i&gt;" style="rounded=0;whiteSpace=wrap;html=1;" vertex="1" parent="1">
          <mxGeometry x="1050" y="2350" width="100" height="50" as="geometry" />
        </mxCell>
        <mxCell id="Sct_ijZb0S9W05oiDWKm-201" value="" style="endArrow=none;html=1;rounded=0;" edge="1" parent="1">
          <mxGeometry width="50" height="50" relative="1" as="geometry">
            <mxPoint x="1100" y="2760" as="sourcePoint" />
            <mxPoint x="1100" y="2400" as="targetPoint" />
          </mxGeometry>
        </mxCell>
        <mxCell id="Sct_ijZb0S9W05oiDWKm-202" value="" style="endArrow=classic;html=1;rounded=0;" edge="1" parent="1">
          <mxGeometry width="50" height="50" relative="1" as="geometry">
            <mxPoint x="300" y="2440" as="sourcePoint" />
            <mxPoint x="470" y="2440" as="targetPoint" />
          </mxGeometry>
        </mxCell>
        <mxCell id="Sct_ijZb0S9W05oiDWKm-203" value="" style="endArrow=classic;html=1;rounded=0;" edge="1" parent="1">
          <mxGeometry width="50" height="50" relative="1" as="geometry">
            <mxPoint x="130" y="2440" as="sourcePoint" />
            <mxPoint x="300" y="2440" as="targetPoint" />
          </mxGeometry>
        </mxCell>
        <mxCell id="Sct_ijZb0S9W05oiDWKm-204" value="&lt;i&gt;hits &#39;Checkout&#39;&lt;/i&gt;" style="text;html=1;align=center;verticalAlign=middle;whiteSpace=wrap;rounded=0;" vertex="1" parent="1">
          <mxGeometry x="180" y="2408" width="80" height="42" as="geometry" />
        </mxCell>
        <mxCell id="Sct_ijZb0S9W05oiDWKm-205" value="&lt;b&gt;1&lt;/b&gt;" style="ellipse;whiteSpace=wrap;html=1;aspect=fixed;fillColor=#60a917;fontColor=#ffffff;strokeColor=#2D7600;" vertex="1" parent="1">
          <mxGeometry x="157" y="2419" width="20" height="20" as="geometry" />
        </mxCell>
        <mxCell id="Sct_ijZb0S9W05oiDWKm-206" value="&lt;i&gt;payment event&lt;/i&gt;" style="text;html=1;align=center;verticalAlign=middle;resizable=0;points=[];autosize=1;strokeColor=none;fillColor=none;" vertex="1" parent="1">
          <mxGeometry x="335" y="2418" width="100" height="30" as="geometry" />
        </mxCell>
        <mxCell id="Sct_ijZb0S9W05oiDWKm-207" value="&lt;b&gt;2&lt;/b&gt;" style="ellipse;whiteSpace=wrap;html=1;aspect=fixed;fillColor=#60a917;fontColor=#ffffff;strokeColor=#2D7600;" vertex="1" parent="1">
          <mxGeometry x="324" y="2419" width="20" height="20" as="geometry" />
        </mxCell>
        <mxCell id="Sct_ijZb0S9W05oiDWKm-208" value="" style="endArrow=classic;html=1;rounded=0;" edge="1" parent="1">
          <mxGeometry width="50" height="50" relative="1" as="geometry">
            <mxPoint x="471" y="2441" as="sourcePoint" />
            <mxPoint x="641" y="2441" as="targetPoint" />
          </mxGeometry>
        </mxCell>
        <mxCell id="Sct_ijZb0S9W05oiDWKm-209" value="&lt;font style=&quot;font-size: 11px;&quot;&gt;&lt;i&gt;registers payment event&amp;nbsp;&lt;/i&gt;&lt;/font&gt;&lt;div style=&quot;font-size: 11px;&quot;&gt;&lt;font style=&quot;font-size: 11px;&quot;&gt;&lt;i&gt;+&amp;nbsp;&lt;/i&gt;&lt;/font&gt;&lt;/div&gt;&lt;div style=&quot;font-size: 11px;&quot;&gt;&lt;font style=&quot;font-size: 11px;&quot;&gt;&lt;i&gt;generates checkout_id&lt;/i&gt;&lt;/font&gt;&lt;/div&gt;" style="text;html=1;align=center;verticalAlign=middle;resizable=0;points=[];autosize=1;strokeColor=none;fillColor=none;" vertex="1" parent="1">
          <mxGeometry x="485" y="2395" width="140" height="50" as="geometry" />
        </mxCell>
        <mxCell id="Sct_ijZb0S9W05oiDWKm-210" value="&lt;b&gt;3&lt;/b&gt;" style="ellipse;whiteSpace=wrap;html=1;aspect=fixed;fillColor=#60a917;fontColor=#ffffff;strokeColor=#2D7600;" vertex="1" parent="1">
          <mxGeometry x="474" y="2408" width="20" height="20" as="geometry" />
        </mxCell>
        <mxCell id="Sct_ijZb0S9W05oiDWKm-211" value="" style="endArrow=classic;html=1;rounded=0;jumpStyle=arc;" edge="1" parent="1">
          <mxGeometry width="50" height="50" relative="1" as="geometry">
            <mxPoint x="472" y="2490" as="sourcePoint" />
            <mxPoint x="761" y="2490" as="targetPoint" />
          </mxGeometry>
        </mxCell>
        <mxCell id="Sct_ijZb0S9W05oiDWKm-212" value="&lt;i&gt;publish checkout_id&lt;/i&gt;" style="text;html=1;align=center;verticalAlign=middle;resizable=0;points=[];autosize=1;strokeColor=none;fillColor=none;" vertex="1" parent="1">
          <mxGeometry x="494" y="2468" width="130" height="30" as="geometry" />
        </mxCell>
        <mxCell id="Sct_ijZb0S9W05oiDWKm-213" value="&lt;b&gt;4&lt;/b&gt;" style="ellipse;whiteSpace=wrap;html=1;aspect=fixed;fillColor=#60a917;fontColor=#ffffff;strokeColor=#2D7600;" vertex="1" parent="1">
          <mxGeometry x="484" y="2468" width="20" height="20" as="geometry" />
        </mxCell>
        <mxCell id="Sct_ijZb0S9W05oiDWKm-214" value="" style="endArrow=classic;html=1;rounded=0;" edge="1" parent="1">
          <mxGeometry width="50" height="50" relative="1" as="geometry">
            <mxPoint x="934" y="2490" as="sourcePoint" />
            <mxPoint x="764" y="2490" as="targetPoint" />
          </mxGeometry>
        </mxCell>
        <mxCell id="Sct_ijZb0S9W05oiDWKm-215" value="&lt;i&gt;polls checkout_id&lt;/i&gt;" style="text;html=1;align=center;verticalAlign=middle;resizable=0;points=[];autosize=1;strokeColor=none;fillColor=none;" vertex="1" parent="1">
          <mxGeometry x="795" y="2468" width="120" height="30" as="geometry" />
        </mxCell>
        <mxCell id="Sct_ijZb0S9W05oiDWKm-216" value="&lt;b&gt;5&lt;/b&gt;" style="ellipse;whiteSpace=wrap;html=1;aspect=fixed;fillColor=#60a917;fontColor=#ffffff;strokeColor=#2D7600;" vertex="1" parent="1">
          <mxGeometry x="783" y="2468" width="20" height="20" as="geometry" />
        </mxCell>
        <mxCell id="Sct_ijZb0S9W05oiDWKm-217" value="" style="endArrow=classic;html=1;rounded=0;jumpStyle=arc;" edge="1" parent="1">
          <mxGeometry width="50" height="50" relative="1" as="geometry">
            <mxPoint x="939" y="2520" as="sourcePoint" />
            <mxPoint x="639" y="2520" as="targetPoint" />
          </mxGeometry>
        </mxCell>
        <mxCell id="Sct_ijZb0S9W05oiDWKm-218" value="&lt;i&gt;&lt;font style=&quot;font-size: 11px;&quot;&gt;fetch details for checkout_id&lt;/font&gt;&lt;/i&gt;" style="text;html=1;align=center;verticalAlign=middle;resizable=0;points=[];autosize=1;strokeColor=none;fillColor=none;" vertex="1" parent="1">
          <mxGeometry x="776.82" y="2498" width="160" height="30" as="geometry" />
        </mxCell>
        <mxCell id="Sct_ijZb0S9W05oiDWKm-219" value="&lt;b&gt;6&lt;/b&gt;" style="ellipse;whiteSpace=wrap;html=1;aspect=fixed;fillColor=#60a917;fontColor=#ffffff;strokeColor=#2D7600;" vertex="1" parent="1">
          <mxGeometry x="767" y="2498" width="20" height="20" as="geometry" />
        </mxCell>
        <mxCell id="Sct_ijZb0S9W05oiDWKm-220" value="" style="endArrow=classic;html=1;rounded=0;" edge="1" parent="1">
          <mxGeometry width="50" height="50" relative="1" as="geometry">
            <mxPoint x="940" y="2540" as="sourcePoint" />
            <mxPoint x="1100" y="2540" as="targetPoint" />
          </mxGeometry>
        </mxCell>
        <mxCell id="Sct_ijZb0S9W05oiDWKm-221" value="&lt;i&gt;register checkout_id&lt;/i&gt;" style="text;html=1;align=center;verticalAlign=middle;resizable=0;points=[];autosize=1;strokeColor=none;fillColor=none;" vertex="1" parent="1">
          <mxGeometry x="968" y="2518" width="130" height="30" as="geometry" />
        </mxCell>
        <mxCell id="Sct_ijZb0S9W05oiDWKm-222" value="&lt;b&gt;7&lt;/b&gt;" style="ellipse;whiteSpace=wrap;html=1;aspect=fixed;fillColor=#60a917;fontColor=#ffffff;strokeColor=#2D7600;" vertex="1" parent="1">
          <mxGeometry x="950" y="2518" width="20" height="20" as="geometry" />
        </mxCell>
        <mxCell id="Sct_ijZb0S9W05oiDWKm-223" value="" style="endArrow=classic;html=1;rounded=0;" edge="1" parent="1">
          <mxGeometry width="50" height="50" relative="1" as="geometry">
            <mxPoint x="1100" y="2576" as="sourcePoint" />
            <mxPoint x="936" y="2576" as="targetPoint" />
          </mxGeometry>
        </mxCell>
        <mxCell id="Sct_ijZb0S9W05oiDWKm-224" value="&lt;i&gt;generates payment_token&lt;/i&gt;" style="text;html=1;align=center;verticalAlign=middle;resizable=0;points=[];autosize=1;strokeColor=none;fillColor=none;" vertex="1" parent="1">
          <mxGeometry x="950" y="2555" width="160" height="30" as="geometry" />
        </mxCell>
        <mxCell id="Sct_ijZb0S9W05oiDWKm-225" value="&lt;b&gt;8&lt;/b&gt;" style="ellipse;whiteSpace=wrap;html=1;aspect=fixed;fillColor=#60a917;fontColor=#ffffff;strokeColor=#2D7600;" vertex="1" parent="1">
          <mxGeometry x="940" y="2548" width="20" height="20" as="geometry" />
        </mxCell>
        <mxCell id="Sct_ijZb0S9W05oiDWKm-226" value="" style="endArrow=classic;html=1;rounded=0;jumpStyle=arc;" edge="1" parent="1">
          <mxGeometry width="50" height="50" relative="1" as="geometry">
            <mxPoint x="932" y="2600" as="sourcePoint" />
            <mxPoint x="642" y="2600" as="targetPoint" />
          </mxGeometry>
        </mxCell>
        <mxCell id="Sct_ijZb0S9W05oiDWKm-227" value="&lt;i&gt;register payment_token&lt;/i&gt;" style="text;html=1;align=center;verticalAlign=middle;resizable=0;points=[];autosize=1;strokeColor=none;fillColor=none;" vertex="1" parent="1">
          <mxGeometry x="788" y="2578" width="150" height="30" as="geometry" />
        </mxCell>
        <mxCell id="Sct_ijZb0S9W05oiDWKm-228" value="&lt;b&gt;9&lt;/b&gt;" style="ellipse;whiteSpace=wrap;html=1;aspect=fixed;fillColor=#60a917;fontColor=#ffffff;strokeColor=#2D7600;" vertex="1" parent="1">
          <mxGeometry x="778" y="2578" width="20" height="20" as="geometry" />
        </mxCell>
        <mxCell id="Sct_ijZb0S9W05oiDWKm-229" value="" style="endArrow=classic;html=1;rounded=0;" edge="1" parent="1">
          <mxGeometry width="50" height="50" relative="1" as="geometry">
            <mxPoint x="940" y="2630" as="sourcePoint" />
            <mxPoint x="1100" y="2630" as="targetPoint" />
          </mxGeometry>
        </mxCell>
        <mxCell id="Sct_ijZb0S9W05oiDWKm-230" value="&lt;span style=&quot;font-size: 11px;&quot;&gt;&lt;i&gt;request for payment form&amp;nbsp;&lt;/i&gt;&lt;/span&gt;&lt;div&gt;&lt;span style=&quot;font-size: 11px;&quot;&gt;&lt;i&gt;with payment token&lt;/i&gt;&lt;/span&gt;&lt;/div&gt;" style="text;html=1;align=center;verticalAlign=middle;resizable=0;points=[];autosize=1;strokeColor=none;fillColor=none;" vertex="1" parent="1">
          <mxGeometry x="959.49" y="2593" width="150" height="40" as="geometry" />
        </mxCell>
        <mxCell id="Sct_ijZb0S9W05oiDWKm-231" value="&lt;b&gt;10&lt;/b&gt;" style="ellipse;whiteSpace=wrap;html=1;aspect=fixed;fillColor=#60a917;fontColor=#ffffff;strokeColor=#2D7600;" vertex="1" parent="1">
          <mxGeometry x="948" y="2598" width="20" height="20" as="geometry" />
        </mxCell>
        <mxCell id="Sct_ijZb0S9W05oiDWKm-232" value="" style="endArrow=classic;html=1;rounded=0;jumpStyle=arc;" edge="1" parent="1">
          <mxGeometry width="50" height="50" relative="1" as="geometry">
            <mxPoint x="1100" y="2659" as="sourcePoint" />
            <mxPoint x="300" y="2659" as="targetPoint" />
          </mxGeometry>
        </mxCell>
        <mxCell id="Sct_ijZb0S9W05oiDWKm-233" value="display payment form" style="text;html=1;align=center;verticalAlign=middle;resizable=0;points=[];autosize=1;strokeColor=none;fillColor=none;" vertex="1" parent="1">
          <mxGeometry x="963" y="2638" width="140" height="30" as="geometry" />
        </mxCell>
        <mxCell id="Sct_ijZb0S9W05oiDWKm-234" value="&lt;b&gt;11&lt;/b&gt;" style="ellipse;whiteSpace=wrap;html=1;aspect=fixed;fillColor=#60a917;fontColor=#ffffff;strokeColor=#2D7600;" vertex="1" parent="1">
          <mxGeometry x="948" y="2638" width="20" height="20" as="geometry" />
        </mxCell>
        <mxCell id="Sct_ijZb0S9W05oiDWKm-235" value="" style="endArrow=classic;html=1;rounded=0;jumpStyle=arc;" edge="1" parent="1">
          <mxGeometry width="50" height="50" relative="1" as="geometry">
            <mxPoint x="300" y="2690" as="sourcePoint" />
            <mxPoint x="1100" y="2690" as="targetPoint" />
          </mxGeometry>
        </mxCell>
        <mxCell id="Sct_ijZb0S9W05oiDWKm-236" value="process payment" style="text;html=1;align=center;verticalAlign=middle;resizable=0;points=[];autosize=1;strokeColor=none;fillColor=none;" vertex="1" parent="1">
          <mxGeometry x="978" y="2668" width="110" height="30" as="geometry" />
        </mxCell>
        <mxCell id="Sct_ijZb0S9W05oiDWKm-237" value="&lt;b&gt;12&lt;/b&gt;" style="ellipse;whiteSpace=wrap;html=1;aspect=fixed;fillColor=#60a917;fontColor=#ffffff;strokeColor=#2D7600;" vertex="1" parent="1">
          <mxGeometry x="950" y="2669" width="20" height="20" as="geometry" />
        </mxCell>
        <mxCell id="Sct_ijZb0S9W05oiDWKm-239" value="" style="endArrow=classic;html=1;rounded=0;" edge="1" parent="1">
          <mxGeometry width="50" height="50" relative="1" as="geometry">
            <mxPoint x="1099" y="2740" as="sourcePoint" />
            <mxPoint x="939" y="2740" as="targetPoint" />
          </mxGeometry>
        </mxCell>
        <mxCell id="Sct_ijZb0S9W05oiDWKm-240" value="webhook to update&amp;nbsp;&lt;div&gt;payment status&lt;/div&gt;" style="text;html=1;align=center;verticalAlign=middle;resizable=0;points=[];autosize=1;strokeColor=none;fillColor=none;" vertex="1" parent="1">
          <mxGeometry x="970" y="2706" width="130" height="40" as="geometry" />
        </mxCell>
        <mxCell id="Sct_ijZb0S9W05oiDWKm-241" value="&lt;b&gt;13&lt;/b&gt;" style="ellipse;whiteSpace=wrap;html=1;aspect=fixed;fillColor=#60a917;fontColor=#ffffff;strokeColor=#2D7600;" vertex="1" parent="1">
          <mxGeometry x="952" y="2717" width="20" height="20" as="geometry" />
        </mxCell>
        <mxCell id="Sct_ijZb0S9W05oiDWKm-244" style="edgeStyle=orthogonalEdgeStyle;rounded=0;orthogonalLoop=1;jettySize=auto;html=1;exitX=1;exitY=0.5;exitDx=0;exitDy=0;entryX=0;entryY=0.5;entryDx=0;entryDy=0;entryPerimeter=0;" edge="1" parent="1" source="Sct_ijZb0S9W05oiDWKm-133" target="Sct_ijZb0S9W05oiDWKm-135">
          <mxGeometry relative="1" as="geometry" />
        </mxCell>
        <mxCell id="Sct_ijZb0S9W05oiDWKm-245" style="edgeStyle=orthogonalEdgeStyle;rounded=0;orthogonalLoop=1;jettySize=auto;html=1;exitX=0;exitY=0.5;exitDx=0;exitDy=0;entryX=1;entryY=0.5;entryDx=0;entryDy=0;entryPerimeter=0;" edge="1" parent="1" source="Sct_ijZb0S9W05oiDWKm-134" target="Sct_ijZb0S9W05oiDWKm-136">
          <mxGeometry relative="1" as="geometry" />
        </mxCell>
      </root>
    </mxGraphModel>
  </diagram>
</mxfile>
